<svg width="42" height="42" viewBox="0 0 42 42" fill="none" xmlns="http://www.w3.org/2000/svg">
<path d="M40.9231 15.4455C40.9231 13.0892 39.7074 10.9353 37.7201 9.71429V5.12175C37.7201 3.51794 36.5045 2.30859 34.8925 2.30859C34.5622 2.30859 34.2288 2.3606 33.8986 2.4641L18.3334 7.40913H8.61515C6.47875 7.40913 4.59124 8.4949 3.47495 10.1438C3.47465 10.1438 3.47435 10.1438 3.47405 10.1438H3.06745C1.37611 10.1437 0 11.5198 0 13.2112V17.6458C0 19.3372 1.37611 20.7132 3.06755 20.7132H3.4625C4.57708 22.3723 6.47062 23.4664 8.61525 23.4664H11.2083V35.8493C11.2083 37.4382 12.5016 38.731 14.0914 38.731H16.3576C17.9473 38.731 19.2406 37.4383 19.2406 35.8493V23.7537L33.9009 28.3996C34.2286 28.5026 34.5624 28.5548 34.8933 28.5548H34.8934C35.6512 28.5548 36.3552 28.2812 36.8759 27.7846C37.4203 27.2651 37.7201 26.5395 37.7201 25.7412V21.1736C39.7059 19.9536 40.9231 17.7963 40.9231 15.4455ZM1.60631 17.6458V13.2112C1.60631 12.5392 2.0629 11.9733 2.68174 11.8034C2.50655 12.3765 2.41157 12.9843 2.41157 13.614V17.2629C2.41157 17.8848 2.50464 18.4852 2.67571 19.0521C2.05999 18.8802 1.60631 18.3156 1.60631 17.6458ZM4.01789 17.2629V13.614C4.01789 11.0783 6.08019 9.01544 8.61515 9.01544H17.6548V21.8601H8.61515C6.08019 21.8602 4.01789 19.7979 4.01789 17.2629ZM16.3576 37.1247H14.0914C13.3874 37.1247 12.8146 36.5525 12.8146 35.8493V23.4665H17.6343V35.8494C17.6342 36.5526 17.0614 37.1247 16.3576 37.1247ZM36.1138 25.7413C36.1138 26.1013 35.9939 26.406 35.767 26.6224C35.5466 26.8327 35.2363 26.9486 34.8934 26.9486C34.8934 26.9486 34.8934 26.9486 34.8933 26.9486C34.726 26.9486 34.5542 26.9213 34.3844 26.8679L19.2612 22.0752V12.0298L30.0122 8.61658C30.435 8.48235 30.6689 8.03087 30.5347 7.60801C30.4005 7.18535 29.9486 6.95143 29.5261 7.08556L19.2612 10.3445V8.7999L34.3819 3.99592C34.5535 3.94211 34.7253 3.9149 34.8925 3.9149C35.5005 3.9149 36.1138 4.28807 36.1138 5.12175V25.7413ZM37.7201 19.1604V11.7279C38.7271 12.6807 39.3168 14.0141 39.3168 15.4455C39.3168 16.8734 38.7267 18.2077 37.7201 19.1604Z" fill="#32D7C5"/>
<path d="M14.4337 14.6465H7.2221C6.77856 14.6465 6.41895 15.0061 6.41895 15.4496C6.41895 15.8932 6.77856 16.2528 7.2221 16.2528H14.4338C14.8774 16.2528 15.237 15.8932 15.237 15.4496C15.237 15.0061 14.8773 14.6465 14.4337 14.6465Z" fill="#32D7C5"/>
<path d="M7.2221 13.0438H14.4338C14.8774 13.0438 15.237 12.6842 15.237 12.2407C15.237 11.7971 14.8774 11.4375 14.4338 11.4375H7.2221C6.77856 11.4375 6.41895 11.7971 6.41895 12.2407C6.41895 12.6842 6.77856 13.0438 7.2221 13.0438Z" fill="#32D7C5"/>
<path d="M14.4337 17.8555H7.2221C6.77856 17.8555 6.41895 18.2151 6.41895 18.6586C6.41895 19.1022 6.77856 19.4618 7.2221 19.4618H14.4338C14.8774 19.4618 15.237 19.1022 15.237 18.6586C15.237 18.2151 14.8773 17.8555 14.4337 17.8555Z" fill="#32D7C5"/>
<path d="M33.4866 5.79566L31.9365 6.30025C31.5147 6.43759 31.2841 6.89077 31.4213 7.31252C31.5319 7.65165 31.8465 7.8672 32.1848 7.8672C32.2673 7.8672 32.351 7.85445 32.4337 7.82755L33.9838 7.32296C34.4056 7.18562 34.6362 6.73244 34.4989 6.31069C34.3615 5.88893 33.9081 5.65832 33.4866 5.79566Z" fill="#32D7C5"/>
</svg>
