<svg width="44" height="44" viewBox="0 0 44 44" fill="none" xmlns="http://www.w3.org/2000/svg">
<path d="M34.9277 27.3948L28.7897 25.7579C28.8791 25.5894 28.9018 25.3901 28.8344 25.2038C28.7354 24.9315 28.4769 24.75 28.1875 24.75H25.4375V23.1323C27.3013 22.0502 28.6158 20.1231 28.8399 17.875H28.875C29.5666 17.875 30.1916 17.6103 30.6749 17.1875H32.3125C33.4496 17.1875 34.375 16.2621 34.375 15.125C34.375 14.2299 33.7982 13.4736 33 13.189V11.6875C33 5.62238 28.0651 0.6875 22 0.6875C15.9349 0.6875 11 5.62238 11 11.6875V13.189C10.2018 13.4736 9.625 14.2299 9.625 15.125C9.625 16.2621 10.5504 17.1875 11.6875 17.1875H13.0625V18.5625C13.0625 19.6996 13.9879 20.625 15.125 20.625H16.0552C16.6581 21.6638 17.5237 22.5294 18.5625 23.1323V24.75H15.8125C15.5231 24.75 15.2646 24.9315 15.1662 25.2031C15.0989 25.3901 15.1216 25.5894 15.2109 25.7572L9.07294 27.3941C6.96919 27.9551 5.5 29.8664 5.5 32.0437V42.625C5.5 43.0052 5.80731 43.3125 6.1875 43.3125H37.8125C38.1927 43.3125 38.5 43.0052 38.5 42.625V32.0437C38.5 29.8664 37.0308 27.9551 34.9277 27.3948ZM22.1052 41.9375H21.8948L20.647 34.4513L21.7779 31.625H22.2221L23.353 34.4513L22.1052 41.9375ZM23.3035 28.7739L22.3197 30.25H21.6803L20.6958 28.7739L20.9254 28.0858L21.5139 28.6742C21.648 28.8076 21.824 28.875 22 28.875C22.176 28.875 22.352 28.8076 22.4861 28.6736L23.0746 28.0851L23.3035 28.7739ZM24.3959 27.7021L24.1615 26.9988L25.0346 26.1257H26.2886L24.3959 27.7021ZM13.75 15.125C13.75 14.3949 14.3241 13.8016 15.0432 13.7582L15.125 13.9219V16.5C14.3667 16.5 13.75 15.8833 13.75 15.125ZM15.8098 12.2176L15.2419 11.0825C14.795 10.1881 14.8349 9.14375 15.3491 8.28713C15.8716 7.41606 16.8272 6.875 17.8427 6.875C18.9207 6.875 19.921 7.41056 20.5198 8.30844L20.7357 8.63225L21.8783 7.86844L21.6631 7.54531C21.0437 6.61581 20.119 5.96269 19.0706 5.67188C20.6271 4.70594 22.6449 4.55125 24.3183 5.313L26.2371 6.18681C27.0105 6.53881 27.6512 7.11081 28.0878 7.83956C28.7781 8.99044 28.8729 10.4122 28.3415 11.6442L28.138 12.1158L27.4264 10.6927C27.335 10.5098 27.1679 10.3778 26.9692 10.3311C26.7699 10.285 26.5616 10.329 26.3986 10.4507L25.2993 11.2757C24.354 11.9845 23.1818 12.375 22 12.375C20.8182 12.375 19.646 11.9845 18.7 11.275L17.6 10.45C17.4377 10.3283 17.2288 10.2836 17.0294 10.3304C16.8307 10.3771 16.6636 10.5098 16.5722 10.692L15.8098 12.2176ZM28.875 16.5V13.8806L28.9293 13.7555C29.6615 13.7844 30.25 14.3853 30.25 15.125C30.25 15.8833 29.6333 16.5 28.875 16.5ZM32.3125 15.8125H31.5274C31.5851 15.5911 31.625 15.3636 31.625 15.125C31.625 14.8864 31.5851 14.6589 31.5274 14.4375H32.3125C32.692 14.4375 33 14.7455 33 15.125C33 15.5045 32.692 15.8125 32.3125 15.8125ZM22 2.0625C27.3075 2.0625 31.625 6.38 31.625 11.6875V13.0625H30.6749C30.3401 12.7703 29.9392 12.5538 29.4917 12.4506L29.6044 12.1887C30.3105 10.5518 30.1847 8.66112 29.2676 7.13212C28.6859 6.16344 27.8355 5.40306 26.807 4.93556L24.8889 4.06175C22.6256 3.03119 19.8454 3.33163 17.8551 4.82487L16.7709 5.6375L16.7723 5.63956C15.6991 5.91937 14.7531 6.61031 14.1714 7.579C13.4138 8.84056 13.3547 10.3799 14.0133 11.6971L14.4059 12.4823C14.0003 12.5929 13.6338 12.793 13.3258 13.0618H12.375V11.6868C12.375 6.38 16.6925 2.0625 22 2.0625ZM11 15.125C11 14.7455 11.308 14.4375 11.6875 14.4375H12.4726C12.4149 14.6589 12.375 14.8864 12.375 15.125C12.375 15.3636 12.4149 15.5911 12.4726 15.8125H11.6875C11.308 15.8125 11 15.5045 11 15.125ZM15.125 19.25C14.7455 19.25 14.4375 18.942 14.4375 18.5625V17.7774C14.6589 17.8351 14.8864 17.875 15.125 17.875H15.1601C15.2075 18.3494 15.3031 18.8086 15.4426 19.25H15.125ZM17.7134 20.625H19.3765C19.6611 21.4232 20.4174 22 21.3125 22H22.6875C23.8246 22 24.75 21.0746 24.75 19.9375C24.75 18.8004 23.8246 17.875 22.6875 17.875H21.3125C20.4174 17.875 19.6611 18.4518 19.3765 19.25H16.9049C16.6458 18.6127 16.5 17.9169 16.5 17.1875V13.9123L17.4336 12.0443L17.875 12.375C19.0582 13.2619 20.5232 13.75 22 13.75C23.4767 13.75 24.9418 13.2619 26.1257 12.375L26.5664 12.045L27.5 13.9123V17.1875C27.5 20.2201 25.0326 22.6875 22 22.6875C20.2675 22.6875 18.722 21.8804 17.7134 20.625ZM20.625 19.9375C20.625 19.558 20.933 19.25 21.3125 19.25H22.6875C23.067 19.25 23.375 19.558 23.375 19.9375C23.375 20.317 23.067 20.625 22.6875 20.625H21.3125C20.933 20.625 20.625 20.317 20.625 19.9375ZM22 24.0625C22.7184 24.0625 23.4107 23.9504 24.0625 23.7456V25.1529L22 27.2154L19.9375 25.1529V23.7456C20.5892 23.9504 21.2816 24.0625 22 24.0625ZM18.9654 26.125L19.8385 26.9981L19.6041 27.7014L17.7114 26.125H18.9654ZM6.875 32.0437C6.875 30.4886 7.92412 29.1232 9.427 28.7224L16.4368 26.8531L19.4212 29.3404L20.5397 31.0179L19.2988 34.1199C19.2527 34.2368 19.2383 34.3633 19.2589 34.4878L20.5012 41.9375H13.75V33.6875H12.375V41.9375H6.875V32.0437ZM37.125 41.9375H31.625V33.6875H30.25V41.9375H23.4988L24.7404 34.4878C24.761 34.3633 24.7473 34.2368 24.7005 34.1199L23.4596 31.0179L24.5781 29.3404L27.5626 26.8531L34.5723 28.7224C36.0759 29.1232 37.125 30.4893 37.125 32.0437V41.9375Z" fill="#32D7C5"/>
</svg>
