<svg width="38" height="38" viewBox="0 0 38 38" fill="none" xmlns="http://www.w3.org/2000/svg">
<g clip-path="url(#clip0_154_1428)">
<path d="M14.5669 9.8819H5.06693C4.85524 9.8819 4.68359 9.71057 4.68359 9.49857C4.68359 9.28657 4.85524 9.11523 5.06693 9.11523H14.5669C14.7786 9.11523 14.9503 9.28657 14.9503 9.49857C14.9503 9.71057 14.7786 9.8819 14.5669 9.8819Z" fill="#32D7C5" stroke="#32D7C5" stroke-width="0.5"/>
<path d="M10.7669 7.98346H5.06693C4.85524 7.98346 4.68359 7.81213 4.68359 7.60013C4.68359 7.38813 4.85524 7.2168 5.06693 7.2168H10.7669C10.9786 7.2168 11.1503 7.38813 11.1503 7.60013C11.1503 7.81213 10.9786 7.98346 10.7669 7.98346Z" fill="#32D7C5" stroke="#32D7C5" stroke-width="0.5"/>
<path d="M14.5669 11.0156C14.7786 11.0156 14.9503 11.187 14.9503 11.399C14.9503 11.611 14.7786 11.7823 14.5669 11.7823H5.06693C4.85524 11.7823 4.68359 11.611 4.68359 11.399C4.68359 11.187 4.85524 11.0156 5.06693 11.0156H14.5669Z" fill="#32D7C5" stroke="#32D7C5" stroke-width="0.5"/>
<path d="M17.4711 28.8833H0.25V2.78333H18.3667H18.6167V2.53333V0.633333C18.6167 0.421334 18.7883 0.25 19 0.25C19.2117 0.25 19.3833 0.421334 19.3833 0.633333V2.53333V2.78333H19.6333H37.75V28.8833H20.5289H19.9253L20.3521 29.3101L28.1377 37.0957C28.2877 37.2457 28.2877 37.4877 28.1377 37.6377C28.0628 37.7125 27.965 37.75 27.8667 37.75C27.7683 37.75 27.6705 37.7125 27.5957 37.6377L19.8101 29.8521L19.3833 29.4253V30.0289V36.1C19.3833 36.312 19.2117 36.4833 19 36.4833C18.7883 36.4833 18.6167 36.312 18.6167 36.1V30.0289V29.4253L18.1899 29.8521L10.4043 37.6377C10.3295 37.7125 10.2317 37.75 10.1333 37.75C10.035 37.75 9.93719 37.7125 9.86234 37.6377C9.71234 37.4877 9.71234 37.2457 9.86234 37.0957L17.6479 29.3101L18.0747 28.8833H17.4711ZM36.7333 28.1167H36.9833V27.8667V3.8V3.55H36.7333H1.26667H1.01667V3.8V27.8667V28.1167H1.26667H36.7333Z" fill="#32D7C5" stroke="#32D7C5" stroke-width="0.5"/>
<path d="M29.0477 12.8438L29.4745 12.4171H28.8709H25.9665C25.7548 12.4171 25.5831 12.2457 25.5831 12.0337C25.5831 11.8217 25.7548 11.6504 25.9665 11.6504H30.3998C30.4488 11.6504 30.4984 11.6602 30.5453 11.6798L30.5464 11.6803C30.64 11.7189 30.7146 11.7935 30.7532 11.8871L30.7537 11.8882C30.7733 11.9351 30.7831 11.9847 30.7831 12.0337V16.4671C30.7831 16.6792 30.612 16.8504 30.3998 16.8504C30.1876 16.8504 30.0165 16.6792 30.0165 16.4671V13.5626V12.959L29.5897 13.3858L21.5508 21.4247C21.4759 21.4996 21.3782 21.5371 21.2798 21.5371C21.1814 21.5371 21.0837 21.4996 21.0088 21.4247L15.7566 16.1725L15.5798 15.9957L15.403 16.1725L7.87079 23.7047C7.79595 23.7796 7.69818 23.8171 7.5998 23.8171C7.50142 23.8171 7.40365 23.7796 7.32881 23.7047C7.17881 23.5547 7.17881 23.3127 7.32881 23.1627L15.3088 15.1827C15.4588 15.0327 15.7008 15.0327 15.8508 15.1827L21.103 20.435L21.2798 20.6117L21.4566 20.435L29.0477 12.8438Z" fill="#32D7C5" stroke="#32D7C5" stroke-width="0.5"/>
</g>
<defs>
<clipPath id="clip0_154_1428">
<rect width="38" height="38" fill="white"/>
</clipPath>
</defs>
</svg>
