<svg width="50" height="50" viewBox="0 0 50 50" fill="none" xmlns="http://www.w3.org/2000/svg">
<path d="M50 27.4151L41.0272 17.2843H32.7127V13.2768H22.7934C20.8863 9.20036 16.7462 6.36914 11.9567 6.36914C5.36398 6.36914 0 11.7331 0 18.326C0 22.9031 2.58592 26.8872 6.37306 28.896V38.3363H10.921C11.0429 41.2775 13.4728 43.6331 16.4434 43.6331C19.414 43.6331 21.8439 41.2775 21.9657 38.3363H34.4072C34.5291 41.2775 36.9591 43.6331 39.9297 43.6331C42.9002 43.6331 45.3302 41.2775 45.452 38.3363H50V27.4151ZM2.08337 18.326C2.08337 12.8816 6.51245 8.45241 11.9568 8.45241C17.4011 8.45241 21.8303 12.8816 21.8303 18.326C21.8303 23.7703 17.4011 28.1994 11.9568 28.1994C6.51235 28.1994 2.08337 23.7703 2.08337 18.326ZM16.4434 41.5499C14.5437 41.5499 12.9985 40.0046 12.9985 38.105C12.9985 36.2053 14.5437 34.6601 16.4434 34.6601C18.3431 34.6601 19.8883 36.2053 19.8883 38.105C19.8883 40.0046 18.3431 41.5499 16.4434 41.5499ZM30.6294 36.253H21.6514C20.8882 34.113 18.8421 32.5768 16.4434 32.5768C14.0446 32.5768 11.9986 34.1131 11.2353 36.253H8.45633V29.7595C9.56398 30.0993 10.7393 30.2828 11.9567 30.2828C18.5496 30.2828 23.9135 24.9188 23.9135 18.3261C23.9135 17.3027 23.784 16.3089 23.541 15.3603H30.6293V36.253H30.6294ZM39.9297 41.5499C38.0299 41.5499 36.4847 40.0046 36.4847 38.105C36.4847 36.2053 38.0299 34.6601 39.9297 34.6601C41.8294 34.6601 43.3746 36.2053 43.3746 38.105C43.3746 40.0046 41.8294 41.5499 39.9297 41.5499ZM47.9166 36.253H45.1378C44.3745 34.113 42.3284 32.5768 39.9297 32.5768C37.5309 32.5768 35.4848 34.1131 34.7215 36.253H32.7128V19.3677H40.0894L47.9166 28.2056V36.253Z" fill="#32D7C5"/>
<path d="M16.6294 19.8418L12.9984 17.7269V10.7715H10.915V18.9242L15.5807 21.6423L16.6294 19.8418Z" fill="#32D7C5"/>
</svg>
