<svg width="40" height="41" viewBox="0 0 40 41" fill="none" xmlns="http://www.w3.org/2000/svg">
<path d="M33.5715 0H12.1429C10.3958 0 8.94361 1.29443 8.63718 2.99593C7.18861 3.27048 6.04789 4.43971 5.78004 5.9245C4.12004 6.23859 2.85718 7.72704 2.85718 9.51786V37.3393C2.85718 39.3578 4.45932 41 6.42861 41H27.8572C29.6043 41 31.0565 39.7056 31.3629 38.0041C32.8115 37.7295 33.9522 36.5603 34.22 35.0755C35.88 34.7614 37.1429 33.273 37.1429 31.4821V3.66071C37.1429 1.6422 35.5408 0 33.5715 0ZM30 37.3393C30 38.5503 29.0386 39.5357 27.8572 39.5357H6.42861C5.24718 39.5357 4.28575 38.5503 4.28575 37.3393V9.51786C4.28575 8.30689 5.24718 7.32143 6.42861 7.32143H27.8572C29.0386 7.32143 30 8.30689 30 9.51786V37.3393ZM32.8572 34.4107C32.8572 35.364 32.2579 36.1693 31.4286 36.4724V9.51786C31.4286 7.49934 29.8265 5.85714 27.8572 5.85714H7.27432C7.57004 5.00712 8.35575 4.39286 9.28575 4.39286H30.7143C31.8958 4.39286 32.8572 5.37832 32.8572 6.58929V34.4107ZM35.7143 31.4821C35.7143 32.4354 35.115 33.2408 34.2858 33.5439V6.58929C34.2858 4.57077 32.6836 2.92857 30.7143 2.92857H10.1315C10.4272 2.07855 11.2129 1.46429 12.1429 1.46429H33.5715C34.7529 1.46429 35.7143 2.44975 35.7143 3.66071V31.4821Z" fill="#32D7C5"/>
<path d="M10.5054 11.9288L9.49536 12.9641L10.9239 14.4284C11.0632 14.5712 11.2461 14.6429 11.4289 14.6429C11.6118 14.6429 11.7946 14.5712 11.9339 14.4284L15.5054 10.7677L14.4954 9.73242L11.4289 12.8755L10.5054 11.9288Z" fill="#32D7C5"/>
<path d="M14.2857 16.1066H8.57139V10.2494H12.8571V8.78516H7.85711C7.46282 8.78516 7.14282 9.11242 7.14282 9.5173V16.8387C7.14282 17.2436 7.46282 17.5709 7.85711 17.5709H15C15.3943 17.5709 15.7143 17.2436 15.7143 16.8387V13.178H14.2857V16.1066Z" fill="#32D7C5"/>
<path d="M10.5054 22.1789L9.49536 23.2141L10.9239 24.6784C11.0632 24.8212 11.2461 24.8929 11.4289 24.8929C11.6118 24.8929 11.7946 24.8212 11.9339 24.6784L15.5054 21.0177L14.4954 19.9824L11.4289 23.1255L10.5054 22.1789Z" fill="#32D7C5"/>
<path d="M14.2857 26.3566H8.57139V20.4994H12.8571V19.0352H7.85711C7.46282 19.0352 7.14282 19.3624 7.14282 19.7673V27.0887C7.14282 27.4936 7.46282 27.8209 7.85711 27.8209H15C15.3943 27.8209 15.7143 27.4936 15.7143 27.0887V23.428H14.2857V26.3566Z" fill="#32D7C5"/>
<path d="M10.5054 32.4289L9.49536 33.4641L10.9239 34.9284C11.0632 35.0712 11.2461 35.1429 11.4289 35.1429C11.6118 35.1429 11.7946 35.0712 11.9339 34.9284L15.5054 31.2677L14.4954 30.2324L11.4289 33.3755L10.5054 32.4289Z" fill="#32D7C5"/>
<path d="M14.2857 36.6066H8.57139V30.7494H12.8571V29.2852H7.85711C7.46282 29.2852 7.14282 29.6124 7.14282 30.0173V37.3387C7.14282 37.7436 7.46282 38.0709 7.85711 38.0709H15C15.3943 38.0709 15.7143 37.7436 15.7143 37.3387V33.678H14.2857V36.6066Z" fill="#32D7C5"/>
<path d="M27.1428 9.51758H17.1428V10.9819H27.1428V9.51758Z" fill="#32D7C5"/>
<path d="M27.1428 12.4473H17.1428V13.9116H27.1428V12.4473Z" fill="#32D7C5"/>
<path d="M27.1429 15.375H17.1429V16.8393H27.1429V15.375Z" fill="#32D7C5"/>
<path d="M27.1428 19.7676H17.1428V21.2319H27.1428V19.7676Z" fill="#32D7C5"/>
<path d="M27.1428 22.6973H17.1428V24.1616H27.1428V22.6973Z" fill="#32D7C5"/>
<path d="M27.1429 25.625H17.1429V27.0893H27.1429V25.625Z" fill="#32D7C5"/>
<path d="M27.1428 30.0176H17.1428V31.4819H27.1428V30.0176Z" fill="#32D7C5"/>
<path d="M27.1428 32.9473H17.1428V34.4116H27.1428V32.9473Z" fill="#32D7C5"/>
<path d="M27.1429 35.875H17.1429V37.3393H27.1429V35.875Z" fill="#32D7C5"/>
</svg>
