<svg width="55" height="55" viewBox="0 0 55 55" fill="none" xmlns="http://www.w3.org/2000/svg">
<path d="M54.7424 18.3765L44.0754 7.70944C43.7324 7.36634 43.1763 7.36634 42.8331 7.70944L37.4997 13.0429C37.335 13.2076 37.2425 13.431 37.2425 13.664C37.2425 13.897 37.335 14.1205 37.4997 14.2851L38.0317 14.8172L36.809 16.0396C36.0153 16.8331 34.7837 17.0496 33.7445 16.5779C32.7702 16.1357 31.6871 15.902 30.612 15.902C29.3355 15.902 28.0881 16.2225 26.9797 16.8294C26.5174 16.7155 26.0431 16.6572 25.564 16.6572C24.8711 16.6572 24.1906 16.7768 23.5413 17.0128C22.5046 17.3894 21.3933 17.156 20.6406 16.4035L18.4453 14.208L18.7067 13.9465C18.8714 13.7819 18.9639 13.5584 18.9639 13.3254C18.9639 13.0924 18.8714 12.869 18.7067 12.7043L13.3733 7.37085C13.0301 7.02775 12.474 7.02775 12.1309 7.37085L0.257247 19.2446C-0.085749 19.5877 -0.085749 20.1438 0.257247 20.4868L5.5906 25.8202C5.75539 25.985 5.97872 26.0775 6.21182 26.0775C6.44493 26.0775 6.66815 25.985 6.83304 25.8202L7.15111 25.5022L8.69948 27.0505C9.09017 27.4412 9.34917 27.929 9.44832 28.4611C9.96243 31.22 11.2837 33.7282 13.2693 35.7148L13.5609 36.0065C13.0008 36.5963 12.6928 37.3648 12.6928 38.1812C12.6928 39.0256 13.0217 39.8196 13.6187 40.4167C14.2351 41.0331 15.0445 41.3412 15.8543 41.3412C15.907 41.3412 15.9595 41.3398 16.0123 41.3371C15.9695 42.1985 16.2763 43.0741 16.9327 43.7307C17.5298 44.3278 18.3238 44.6567 19.1682 44.6567C19.1917 44.6567 19.2152 44.6555 19.2387 44.6549C19.2206 45.4873 19.5278 46.3256 20.1615 46.9594C20.7587 47.5567 21.5526 47.8854 22.3972 47.8854C23.2416 47.8854 24.0355 47.5565 24.6327 46.9594C24.683 46.9092 24.7304 46.8572 24.7767 46.8046C25.0877 46.9129 25.4166 46.9706 25.7491 46.9706C26.5389 46.9706 27.281 46.6629 27.8374 46.1046C28.1336 45.8085 28.3583 45.4603 28.5046 45.081L28.5945 45.1709C29.1702 45.7466 29.9263 46.0344 30.6825 46.0344C31.4386 46.0344 32.1948 45.7466 32.7704 45.1709C33.0764 44.865 33.3063 44.5037 33.4519 44.1098C33.9672 44.4846 34.5773 44.6722 35.1876 44.6722C35.9438 44.6722 36.7003 44.3845 37.2765 43.809C37.8342 43.2514 38.1413 42.5095 38.1413 41.7202C38.1413 41.4817 38.1127 41.2479 38.0582 41.0217C38.6208 40.9074 39.1377 40.6313 39.5525 40.216C40.1101 39.6583 40.4172 38.9168 40.4172 38.128C40.4172 37.5066 40.2258 36.915 39.8723 36.419L40.577 35.7143C42.5856 33.7046 43.9126 31.165 44.4146 28.3698C44.4987 27.9017 44.7305 27.467 45.0852 27.1122L47.7061 24.4913L48.1668 24.9521C48.3384 25.1236 48.5632 25.2093 48.788 25.2093C49.0127 25.2093 49.2377 25.1236 49.4092 24.9521L54.7427 19.6186C54.9074 19.4539 54.9999 19.2305 54.9999 18.9975C54.9999 18.7645 54.9071 18.5413 54.7424 18.3765ZM6.21182 23.957L2.12058 19.8658L12.7519 9.2344L16.8433 13.3256L6.21182 23.957ZM16.8475 39.1747C16.3 39.7222 15.4089 39.7224 14.861 39.1747C14.5956 38.9093 14.4495 38.5566 14.4495 38.1814C14.4495 37.8063 14.5957 37.4535 14.8611 37.1882C15.1349 36.9144 15.4944 36.7774 15.8542 36.7774C16.2138 36.7774 16.5737 36.9144 16.8474 37.1882C17.395 37.7358 17.395 38.627 16.8475 39.1747ZM20.1612 42.4885C19.8961 42.7539 19.5434 42.8999 19.168 42.8999C18.7929 42.8999 18.4401 42.7537 18.1749 42.4885C17.6272 41.9408 17.6272 41.0497 18.1749 40.5019C18.4487 40.2281 18.8083 40.0912 19.1681 40.0912C19.5277 40.0912 19.8875 40.2281 20.1612 40.5019C20.7091 41.0496 20.7091 41.9408 20.1612 42.4885ZM23.3901 45.7172C23.1248 45.9826 22.7721 46.1287 22.397 46.1287C22.0218 46.1287 21.669 45.9825 21.4038 45.7172C20.856 45.1696 20.856 44.2784 21.4038 43.7307C21.6776 43.4569 22.0371 43.3199 22.397 43.3199C22.7565 43.3199 23.1164 43.4569 23.3901 43.7307C23.9378 44.2784 23.9378 45.1696 23.3901 45.7172ZM38.3096 38.9742C38.0838 39.2002 37.7836 39.3247 37.4643 39.3247C37.1451 39.3247 36.8448 39.2002 36.6186 38.9736L28.0969 30.4539C27.7535 30.1109 27.1975 30.111 26.8545 30.4541C26.5116 30.7971 26.5118 31.3533 26.8547 31.6963L36.034 40.8746C36.2599 41.1004 36.3842 41.4007 36.3842 41.7202C36.3842 42.0403 36.2598 42.341 36.0343 42.5665C35.5674 43.033 34.808 43.0331 34.3418 42.5668L32.7932 41.0182C32.7846 41.0093 32.7762 41.0003 32.7673 40.9915C32.7647 40.9889 32.7618 40.9866 32.7592 40.984L25.6407 33.8656C25.2975 33.5226 24.7414 33.5226 24.3983 33.8656C24.0552 34.2085 24.0552 34.7648 24.3983 35.1078L31.5397 42.249C31.758 42.4728 31.8782 42.7688 31.8782 43.0829C31.8782 43.4024 31.7537 43.7028 31.5279 43.9286C31.0619 44.3949 30.3032 44.3949 29.8368 43.9286L22.0933 36.185C21.7501 35.8419 21.1941 35.8419 20.851 36.185C20.5079 36.528 20.5079 37.0842 20.851 37.4272L26.5909 43.1673C26.5925 43.1689 26.5938 43.1707 26.5955 43.1722C26.8212 43.3975 26.9454 43.6973 26.9454 44.0164C26.9454 44.3358 26.821 44.6361 26.5943 44.8629C26.3688 45.0889 26.0686 45.2134 25.7488 45.2134C25.6716 45.2134 25.5961 45.2055 25.5222 45.1915C25.6643 44.2341 25.3679 43.2236 24.6325 42.488C24.0354 41.891 23.2414 41.5621 22.397 41.5621C22.3735 41.5621 22.35 41.5633 22.3265 41.5638C22.3446 40.7314 22.0375 39.8932 21.4037 39.2593C20.8064 38.6622 20.0126 38.3333 19.168 38.3333C19.1152 38.3333 19.0626 38.3346 19.0102 38.3372C19.0524 37.4763 18.7456 36.6015 18.0896 35.9453C17.291 35.1469 16.1685 34.8664 15.1415 35.1024L14.5116 34.4725C12.7778 32.738 11.6243 30.5478 11.1754 28.1389C11.011 27.2567 10.5844 26.4506 9.94192 25.808L8.39344 24.2595L17.2031 15.4499L19.3985 17.6454C20.2424 18.4893 21.3914 18.9409 22.5682 18.9409C23.0952 18.9409 23.6281 18.8502 24.1415 18.6636C24.3905 18.5731 24.648 18.5081 24.9089 18.4668L19.47 23.9059C18.8045 24.5713 18.438 25.456 18.438 26.3971C18.438 27.3381 18.8045 28.2228 19.4699 28.8882C20.1567 29.575 21.0586 29.9184 21.961 29.9183C22.8631 29.9183 23.7653 29.5747 24.4523 28.8882L27.184 26.1565L27.9234 26.8964C27.9236 26.8966 27.9237 26.8967 27.9239 26.8969L27.9546 26.9276L27.9842 26.9572C27.9843 26.9573 27.9845 26.9575 27.9847 26.9576L27.9853 26.9582C27.9937 26.9665 28.002 26.9745 28.0103 26.9824L38.3099 37.2821C38.5358 37.5079 38.6601 37.8082 38.6601 38.1277C38.6601 38.4477 38.5358 38.7481 38.3096 38.9742ZM43.8426 25.8701C43.233 26.4797 42.8328 27.2368 42.6852 28.0594C42.2469 30.5 41.0882 32.7176 39.3344 34.4723L38.6594 35.1474L33.1024 29.5904C33.2231 29.5993 33.3444 29.6052 33.4665 29.6052C34.0292 29.6052 34.605 29.5066 35.1782 29.2721C35.6272 29.0884 35.8423 28.5755 35.6586 28.1266C35.4749 27.6777 34.9624 27.4625 34.513 27.6462C32.2522 28.5712 29.5418 26.022 29.24 25.7282C29.235 25.7232 29.2299 25.7184 29.2248 25.7137L29.1936 25.6825C29.1935 25.6824 29.1934 25.6824 29.1933 25.6823L29.1661 25.6552C29.166 25.6551 29.1658 25.6549 29.1656 25.6548L28.4261 24.9148L29.2646 24.0761C29.6078 23.733 29.6078 23.1769 29.2647 22.8338C28.9216 22.4909 28.3655 22.4908 28.0225 22.8338L26.5648 24.2915C26.5643 24.2921 26.5636 24.2926 26.5631 24.2931C26.5626 24.2937 26.562 24.2943 26.5615 24.2949L23.2099 27.6464C22.5212 28.3351 21.4008 28.3349 20.7122 27.6464C20.3786 27.3129 20.195 26.8693 20.195 26.3975C20.195 25.9257 20.3786 25.4822 20.7123 25.1486L26.4971 19.3636C26.819 19.0419 27.1767 18.7588 27.5612 18.5217C28.4746 17.9571 29.5295 17.6587 30.612 17.6587C31.4384 17.6587 32.2705 17.8381 33.0186 18.1776C34.7203 18.9498 36.743 18.59 38.0514 17.282L39.2741 16.0594L46.4637 23.249L43.8426 25.8701ZM48.7877 23.0889L39.363 13.6642L43.4543 9.57299L52.879 18.9977L48.7877 23.0889Z" fill="#32D7C5"/>
<path d="M49.6728 20.5497C50.1579 20.5497 50.5512 20.1565 50.5512 19.6714C50.5512 19.1862 50.1579 18.793 49.6728 18.793C49.1877 18.793 48.7944 19.1862 48.7944 19.6714C48.7944 20.1565 49.1877 20.5497 49.6728 20.5497Z" fill="#32D7C5"/>
<path d="M5.75424 21.4172C6.23936 21.4172 6.63262 21.0239 6.63262 20.5388C6.63262 20.0537 6.23936 19.6604 5.75424 19.6604C5.26912 19.6604 4.87585 20.0537 4.87585 20.5388C4.87585 21.0239 5.26912 21.4172 5.75424 21.4172Z" fill="#32D7C5"/>
</svg>
