<svg width="38" height="39" viewBox="0 0 38 39" fill="none" xmlns="http://www.w3.org/2000/svg">
<g clip-path="url(#clip0_154_1417)">
<path d="M10.667 32.4996V32.5996H10.767H14.567H14.667V32.4996V28.5996V28.4996H14.567H10.767H10.667V28.5996V32.4996ZM12.1337 29.9996H13.2004V31.0996H12.1337V29.9996Z" fill="#32D7C5" stroke="#32D7C5" stroke-width="0.2"/>
<path d="M10.667 25.9996V26.0996H10.767H14.567H14.667V25.9996V22.0996V21.9996H14.567H10.767H10.667V22.0996V25.9996ZM12.1337 23.4996H13.2004V24.5996H12.1337V23.4996Z" fill="#32D7C5" stroke="#32D7C5" stroke-width="0.2"/>
<path d="M18.9999 5.30032C19.4073 5.30032 19.7332 4.96209 19.7332 4.55036C19.7332 4.13863 19.4073 3.80039 18.9999 3.80039C18.5925 3.80039 18.2666 4.13863 18.2666 4.55036C18.2666 4.96209 18.5925 5.30032 18.9999 5.30032Z" fill="#32D7C5" stroke="#32D7C5" stroke-width="0.2"/>
<path d="M27.3333 16.9004V16.8004H27.2333H17.1H17V16.9004V18.2004V18.3004H17.1H27.2333H27.3333V18.2004V16.9004Z" fill="#32D7C5" stroke="#32D7C5" stroke-width="0.2"/>
<path d="M12.1333 6.6H12.1333V6.5C12.1333 6.13196 12.2525 5.83336 12.4533 5.62729C12.6539 5.42145 12.9435 5.3 13.3 5.3H15.8333H15.9333V5.2V3.9C15.9333 2.52273 17.031 1.4 18.3667 1.4H19.6333C20.969 1.4 22.0667 2.52273 22.0667 3.9V5.2V5.3H22.1667H24.7C25.0565 5.3 25.3462 5.42145 25.5467 5.62729C25.7475 5.83336 25.8667 6.13196 25.8667 6.5V7.8C25.8667 8.16804 25.7475 8.46664 25.5467 8.67271C25.3462 8.87855 25.0565 9 24.7 9H13.2999C12.9435 9 12.6538 8.87855 12.4532 8.67271C12.2524 8.46664 12.1333 8.16804 12.1333 7.8V6.6ZM28.4999 6.4H27.3315C27.2798 4.96287 26.1181 3.8 24.6999 3.8H23.5321C23.4795 1.58415 21.6847 -0.1 19.6333 -0.1H18.3667C16.1883 -0.1 14.5167 1.58622 14.4678 3.8H13.3C11.8817 3.8 10.7202 4.96287 10.6685 6.4H9.50001C8.04898 6.4 6.86667 7.6172 6.86667 9.1V36.4C6.86667 37.8827 8.04898 39.1 9.50001 39.1H28.5C29.951 39.1 31.1333 37.8827 31.1333 36.4V9.1C31.1333 7.6172 29.951 6.4 28.4999 6.4ZM29.6667 36.4C29.6667 36.768 29.5475 37.0666 29.3467 37.2727C29.1462 37.4786 28.8565 37.6 28.5 37.6H9.50001C8.91784 37.6 8.33334 37.1208 8.33334 36.4V9.1C8.33334 8.73196 8.45251 8.43336 8.6533 8.22729C8.85386 8.02145 9.14353 7.9 9.50001 7.9H10.6685C10.7202 9.33713 11.8817 10.5 13.3 10.5H24.7C26.1182 10.5 27.2798 9.33713 27.3315 7.9H28.5C29.0822 7.9 29.6667 8.37924 29.6667 9.1V36.4Z" fill="#32D7C5" stroke="#32D7C5" stroke-width="0.2"/>
<path d="M27.3333 23.4004V23.3004H27.2333H17.1H17V23.4004V24.7004V24.8004H17.1H27.2333H27.3333V24.7004V23.4004Z" fill="#32D7C5" stroke="#32D7C5" stroke-width="0.2"/>
<path d="M27.3333 29.9004V29.8004H27.2333H17.1H17V29.9004V31.2004V31.3004H17.1H27.2333H27.3333V31.2004V29.9004Z" fill="#32D7C5" stroke="#32D7C5" stroke-width="0.2"/>
<path d="M10.667 19.4996V19.5996H10.767H14.567H14.667V19.4996V15.5996V15.4996H14.567H10.767H10.667V15.5996V19.4996ZM12.1337 16.9996H13.2004V18.0996H12.1337V16.9996Z" fill="#32D7C5" stroke="#32D7C5" stroke-width="0.2"/>
</g>
<defs>
<clipPath id="clip0_154_1417">
<rect width="38" height="39" fill="white"/>
</clipPath>
</defs>
</svg>
