<svg width="42" height="42" viewBox="0 0 42 42" fill="none" xmlns="http://www.w3.org/2000/svg">
<path d="M25.5219 1.36855L25.4431 1.30701C26.1359 0.419557 27.419 0.261831 28.3034 0.955592L28.2419 1.03394L28.3034 0.955594L40.6722 10.6589C41.1013 10.9955 41.374 11.4803 41.4399 12.0229C41.5059 12.566 41.3568 13.1029 41.0207 13.5339L41.0207 13.5339L38.5383 16.7143L40.607 19.812L40.6087 19.8141L40.6084 19.8143C40.6092 19.8155 40.6099 19.8165 40.6104 19.8173C40.6106 19.8176 40.6107 19.8178 40.6108 19.818L25.5219 1.36855ZM25.5219 1.36855L25.4431 1.30702L13.4708 16.6458L5.54425 21.9788M25.5219 1.36855L5.54425 21.9788M5.54425 21.9788L5.54409 21.9788L5.53286 21.9864L3.33824 23.463L1.80558 24.4942C1.77732 24.5132 1.74951 24.5329 1.72227 24.5533M5.54425 21.9788L12.8115 40.9806M1.72227 24.5533C1.7223 24.5533 1.72234 24.5533 1.72237 24.5532L1.78217 24.6334L1.72218 24.5534C1.72221 24.5534 1.72224 24.5533 1.72227 24.5533ZM1.72227 24.5533C1.31465 24.8575 1.03789 25.2969 0.939063 25.8001L0.939062 25.8001C0.833914 26.3357 0.942713 26.8807 1.24531 27.3338M1.24531 27.3338C1.24622 27.3352 1.24706 27.3365 1.24779 27.3375M1.24531 27.3338C1.23904 27.324 1.2295 27.3052 1.2295 27.2798H1.32621H1.32626H1.3295M1.24531 27.3338L1.2458 27.3345L1.2465 27.3356L1.24682 27.336M1.24779 27.3375L3.10272 30.1152L3.74574 31.0781L7.47418 36.6613V36.6311C7.47418 36.6472 7.47808 36.66 7.48117 36.6678C7.48436 36.6758 7.488 36.682 7.49055 36.6859C7.49068 36.6861 7.49081 36.6862 7.49093 36.6864L7.49101 36.6866L7.49133 36.687C7.4927 36.6891 7.49404 36.6909 7.49524 36.6924C7.49611 36.6935 7.49691 36.6945 7.49762 36.6953L7.50037 36.6985L7.49614 36.6942L8.11233 37.617L9.98465 40.4208C10.3772 41.0086 11.023 41.3263 11.6799 41.3263C12.0666 41.3263 12.4574 41.2161 12.8029 40.9863M1.24779 27.3375L1.24682 27.336M1.24779 27.3375C1.24848 27.3385 1.24907 27.3393 1.24954 27.3399C1.25462 27.3467 1.26019 27.352 1.25877 27.3506L1.32966 27.28M12.8029 40.9863L12.8029 40.9864L12.8115 40.9806M12.8029 40.9863L12.8025 40.9857L12.8026 40.9856C12.8043 40.9848 12.8075 40.9832 12.8115 40.9806M12.8029 40.9863L12.7559 40.8974M12.8115 40.9806L12.7651 40.9113L12.7559 40.8974M12.7559 40.8974L12.765 40.9109L12.8117 40.9804M12.7559 40.8974L12.8117 40.9804M12.8117 40.9804C12.812 40.9802 12.8124 40.98 12.8127 40.9798L12.8117 40.9804ZM1.24682 27.336L7.57418 36.6311L7.5741 36.6309L3.8289 31.0226L3.18588 30.0596L1.32966 27.28M1.24682 27.336L1.30234 27.2983M1.32966 27.28L1.30234 27.2983M1.32966 27.28L1.3295 27.2798M1.30234 27.2983L1.03719 25.8193M1.30234 27.2983L1.3295 27.2798M1.3295 27.2798L1.32847 27.2783C1.04058 26.8472 0.937121 26.3291 1.03719 25.8193M1.03719 25.8193L1.0267 25.8173L1.03719 25.8193ZM12.821 40.9743L12.8135 40.9793L12.821 40.9743ZM12.821 40.9743L16.3923 38.5715L17.9426 39.7876L17.9995 39.7152L17.9426 39.7876C18.3141 40.079 18.756 40.2202 19.1948 40.2202C19.8005 40.2202 20.4011 39.951 20.803 39.4362L20.7311 39.3801L20.803 39.4362L27.1023 31.3657L36.2834 25.1886C36.2901 25.185 36.3113 25.1736 36.3231 25.1657L36.3234 25.1655M12.821 40.9743L36.3234 25.1655M36.3234 25.1655L40.0508 22.6576C40.504 22.3527 40.8118 21.8886 40.9172 21.3518C41.0224 20.8162 40.9136 20.2712 40.611 19.818L40.611 19.818L36.3234 25.1655ZM37.3718 17.4625C36.5311 18.2077 35.9594 19.2034 35.7387 20.3272C35.5183 21.4494 35.6698 22.5869 36.1642 23.5958L39.2785 21.5005C39.4243 21.4024 39.5231 21.2536 39.557 21.0806C39.5908 20.9086 39.5562 20.7344 39.4595 20.5889L37.3718 17.4625ZM37.3718 17.4625L39.4594 20.5887L37.3718 17.4625ZM2.29729 26.0684L2.2973 26.0684C2.32702 25.917 2.40633 25.7844 2.5231 25.6879C2.53986 25.6741 2.55747 25.6609 2.57578 25.6486L2.57579 25.6486L3.6381 24.9339L5.6906 23.553C6.18608 24.5626 6.33806 25.7011 6.11748 26.8244C5.89676 27.9482 5.32507 28.9439 4.48429 29.689L2.66714 26.9679L2.39566 26.5613C2.29837 26.4156 2.2634 26.2408 2.29729 26.0684ZM11.1079 39.6078L11.0313 39.6589L11.1079 39.6077L9.0515 36.5282C11.1242 35.5048 13.6413 35.9968 15.167 37.7229L12.0422 39.8253C11.7413 40.0269 11.3341 39.9465 11.1338 39.6465L11.1079 39.6078ZM39.9314 12.6766L37.7274 15.5002L31.8698 6.72847C31.2444 5.7919 29.9762 5.54075 29.0427 6.16881L23.7986 9.697L23.8501 9.77361L23.7986 9.69701C23.6162 9.81978 23.5217 9.98733 23.5003 10.163C23.4793 10.3361 23.5299 10.5099 23.6235 10.6505C23.7172 10.7911 23.8581 10.9045 24.0256 10.951C24.1959 10.9982 24.3863 10.9742 24.5688 10.8515L24.5689 10.8515L25.5295 10.2052C26.7963 11.7269 28.65 12.5422 30.5353 12.5422C31.5716 12.5422 32.617 12.295 33.5802 11.7848L36.5962 16.301C35.4514 17.2589 34.6733 18.5703 34.381 20.0582C34.089 21.5443 34.3121 23.0526 35.007 24.3741L26.2353 30.2758L26.2352 30.2758L26.2327 30.2776L26.2326 30.2777L26.2326 30.2776L16.3237 36.9444C14.3608 34.5889 10.9911 33.9285 8.27581 35.3669L5.25973 30.8504C6.40448 29.8925 7.18264 28.5811 7.47493 27.0933C7.76706 25.6061 7.54349 24.0968 6.84732 22.7745L21.8192 12.7013L21.8193 12.7013C22.0017 12.5785 22.0961 12.411 22.1174 12.2352C22.1384 12.0622 22.0879 11.8883 21.9942 11.7477C21.9006 11.6072 21.7597 11.4938 21.5921 11.4473C21.4219 11.4 21.2314 11.4241 21.049 11.5468L21.1011 11.6243L21.0489 11.5468L17.1733 14.1544L26.5322 2.1643C26.7552 1.87873 27.1676 1.82795 27.4516 2.05075L39.8203 11.754L39.8802 11.6777L39.8203 11.754C39.9579 11.8619 40.0451 12.0168 40.0663 12.1911C40.0875 12.3657 40.0397 12.5378 39.9314 12.6766ZM5.53348 21.986L5.53342 21.986L5.53421 21.9855C5.53393 21.9857 5.53365 21.9859 5.53348 21.986ZM12.7988 40.9875C12.7984 40.9877 12.7991 40.9874 12.8002 40.9868L12.7999 40.987L12.7988 40.9875ZM19.7138 38.5788C19.4908 38.8644 19.0782 38.9151 18.7944 38.6924L17.6023 37.7572L23.3995 33.8568L19.7138 38.5788ZM29.8129 7.32705C29.8129 7.32704 29.813 7.32704 29.813 7.32703C30.1142 7.12456 30.5219 7.20492 30.7224 7.50516L31.8067 9.12873L32.8048 10.6234C30.732 11.6469 28.215 11.1549 26.6893 9.42879L29.8129 7.32705Z" fill="#32D7C5" stroke="#32D7C5" stroke-width="0.2"/>
<path d="M19.4211 31.3351L19.4212 31.3351C19.6321 31.3763 19.8134 31.3228 19.9495 31.2126C20.0833 31.1043 20.1686 30.9454 20.2014 30.7802C20.2343 30.615 20.2161 30.4356 20.1327 30.2844C20.0479 30.1307 19.899 30.0129 19.6858 29.9711L19.6858 29.9711C17.9777 29.6368 16.5037 28.654 15.5346 27.2028L15.465 27.2493L15.5346 27.2028C14.5692 25.7571 14.2222 24.0211 14.5577 22.3136L14.5577 22.3136C14.8932 20.6053 15.8712 19.1311 17.312 18.1618L17.312 18.1618C20.2854 16.1612 24.3264 16.962 26.3198 19.9471L26.3921 19.8988L26.3198 19.9471C27.2852 21.3929 27.6321 23.1289 27.2967 24.8364C26.9611 26.5446 25.9831 28.0188 24.5424 28.9881L24.5982 29.071L24.5423 28.9881C23.9752 29.3696 23.3585 29.6574 22.709 29.8435C22.4977 29.904 22.3565 30.0343 22.2824 30.1951C22.2095 30.3533 22.2045 30.5343 22.2506 30.697C22.2967 30.8596 22.3961 31.0109 22.5412 31.1068C22.6887 31.2043 22.8773 31.2402 23.0886 31.1797L23.0886 31.1797C23.8772 30.9537 24.6255 30.6047 25.3126 30.1425C27.0603 28.9665 28.2472 27.1773 28.6543 25.1052C29.0611 23.0339 28.6401 20.9269 27.4689 19.1731C25.0509 15.5523 20.1492 14.5804 16.5418 17.0074L16.5976 17.0904L16.5418 17.0074C14.794 18.1834 13.6071 19.9727 13.2001 22.0448C12.7932 24.1161 13.2142 26.2231 14.3854 27.9768C15.5606 29.7367 17.3493 30.9296 19.4211 31.3351Z" fill="#32D7C5" stroke="#32D7C5" stroke-width="0.2"/>
<path d="M29.3654 17.8971C29.4988 18.0975 29.718 18.2057 29.941 18.2057C30.0736 18.2057 30.2076 18.1675 30.3256 18.088C30.3256 18.088 30.3256 18.088 30.3256 18.088L33.112 16.2133L33.112 16.2133C33.4293 15.9997 33.5141 15.5684 33.302 15.2498L33.3019 15.2497C33.0894 14.9308 32.6594 14.8452 32.3418 15.0588L32.3418 15.0588L29.5554 16.9335L29.5554 16.9335C29.2381 17.1471 29.1533 17.5784 29.3654 17.8971ZM29.3654 17.8971L29.4487 17.8416M29.3654 17.8971C29.3654 17.8971 29.3654 17.8971 29.3654 17.8971L29.4487 17.8416M29.4487 17.8416C29.2669 17.5687 29.3397 17.1993 29.6112 17.0165L30.2698 18.005C30.1687 18.0731 30.0543 18.1057 29.941 18.1057C29.7501 18.1057 29.5628 18.0131 29.4487 17.8416Z" fill="#32D7C5" stroke="#32D7C5" stroke-width="0.2"/>
<path d="M8.74194 30.9358L8.74194 30.9358C8.42456 31.1493 8.33981 31.5806 8.55196 31.8993L8.55198 31.8993C8.6854 32.0995 8.90448 32.2078 9.12756 32.2078C9.26011 32.2078 9.39408 32.1696 9.51216 32.0902C9.51216 32.0902 9.51217 32.0902 9.51217 32.0902L12.2984 30.2155L12.2984 30.2155C12.6158 30.002 12.7005 29.5707 12.4884 29.252L12.4884 29.252C12.2758 28.9331 11.846 28.8473 11.5282 29.0611C11.5282 29.0611 11.5282 29.0611 11.5282 29.0611L8.74194 30.9358Z" fill="#32D7C5" stroke="#32D7C5" stroke-width="0.2"/>
<path d="M24.2772 23.7228L24.2772 23.7228C23.9451 22.9831 23.4326 22.576 22.8266 22.3992C22.246 22.2299 21.5878 22.2743 20.9331 22.4223L19.7051 20.5833C19.9549 20.5239 20.1378 20.543 20.1586 20.5454C20.3744 20.5764 20.5555 20.5158 20.6883 20.4004C20.8193 20.2866 20.898 20.1242 20.9228 19.9575C20.9476 19.7908 20.9196 19.6125 20.8274 19.4652C20.7339 19.3157 20.5779 19.2045 20.3617 19.1709L20.3615 19.1709C20.3134 19.1636 19.6635 19.0716 18.9075 19.389L18.6935 19.0686L18.6935 19.0686C18.5712 18.8856 18.4043 18.7906 18.2289 18.7693C18.0563 18.7483 17.883 18.7994 17.7431 18.8938C17.6032 18.9881 17.4906 19.1297 17.4446 19.2979C17.3979 19.4685 17.422 19.6595 17.5443 19.8425C17.5443 19.8425 17.5443 19.8425 17.5443 19.8425L17.7852 20.2034C17.1867 20.8927 17.0213 21.8762 17.3834 22.7267C17.6563 23.368 18.1025 23.7316 18.6349 23.9052C19.1435 24.0711 19.7249 24.062 20.3004 23.9699L21.9304 26.4108C21.6488 26.5481 21.3944 26.5941 20.9394 26.5996H20.9394C20.7231 26.6023 20.5565 26.6918 20.4467 26.8282C20.3389 26.9623 20.2901 27.1357 20.2933 27.304C20.2965 27.4723 20.3519 27.6438 20.4631 27.7743C20.5763 27.907 20.7435 27.9924 20.9562 27.9891C21.7358 27.9796 22.2103 27.8457 22.7057 27.5717L22.9459 27.9313C22.9459 27.9313 22.9459 27.9313 22.9459 27.9313C23.0723 28.1205 23.2403 28.2191 23.417 28.2404C23.5909 28.2614 23.7631 28.2064 23.9008 28.1085C24.1744 27.9138 24.3394 27.5231 24.0951 27.1573L23.8203 26.7459C24.6531 25.8324 24.6703 24.5985 24.2772 23.7228ZM18.6558 22.1805L18.6558 22.1805C18.5688 21.9762 18.5313 21.7042 18.6187 21.4513L19.4292 22.665C19.3456 22.6671 19.2663 22.6657 19.1922 22.6602C18.9978 22.6458 18.7794 22.4708 18.6558 22.1805ZM23.0157 24.294C23.1734 24.6451 23.199 25.1079 22.9966 25.5123L21.7535 23.6507C22.1593 23.5705 22.4428 23.6735 22.6381 23.8175C22.8529 23.9759 22.9692 24.1904 23.0157 24.294Z" fill="#32D7C5" stroke="#32D7C5" stroke-width="0.2"/>
</svg>
