<svg width="38" height="37" viewBox="0 0 38 37" fill="none" xmlns="http://www.w3.org/2000/svg">
<path d="M37.993 12.9496C37.9303 11.8945 36.6415 11.07 34.0638 10.441C34.1506 10.256 34.1994 10.0636 34.2 9.86381V5.54961H34.1892C33.9625 1.95568 18.8372 1.84961 17.1 1.84961C15.3628 1.84961 0.2375 1.95568 0.0107667 5.54961H0V5.62978V9.86566C0.00316667 11.0373 1.5561 11.9543 3.8665 12.637C3.83483 12.7393 3.81583 12.8435 3.8095 12.9496H3.8V13.0298V17.2583C1.311 17.8823 0.0677667 18.6951 0.00633333 19.7329H0V19.8131V24.049C0.0019 24.8648 0.757467 25.5567 1.99373 26.1333C1.94687 26.2585 1.91773 26.3862 1.9095 26.5169H1.9V26.5971V30.8329C1.90507 32.884 6.6481 34.1574 11.9181 34.7519C11.9567 34.7593 11.9922 34.7747 12.0333 34.7747C12.0454 34.7747 12.0555 34.7685 12.0675 34.7679C13.0834 34.8795 14.1157 34.9665 15.1373 35.0287C15.1588 35.0312 15.1778 35.0411 15.2 35.0411C15.212 35.0411 15.2215 35.0349 15.2329 35.0343C16.53 35.1108 17.8062 35.1496 19 35.1496C20.1938 35.1496 21.47 35.1108 22.7671 35.0337C22.7785 35.0343 22.7886 35.0405 22.8 35.0405C22.8222 35.0405 22.8412 35.03 22.8627 35.0281C23.8843 34.9658 24.9166 34.8795 25.9325 34.7673C25.9445 34.7673 25.9546 34.7734 25.9667 34.7734C26.0078 34.7734 26.0433 34.758 26.0819 34.7506C31.3519 34.1562 36.0943 32.8821 36.1 30.8305V26.5163H36.0899C36.0455 25.7602 35.3837 25.1294 34.0765 24.6021C34.1563 24.4239 34.2 24.2389 34.2 24.0471V20.0166C36.4737 19.3358 37.9968 18.425 38 17.2638V12.9496H37.993ZM32.8649 24.2476L32.649 24.4319C32.3165 24.7175 31.7623 25.0054 31.0333 25.2829V22.3427C31.7864 22.0874 32.4273 21.8043 32.9333 21.4941V24.0459C32.9333 24.1094 32.9093 24.1773 32.8649 24.2476ZM18.6998 27.1132C18.6073 27.1157 18.5142 27.1169 18.4211 27.1188C18.195 27.1231 17.9632 27.1243 17.734 27.1262V24.0459C17.9081 24.0441 18.0823 24.0416 18.2565 24.0385C18.29 24.0379 18.3236 24.0373 18.3572 24.0367C18.9949 24.0249 19.6327 24.0058 20.2673 23.9775V27.0565C20.1318 27.0633 19.9956 27.0694 19.8582 27.075C19.4769 27.0916 19.0918 27.104 18.6998 27.1132ZM15.934 27.1218C15.644 27.1169 15.3552 27.1101 15.0683 27.1015C15.0328 27.1003 14.9973 27.099 14.9619 27.0978C14.6167 27.0867 14.2741 27.0725 13.934 27.0565V23.9781C14.5686 24.0071 15.2063 24.0262 15.8441 24.0373C15.8777 24.0379 15.9112 24.0385 15.9442 24.0391C16.1183 24.0422 16.2925 24.0447 16.4667 24.0465V27.1286C16.3438 27.1274 16.2209 27.1274 16.0987 27.1255C16.043 27.1243 15.9891 27.1225 15.934 27.1218ZM4.49477 25.7158C4.47387 25.7097 4.45423 25.7041 4.43333 25.6986V22.7195C5.02487 22.8749 5.66073 23.0167 6.33333 23.1456V26.1555C5.75193 26.0353 5.2155 25.9089 4.7272 25.7794C4.64993 25.7578 4.57013 25.7374 4.49477 25.7158ZM17.8442 30.8225C18.0183 30.8255 18.1925 30.828 18.3667 30.8299V33.9126C17.4914 33.9046 16.6465 33.8799 15.8333 33.841V30.762C16.4679 30.791 17.1057 30.8101 17.7435 30.8212C17.777 30.8212 17.8106 30.8218 17.8442 30.8225ZM20.2565 30.8206C20.8943 30.8089 21.5321 30.7898 22.1667 30.7614V33.8404C21.3535 33.8793 20.5086 33.9039 19.6333 33.912V30.8292C19.8075 30.8274 19.9817 30.8249 20.1558 30.8218C20.1894 30.8218 20.223 30.8212 20.2565 30.8206ZM25.3333 30.5419V33.6042C24.7247 33.6665 24.0914 33.7214 23.4333 33.7664V30.6911C24.0755 30.6504 24.7101 30.6005 25.3333 30.5419ZM26.6 30.4087C27.253 30.3322 27.8869 30.2453 28.5 30.1484V33.1763C27.9034 33.2786 27.2694 33.373 26.6 33.4587V30.4087ZM29.7667 29.9283C30.4393 29.7994 31.0751 29.6576 31.6667 29.5022V32.4813C31.1024 32.6398 30.4671 32.7933 29.7667 32.9382V29.9283ZM8.23333 29.9283V32.9382C7.53287 32.7933 6.89763 32.6398 6.33333 32.4813V29.5022C6.92487 29.6576 7.56073 29.8 8.23333 29.9283ZM9.5 30.1491C10.1131 30.2459 10.747 30.3328 11.4 30.4093V33.4593C10.7306 33.3736 10.0966 33.2793 9.5 33.1769V30.1491ZM12.6667 30.5419C13.2899 30.6005 13.9245 30.6504 14.5667 30.6917V33.767C13.9086 33.722 13.2753 33.6671 12.6667 33.6049V30.5419ZM11.0954 26.8542C11.0308 26.848 10.9668 26.8413 10.9028 26.8351C10.8572 26.8308 10.8123 26.8252 10.7667 26.8209V23.7592C11.3899 23.8177 12.0245 23.8677 12.6667 23.909V26.9819C12.1347 26.9449 11.609 26.9029 11.0954 26.8542ZM9.5 23.6253V26.6754C8.83057 26.5897 8.1966 26.4953 7.6 26.3929V23.3651C8.21307 23.4619 8.84703 23.5495 9.5 23.6253ZM21.9551 26.9529C21.8158 26.9634 21.6752 26.9738 21.5333 26.9837V23.9084C22.1755 23.8671 22.8101 23.8177 23.4333 23.7585V26.8209C23.0419 26.861 22.6417 26.8986 22.2306 26.9313C22.1388 26.9393 22.047 26.9461 21.9551 26.9529ZM24.7 26.6754V23.6253C25.353 23.5489 25.9869 23.4619 26.6 23.3651V26.3929C26.0034 26.4953 25.3694 26.5903 24.7 26.6754ZM27.8667 23.145C28.5393 23.0161 29.1751 22.8742 29.7667 22.7188V25.698C29.2024 25.8564 28.5671 26.01 27.8667 26.1549V23.145ZM19.2058 20.328C18.7296 20.3163 18.2641 20.2984 17.8068 20.2768C17.7821 20.2756 17.7574 20.2744 17.7333 20.2738V17.1947C18.3679 17.2237 19.0057 17.2428 19.6435 17.2539C19.677 17.2546 19.7106 17.2552 19.7435 17.2558C19.9177 17.2589 20.0919 17.2613 20.266 17.2632V20.3422C19.9576 20.3391 19.6466 20.3379 19.3458 20.3311C19.2996 20.3299 19.2521 20.3293 19.2058 20.328ZM4.43333 11.5152V8.53613C5.02487 8.69153 5.66073 8.83336 6.33333 8.96224V11.9722C6.25543 11.9562 6.175 11.9401 6.099 11.9241C5.76207 11.8519 5.43337 11.7767 5.11923 11.6972C4.87983 11.6373 4.65247 11.5763 4.43333 11.5152ZM15.9442 9.85579C16.1183 9.85888 16.2925 9.86134 16.4667 9.86319V12.9422C15.6142 12.9342 14.7668 12.9126 13.9333 12.8719V9.79536C14.5679 9.82434 15.2057 9.84346 15.8435 9.85456C15.877 9.85456 15.9106 9.85518 15.9442 9.85579ZM18.3565 9.85394C18.9943 9.84223 19.6321 9.82311 20.2667 9.79474V12.8713C20.159 12.8762 20.0558 12.8836 19.9475 12.8886C19.9386 12.8892 19.9297 12.8892 19.9202 12.8898C19.4953 12.9083 19.0621 12.9219 18.6232 12.9317C18.5548 12.9336 18.4864 12.9342 18.418 12.936C18.1925 12.9404 17.962 12.941 17.7333 12.9434V9.86319C17.9075 9.86134 18.0817 9.85888 18.2558 9.85579C18.2894 9.85518 18.323 9.85456 18.3565 9.85394ZM32.7883 10.1635L32.7706 10.1598L32.54 10.3343C32.2056 10.5878 31.692 10.8443 31.0333 11.0922V8.15873C31.7864 7.90343 32.4273 7.62038 32.9333 7.31019V9.86196C32.9333 9.95569 32.8827 10.0568 32.7883 10.1635ZM24.7 12.4883V9.44201C25.353 9.36554 25.9869 9.27859 26.6 9.18178V12.2047C25.9996 12.3083 25.3675 12.4032 24.7 12.4883ZM27.8667 11.9673V8.96224C28.5393 8.83336 29.1751 8.69153 29.7667 8.53613V11.5085C29.1992 11.6694 28.5602 11.823 27.8667 11.9673ZM23.4333 9.57521V12.6339C22.8215 12.6968 22.1882 12.7517 21.5333 12.7973V9.72506C22.1755 9.68374 22.8101 9.63379 23.4333 9.57521ZM10.7667 12.6351V9.57521C11.3899 9.63379 12.0245 9.68374 12.6667 9.72506V12.7948C12.0219 12.7498 11.3861 12.6986 10.7667 12.6351ZM9.5 9.44201V12.489C9.3746 12.4729 9.24413 12.46 9.12 12.4433C9.03893 12.4322 8.96167 12.4205 8.88187 12.4094C8.5158 12.3582 8.15797 12.3033 7.8071 12.246C7.7368 12.2343 7.66903 12.2219 7.6 12.2102V9.18239C8.21307 9.27859 8.84703 9.36616 9.5 9.44201ZM16.3096 20.1887C16.2241 20.1825 16.138 20.1763 16.0531 20.1702C15.6478 20.1393 15.2519 20.1054 14.8656 20.0678C14.7826 20.0598 14.6997 20.0511 14.6173 20.0431C14.6002 20.0413 14.5838 20.0388 14.5667 20.0376V16.9752C15.1899 17.0338 15.8245 17.0837 16.4667 17.1251V20.1985C16.4154 20.1948 16.3609 20.1924 16.3096 20.1887ZM12.1252 19.728C11.8744 19.6892 11.6388 19.6472 11.4 19.6065V16.5824C12.0131 16.6792 12.647 16.7662 13.3 16.8426V19.8927C12.9124 19.8427 12.533 19.7909 12.1689 19.7354C12.1543 19.7323 12.1397 19.7299 12.1252 19.728ZM10.1333 16.3616V19.3666C9.4335 19.2205 8.7989 19.0651 8.23333 18.9035V15.9355C8.82487 16.0909 9.46073 16.2334 10.1333 16.3616ZM6.96667 15.5587V18.4885C5.97107 18.1142 5.32887 17.7319 5.11987 17.3915L5.07743 17.3224C5.07363 17.3033 5.0673 17.2829 5.06667 17.2638V14.7102C5.5727 15.0204 6.21363 15.3034 6.96667 15.5587ZM22.1565 17.2539C22.7943 17.2422 23.4321 17.2231 24.0667 17.1947V20.2707C23.2345 20.3108 22.3883 20.333 21.5333 20.3416V17.2632C21.7075 17.2613 21.8817 17.2589 22.0558 17.2558C22.0894 17.2552 22.123 17.2546 22.1565 17.2539ZM30.3411 19.6201C30.0631 19.667 29.7825 19.7132 29.4943 19.7558C29.329 19.7804 29.1599 19.8039 28.9902 19.8273C28.83 19.8495 28.6634 19.8686 28.5006 19.889V16.842C29.1536 16.7655 29.7876 16.6786 30.4006 16.5818V19.6096C30.3804 19.6133 30.3607 19.617 30.3411 19.6201ZM26.0528 20.1467C25.8166 20.1658 25.5727 20.1782 25.3333 20.1948V17.1251C25.9755 17.0837 26.6101 17.0344 27.2333 16.9752V20.0345C26.8654 20.0721 26.498 20.1097 26.1199 20.1406C26.0971 20.1424 26.0756 20.1449 26.0528 20.1467ZM33.2905 18.9905C32.9751 19.0762 32.6414 19.1564 32.3006 19.2347C32.1429 19.2704 31.9821 19.3062 31.8174 19.3407C31.7686 19.3512 31.7167 19.3605 31.6673 19.371V16.3622C32.3399 16.2334 32.9758 16.0915 33.5673 15.9361V18.9152C33.4761 18.9399 33.3843 18.9652 33.2905 18.9905ZM36.7264 12.9897C36.6681 13.4084 35.6934 13.9653 33.9536 14.4888C31.7129 15.1628 28.2068 15.7801 23.7633 15.9713C23.5359 15.9805 23.3092 15.9898 23.0774 15.9972C22.888 16.0033 22.698 16.0089 22.5049 16.0138C21.9805 16.0249 21.4485 16.0329 20.9 16.0329C20.3515 16.0329 19.8195 16.0249 19.2951 16.0132C19.1026 16.0089 18.9126 16.0027 18.7226 15.9966C18.4902 15.9898 18.2634 15.9799 18.0367 15.9707C13.5932 15.7795 10.0865 15.1622 7.84637 14.4882C6.12053 13.969 5.14773 13.4164 5.07553 12.9996C5.0787 12.9878 5.0787 12.978 5.0863 12.9632C5.12937 12.9737 5.1775 12.9823 5.2212 12.9928C5.46883 13.0501 5.7228 13.1056 5.9812 13.1587C7.23963 13.4226 8.63423 13.639 10.12 13.8043C10.1251 13.8043 10.1289 13.8068 10.1333 13.8068C10.1346 13.8068 10.1359 13.8062 10.1365 13.8062C11.1486 13.9184 12.1986 14.0066 13.2766 14.0689C13.2848 14.0689 13.2918 14.0732 13.3 14.0732C13.3044 14.0732 13.3076 14.0707 13.312 14.0707C14.0879 14.1151 14.8738 14.1478 15.6693 14.1651C16.1563 14.1768 16.6345 14.1829 17.1 14.1829C17.4325 14.1829 17.7732 14.1792 18.1171 14.1731C22.7189 14.104 26.9838 13.5712 29.9516 12.7455C30.0884 12.7079 30.222 12.669 30.3538 12.6302C30.4342 12.6061 30.5165 12.5827 30.5944 12.5586C30.8237 12.4871 31.0435 12.4137 31.2556 12.3373C31.2924 12.3237 31.3272 12.3101 31.3639 12.2966C31.5432 12.2306 31.7154 12.1621 31.8801 12.0924C31.9276 12.0721 31.9764 12.0524 32.0226 12.032C32.198 11.9549 32.3678 11.876 32.5248 11.794C32.5958 11.7576 32.6572 11.72 32.7237 11.683C32.7997 11.6404 32.8757 11.5973 32.946 11.5535C32.9859 11.5288 33.0334 11.5054 33.0714 11.4807C35.9068 12.0795 36.6542 12.7344 36.7264 12.9897ZM17.1 3.08294C27.543 3.08294 32.825 4.68381 32.9238 5.60264C32.8472 6.01951 31.875 6.57019 30.1536 7.08819C27.9129 7.76221 24.4068 8.37949 19.9633 8.57066C19.7359 8.57991 19.5092 8.58916 19.2774 8.59656C19.088 8.60273 18.898 8.60828 18.7049 8.61321C18.1805 8.62493 17.6485 8.63294 17.1 8.63294C16.5515 8.63294 16.0195 8.62493 15.4951 8.61321C15.3026 8.60889 15.1126 8.60273 14.9226 8.59656C14.6902 8.58978 14.4634 8.57991 14.2367 8.57066C9.79323 8.37949 6.28647 7.76221 4.04637 7.08819C2.32433 6.57019 1.3528 6.01951 1.27617 5.60264C1.37497 4.68381 6.65697 3.08294 17.1 3.08294ZM1.26667 9.86381V7.31019C1.7727 7.62038 2.41363 7.90343 3.16667 8.15873V11.1113C1.93483 10.6618 1.26793 10.211 1.26667 9.86381ZM4.33453 18.3979C4.34403 18.4077 4.3586 18.4164 4.3681 18.4262C5.23513 19.2785 7.03063 19.9482 9.26567 20.4477C9.31697 20.4594 9.37143 20.4705 9.42337 20.4822C9.5874 20.518 9.75397 20.5531 9.92243 20.587C11.9751 21.0125 14.4254 21.3202 17.0949 21.4726C17.0968 21.4726 17.0981 21.4732 17.0994 21.4732C17.1006 21.4732 17.1013 21.4726 17.1019 21.4726C17.9594 21.5213 18.8366 21.5552 19.7321 21.57C20.1286 21.578 20.5187 21.5829 20.9 21.5829C21.337 21.5829 21.7854 21.578 22.2414 21.5675C23.0698 21.5509 23.8862 21.5176 24.6911 21.4719C24.6943 21.4719 24.6968 21.4738 24.7 21.4738C24.7057 21.4738 24.7101 21.4707 24.7158 21.4707C27.3923 21.3172 29.9035 21.0064 32.027 20.5593C31.5672 20.7936 30.9377 21.036 30.1536 21.2721C27.7881 21.9838 24.0103 22.6319 19.209 22.7824C19.0665 22.7867 18.9259 22.7916 18.7815 22.7953C18.6263 22.799 18.4686 22.8015 18.3109 22.8046C17.9126 22.8107 17.5117 22.8163 17.1 22.8163C16.5515 22.8163 16.0195 22.8083 15.4951 22.7965C15.3026 22.7922 15.1126 22.7861 14.9226 22.7799C14.6902 22.7731 14.4634 22.7632 14.2367 22.754C9.79323 22.5628 6.28647 21.9455 4.04637 21.2715C2.3047 20.7474 1.33 20.1899 1.27363 19.7712C1.34393 19.5393 1.98423 18.959 4.33453 18.3979ZM1.26667 24.0471V21.4935C1.7727 21.8037 2.41363 22.0868 3.16667 22.3421V25.2829L2.80503 25.146L2.79743 25.1534C1.8031 24.752 1.26793 24.3579 1.26667 24.0471ZM3.16667 30.8305V28.2769C3.6727 28.587 4.31363 28.8701 5.06667 29.1254V32.078C3.83483 31.6284 3.16793 31.1777 3.16667 30.8305ZM32.9333 32.078V29.126C33.6864 28.8707 34.3273 28.5877 34.8333 28.2775V30.8292C34.8327 31.1764 34.1652 31.6278 32.9333 32.078ZM34.8251 26.5638C34.7561 26.9812 33.7833 27.535 32.0536 28.0555C29.8129 28.7295 26.3068 29.3468 21.8633 29.5379C21.6359 29.5472 21.4092 29.5564 21.1774 29.5638C20.988 29.57 20.798 29.5756 20.6049 29.5805C20.0805 29.5916 19.5485 29.5996 19 29.5996C18.4515 29.5996 17.9189 29.5916 17.3939 29.5799C17.2032 29.5756 17.0151 29.5694 16.827 29.5632C16.5933 29.5558 16.3653 29.5466 16.1367 29.5373C11.6932 29.3462 8.1871 28.7289 5.94637 28.0549C4.2712 27.551 3.30347 27.0158 3.18187 26.6026C3.3706 26.6667 3.5663 26.729 3.76707 26.7901C3.78733 26.7962 3.8076 26.8024 3.82787 26.808C3.99887 26.8591 4.17367 26.9085 4.3529 26.9566C4.42067 26.9751 4.48907 26.9936 4.5581 27.0115C4.65943 27.038 4.7633 27.0633 4.86717 27.0892C7.17377 27.6645 10.1181 28.0721 13.2968 28.2553C13.2981 28.2553 13.2987 28.2559 13.3 28.2559C13.3006 28.2559 13.3013 28.2553 13.3019 28.2553C14.2836 28.312 15.2861 28.3472 16.2995 28.3589C16.5693 28.3638 16.8372 28.3663 17.1 28.3663C17.449 28.3663 17.8062 28.362 18.1678 28.3558C19.0918 28.341 20.0038 28.3077 20.8956 28.2559C20.8975 28.2559 20.8987 28.2571 20.9006 28.2571C20.9038 28.2571 20.9057 28.2553 20.9089 28.2553C21.995 28.1918 23.0464 28.1011 24.0565 27.9883C24.0603 27.9883 24.0635 27.9901 24.0673 27.9901C24.0812 27.9901 24.0926 27.9833 24.1066 27.9821C25.2314 27.8557 26.2979 27.7003 27.2878 27.5196C27.4917 27.4832 27.6925 27.4456 27.8914 27.4067C27.9357 27.3981 27.98 27.3895 28.0244 27.3802C29.8946 27.0065 31.5134 26.5224 32.6243 25.9224C32.6851 25.8904 32.7421 25.8571 32.7997 25.8244C32.87 25.7837 32.9371 25.7424 33.0024 25.7004C33.0632 25.6622 33.1335 25.6252 33.1892 25.5863C34.4394 26.0205 34.7839 26.409 34.8251 26.5638ZM34.8333 18.5113V15.5593C35.5864 15.304 36.2273 15.021 36.7333 14.7108V17.2626C36.7327 17.6098 36.0652 18.0612 34.8333 18.5113Z" fill="#32D7C5"/>
</svg>
