<svg width="41" height="41" viewBox="0 0 41 41" fill="none" xmlns="http://www.w3.org/2000/svg">
<path d="M26.1938 15.5002L26.1937 15.5L26.1877 15.5048L13.8057 25.3448L13.8056 25.3448L13.803 25.347C13.6498 25.4747 13.5499 25.6632 13.5247 25.8582C13.4997 26.0521 13.5482 26.2614 13.7033 26.4216C13.8541 26.6179 14.0603 26.7193 14.309 26.7193C14.3856 26.7193 14.4722 26.7067 14.553 26.6819C14.6289 26.6585 14.7129 26.6202 14.7772 26.559L27.1533 16.7237L27.1533 16.7237L27.156 16.7215C27.3092 16.5939 27.4091 16.4053 27.4343 16.2103C27.4592 16.0169 27.4111 15.8082 27.2569 15.6482C26.9971 15.2955 26.5374 15.2548 26.1938 15.5002Z" fill="#32D7C5" stroke="#32D7C5" stroke-width="0.3"/>
<path d="M13.9969 17.3253L13.997 17.3259C14.2541 18.9976 15.6697 20.1591 17.2202 20.1591H17.2275C17.3847 20.1591 17.5617 20.1591 17.7412 20.1154C19.5009 19.8538 20.7431 18.1797 20.4434 16.3776C20.3141 15.5181 19.8416 14.7459 19.1552 14.2311C18.4667 13.7147 17.6062 13.4998 16.747 13.6287C15.887 13.7577 15.1143 14.2303 14.5992 14.9171C14.0828 15.6056 13.868 16.4661 13.9969 17.3253ZM18.9165 16.6255L18.9164 16.6255L18.9171 16.6298C19.0677 17.5713 18.4284 18.4388 17.4835 18.5899C16.542 18.7406 15.6745 18.1012 15.5233 17.1564C15.3737 16.2213 16.045 15.354 16.9474 15.1978C16.9999 15.196 17.0572 15.1845 17.0993 15.176C17.1016 15.1756 17.1039 15.1751 17.1061 15.1746C17.1624 15.1634 17.1973 15.1571 17.2202 15.1571C18.0518 15.1571 18.8038 15.7619 18.9165 16.6255Z" fill="#32D7C5" stroke="#32D7C5" stroke-width="0.3"/>
<path d="M27.0461 25.1746H27.0461L27.046 25.171C27.0032 23.3709 25.5458 21.9086 23.7801 21.9086C21.9752 21.9086 20.5141 23.3698 20.5141 25.1746C20.5141 26.9794 21.9752 28.4406 23.7801 28.4406C25.5849 28.4406 27.0461 26.9794 27.0461 25.1746ZM23.7801 26.8696C22.8379 26.8696 22.0441 26.0758 22.0441 25.1336C22.0441 24.1914 22.8379 23.3976 23.7801 23.3976C24.7213 23.3976 25.5145 24.1898 25.5161 25.1307C25.4766 26.1201 24.7183 26.8696 23.7801 26.8696Z" fill="#32D7C5" stroke="#32D7C5" stroke-width="0.3"/>
<path d="M33.7201 11.9012L33.7195 11.9029C33.4936 12.4982 33.2718 13.104 33.1463 13.6562C33.0199 14.2124 32.9986 14.685 33.1429 15.0291C33.2882 15.3547 33.644 15.6725 34.1321 15.9877C34.6157 16.3 35.202 16.5934 35.7777 16.8812C36.5733 17.2688 37.451 17.6964 38.1281 18.2528C38.8091 18.8124 39.3052 19.5172 39.3052 20.4597C39.3052 20.4908 39.2981 20.5194 39.2935 20.5363C39.2886 20.5545 39.2823 20.5732 39.2776 20.5874L39.277 20.5891C39.2729 20.6014 39.2698 20.6108 39.2674 20.6186C39.269 20.6223 39.271 20.6272 39.274 20.6346C39.2875 20.6684 39.3052 20.7195 39.3052 20.7877C39.3052 21.7109 38.8078 22.4053 38.1281 22.9638C37.4861 23.4913 36.6629 23.9129 35.9014 24.3028C35.8606 24.3237 35.82 24.3444 35.7796 24.3652L35.7764 24.3668L35.7764 24.3668C35.1797 24.6548 34.5941 24.9378 34.1164 25.2445C33.6352 25.5535 33.289 25.8711 33.1434 26.2169C32.9985 26.5611 33.0198 27.024 33.1463 27.5755C33.2719 28.1231 33.4937 28.7287 33.72 29.3461L33.7201 29.3462C34.0261 30.1826 34.3409 31.051 34.4304 31.8565C34.5206 32.6684 34.3842 33.4378 33.7673 34.0548C33.1562 34.6658 32.4049 34.8574 31.6153 34.8521C30.8579 34.847 30.05 34.6603 29.2792 34.4823C29.2526 34.4761 29.226 34.47 29.1995 34.4638L29.1968 34.4632C28.6229 34.3197 28.0579 34.1889 27.5364 34.1337C27.0144 34.0785 26.5511 34.101 26.1742 34.2514C25.8197 34.4011 25.4804 34.7157 25.1476 35.1292C24.8159 35.5413 24.5027 36.0359 24.1946 36.5288C23.7654 37.2237 23.2853 37.9871 22.6917 38.5755C22.095 39.1669 21.3724 39.5927 20.4592 39.5927C19.5454 39.5927 18.8326 39.1663 18.2458 38.5689C17.6624 37.975 17.1925 37.2007 16.7636 36.4859C16.455 35.9715 16.1521 35.467 15.8304 35.0499C15.5076 34.6313 15.1785 34.3178 14.825 34.1689C14.4723 34.0204 14.002 34.0063 13.4612 34.072C12.9234 34.1373 12.3375 34.2785 11.7626 34.4222L11.6914 34.4405C10.9183 34.6389 10.1074 34.847 9.3471 34.8674C8.55691 34.8886 7.80418 34.7078 7.19213 34.0958C6.57636 33.48 6.42897 32.7122 6.49786 31.9014C6.56357 31.1281 6.82784 30.2956 7.08343 29.4904C7.09359 29.4584 7.10374 29.4264 7.11386 29.3945C7.13079 29.3381 7.14777 29.2816 7.16473 29.2253C7.33359 28.6644 7.5006 28.1096 7.59669 27.6017C7.70325 27.0384 7.71587 26.5634 7.56995 26.2169C7.42364 25.8694 7.08579 25.5516 6.6253 25.2429C6.19672 24.9556 5.68295 24.6895 5.16249 24.4199C5.1274 24.4018 5.09228 24.3836 5.05716 24.3654C5.05682 24.3652 5.05649 24.365 5.05615 24.3649L5.1252 24.2317C3.5672 23.4527 1.8042 22.5097 1.8042 20.7877C1.8042 20.7672 1.81445 20.7364 1.8247 20.7057C1.83495 20.6749 1.8452 20.6442 1.8452 20.6237L33.7201 11.9012ZM33.7201 11.9012C34.0261 11.0648 34.3409 10.1964 34.4304 9.39088C34.5206 8.579 34.3842 7.80954 33.7673 7.19262C33.1566 6.58197 32.4159 6.39001 31.6307 6.39532C30.8971 6.40027 30.1105 6.57786 29.3408 6.75165C29.2942 6.76219 29.2475 6.77271 29.201 6.78318C29.135 6.79734 29.0689 6.81159 29.003 6.82582C28.4925 6.936 27.9881 7.04489 27.5198 7.09841C26.9888 7.15909 26.5285 7.14512 26.1754 6.99644C25.8205 6.847 25.4808 6.53213 25.1476 6.11814C24.8158 5.70595 24.5026 5.21124 24.1944 4.71819L24.1944 4.71818L24.1931 4.7162C24.1674 4.67645 24.1416 4.63646 24.1156 4.59628C23.6896 3.93666 23.2307 3.22632 22.6768 2.67237C22.0854 2.08097 21.3729 1.65469 20.4592 1.65469C19.5454 1.65469 18.8326 2.08105 18.2458 2.67845C17.6624 3.27238 17.1925 4.04664 16.7636 4.76151C16.455 5.27587 16.1521 5.78034 15.8304 6.19747C15.5076 6.61608 15.1785 6.92959 14.825 7.07844C14.4723 7.22696 14.002 7.24112 13.4612 7.17541C12.9234 7.11007 12.3375 6.96889 11.7626 6.82517C10.9463 6.6211 10.099 6.41112 9.31534 6.39534C8.52648 6.37946 7.78393 6.55983 7.19213 7.15162C6.57636 7.76739 6.42897 8.53518 6.49786 9.34601C6.56357 10.1193 6.82783 10.9518 7.08343 11.757C7.09371 11.7894 7.10398 11.8217 7.11422 11.854L7.1142 11.854L7.1149 11.8561C7.32003 12.4715 7.51151 13.0773 7.61187 13.6293C7.71259 14.1832 7.71714 14.6614 7.56942 15.0317C7.42282 15.3788 7.08523 15.6962 6.6253 16.0045C6.19671 16.2918 5.68294 16.5579 5.16247 16.8274C5.12705 16.8458 5.0916 16.8641 5.05615 16.8825L5.05534 16.8829C5.03053 16.896 5.00565 16.9091 4.9807 16.9222C4.22674 17.3188 3.41302 17.7468 2.78298 18.2854C2.12821 18.8451 1.6542 19.5392 1.6542 20.4597L1.6542 20.4617C1.65419 20.4821 1.65417 20.5232 1.66137 20.5663C1.66504 20.5884 1.67167 20.6183 1.68529 20.6495L33.7201 11.9012ZM35.0716 22.9897L35.0717 22.9898C35.7912 22.6403 36.4767 22.297 36.9774 21.9415C37.2274 21.764 37.4236 21.5887 37.554 21.4146C37.6836 21.2417 37.7424 21.0781 37.7344 20.9182L37.734 20.9107H37.7342C37.7342 20.8796 37.7413 20.8509 37.7459 20.8341C37.7508 20.8159 37.7571 20.7972 37.7618 20.783L37.7624 20.7813C37.7634 20.7782 37.7644 20.7753 37.7653 20.7725C37.7517 20.7413 37.745 20.7114 37.7414 20.6893C37.7342 20.6462 37.7342 20.6051 37.7342 20.5847V20.5827C37.7342 20.1635 37.4553 19.7822 36.9582 19.4056C36.4644 19.0315 35.7909 18.689 35.0717 18.3396L35.0685 18.3381L35.0685 18.338C35.0122 18.309 34.9557 18.28 34.899 18.2509C34.2781 17.9318 33.638 17.6029 33.0887 17.2208C32.4891 16.8037 31.981 16.3123 31.7191 15.6802C31.4366 15.0274 31.4404 14.3176 31.5766 13.6001C31.7126 12.8836 31.9837 12.1442 32.2494 11.4289C32.2495 11.4288 32.2495 11.4286 32.2496 11.4285L32.2726 11.3651C32.5119 10.7074 32.7409 10.0779 32.8424 9.54118C32.9489 8.97839 32.9026 8.58075 32.6569 8.35135L32.6531 8.34782L32.6531 8.34775C32.3704 8.06504 31.9426 7.97203 31.3887 8.00197C30.8361 8.03184 30.1939 8.18177 29.5145 8.34647L29.5103 8.34748L29.5103 8.34742C29.4432 8.36167 29.3759 8.37605 29.3084 8.39046C28.7008 8.52029 28.0839 8.65213 27.483 8.70376C26.8134 8.76131 26.1515 8.72075 25.5268 8.46229L25.5233 8.46081L25.5233 8.46076C24.9414 8.20216 24.4629 7.774 24.0397 7.27242C23.6183 6.77296 23.2449 6.19214 22.8779 5.62134L22.875 5.6168L22.8745 5.61595L22.8466 5.57186C22.4648 4.96902 22.1014 4.395 21.707 3.96652C21.3036 3.52832 20.8898 3.26669 20.4182 3.26669C19.9477 3.26669 19.5445 3.52714 19.1518 3.96964C18.7789 4.38972 18.4353 4.95084 18.0669 5.55244C18.0463 5.58611 18.0256 5.61991 18.0049 5.65382C17.3133 6.83347 16.5529 8.07003 15.3523 8.58456L15.3506 8.5853L15.3506 8.58529C14.7242 8.84448 14.0505 8.87404 13.3706 8.80083C12.7432 8.73325 12.0991 8.57653 11.4733 8.42428C11.4227 8.41196 11.3722 8.39967 11.3219 8.38747L11.3177 8.38646L11.3177 8.3864C10.6382 8.20106 9.9961 8.03111 9.4437 7.98632C8.8898 7.94141 8.46426 8.02576 8.18327 8.30675L8.17961 8.31041L8.17955 8.31035C7.93004 8.54322 7.86805 8.94572 7.94894 9.51197C8.02877 10.0708 8.23937 10.7343 8.46592 11.4345C8.69103 12.1303 8.92035 12.8587 9.03007 13.5693C9.13991 14.2806 9.13219 14.9871 8.87247 15.6364L8.87181 15.638L8.8718 15.638C8.61096 16.2684 8.12535 16.76 7.5497 17.1734C6.97541 17.5858 6.29943 17.9288 5.64568 18.2557C5.59975 18.2807 5.554 18.3056 5.50846 18.3304C4.87922 18.6731 4.29131 18.9932 3.849 19.3378C3.37251 19.7089 3.1022 20.0802 3.1022 20.5007C3.1022 20.5318 3.09511 20.5604 3.09051 20.5773C3.08555 20.5955 3.07929 20.6143 3.07454 20.6285L3.074 20.6301C3.07298 20.6332 3.07201 20.6361 3.07111 20.6388C3.08473 20.6701 3.09136 20.7 3.09503 20.722C3.10223 20.7652 3.10221 20.8063 3.1022 20.8267L3.1022 20.8287C3.1022 21.2715 3.37492 21.6531 3.849 22.0224C4.32235 22.3911 4.96408 22.7226 5.64407 23.0729C5.64434 23.0731 5.64462 23.0732 5.64489 23.0733L5.5762 23.2067C6.8882 23.8627 8.2412 24.5597 8.7332 25.7487L35.0716 22.9897ZM35.0716 22.9897L35.0685 22.9913C35.0122 23.0203 34.9557 23.0494 34.899 23.0785C34.278 23.3976 33.638 23.7264 33.0887 24.1086C32.4891 24.5257 31.981 25.0171 31.7191 25.6492C31.436 26.3032 31.451 27.014 31.5922 27.7303C31.7155 28.3561 31.9386 29.0012 32.1561 29.63C32.1871 29.7195 32.2179 29.8086 32.2483 29.8973L32.2483 29.8973L32.2492 29.9L32.2726 29.9643C32.5119 30.622 32.7409 31.2515 32.8424 31.7882C32.9489 32.351 32.9026 32.7486 32.6569 32.978L32.6568 32.978L32.6531 32.9816C32.3704 33.2643 31.9426 33.3573 31.3887 33.3274C30.8361 33.2975 30.1939 33.1476 29.5145 32.9829C28.1698 32.6569 26.7681 32.3535 25.5268 32.8671L25.5251 32.8678C24.3262 33.3816 23.5659 34.5747 22.8737 35.7146C22.8735 35.715 22.8732 35.7154 22.873 35.7158L22.8466 35.7575C22.4649 36.3603 22.1014 36.9344 21.707 37.3629C21.3036 37.8011 20.8898 38.0627 20.4182 38.0627C19.969 38.0627 19.5658 37.8032 19.1665 37.359C18.7677 36.9154 18.396 36.3137 18.0049 35.6756C17.3133 34.4959 16.5529 33.2593 15.3523 32.7448L15.3506 32.7441C14.1074 32.2297 12.6633 32.576 11.3198 32.9424C11.2891 32.9499 11.2584 32.9573 11.2279 32.9647C10.5817 33.1216 9.97252 33.2694 9.4437 33.3123C8.88804 33.3574 8.462 33.2825 8.18158 33.0209C7.9285 32.7663 7.86853 32.3495 7.94894 31.7867C8.02869 31.2284 8.23914 30.5752 8.4655 29.8961L8.46552 29.8961L8.4663 29.8937C8.47974 29.8509 8.49324 29.808 8.50676 29.7651C8.71893 29.0913 8.93729 28.3979 9.04527 27.7304C9.16021 27.0199 9.15347 26.3209 8.87097 25.6893L35.0716 22.9897Z" fill="#32D7C5" stroke="#32D7C5" stroke-width="0.3"/>
</svg>
