<svg width="57" height="58" viewBox="0 0 57 58" fill="none" xmlns="http://www.w3.org/2000/svg">
<path d="M47.9746 10.7227H9.02542C8.52141 10.7232 8.03823 10.9273 7.68193 11.29C7.32563 11.6527 7.12533 12.1445 7.125 12.6573V38.0907C7.12533 38.6035 7.32563 39.0953 7.68193 39.458C8.03823 39.8207 8.52141 40.0248 9.02542 40.0253H24.9375V45.4628L20.1434 45.4608C19.9072 45.4608 19.6807 45.5563 19.5137 45.7263C19.3467 45.8962 19.2528 46.1267 19.2528 46.3671C19.2528 46.6075 19.3467 46.838 19.5137 47.0079C19.6807 47.1779 19.9072 47.2733 20.1434 47.2733L25.8281 47.2753H31.1719L37.2141 47.2733C37.4503 47.2733 37.6768 47.1779 37.8438 47.0079C38.0108 46.838 38.1047 46.6075 38.1047 46.3671C38.1047 46.1267 38.0108 45.8962 37.8438 45.7263C37.6768 45.5563 37.4503 45.4608 37.2141 45.4608L32.0625 45.4628V40.0253H47.9746C48.4786 40.0248 48.9618 39.8207 49.3181 39.458C49.6744 39.0953 49.8747 38.6035 49.875 38.0907V12.6573C49.8747 12.1445 49.6744 11.6527 49.3181 11.29C48.9618 10.9273 48.4786 10.7232 47.9746 10.7227ZM9.02542 12.5352H47.9746C47.9903 12.5352 48.0058 12.5384 48.0203 12.5446C48.0348 12.5507 48.048 12.5598 48.0591 12.5711C48.0701 12.5824 48.0789 12.5959 48.0848 12.6107C48.0908 12.6255 48.0938 12.6413 48.0938 12.6573V33.3789H8.91142L9.02542 12.5352ZM30.2812 45.4628H26.7188V40.0253H30.2812V45.4628ZM48.066 38.2128L8.90625 38.0907V35.1907H48.066V38.2128Z" fill="#32D7C5"/>
<path d="M25.4082 29.3196C25.2912 29.3197 25.1753 29.2964 25.0672 29.2509C24.9591 29.2054 24.8609 29.1387 24.7781 29.0545C24.6954 28.9703 24.6298 28.8703 24.5851 28.7603C24.5404 28.6503 24.5174 28.5324 24.5176 28.4134V18.2499C24.5175 18.0894 24.5593 17.9317 24.6387 17.7929C24.7182 17.6542 24.8325 17.5395 24.9698 17.4604C25.1077 17.3831 25.2629 17.3436 25.4203 17.3458C25.5776 17.348 25.7317 17.3918 25.8674 17.4729L34.1604 22.5546C34.292 22.6353 34.4009 22.7493 34.4765 22.8854C34.5521 23.0216 34.5918 23.1753 34.5918 23.3316C34.5918 23.488 34.5521 23.6417 34.4765 23.7779C34.4009 23.914 34.292 24.028 34.1604 24.1087L25.8674 29.1904C25.7285 29.2745 25.5699 29.3192 25.4082 29.3196ZM26.2988 19.8535V26.8097L31.9748 23.3316L26.2988 19.8535Z" fill="#32D7C5"/>
</svg>
