<svg width="26" height="26" viewBox="0 0 26 26" fill="none" xmlns="http://www.w3.org/2000/svg">
<path d="M13.0942 1.11719C6.58106 1.11719 1.30469 6.39432 1.30469 12.9067C1.30469 19.4191 6.58182 24.6962 13.0942 24.6962C19.6073 24.6962 24.8837 19.4191 24.8837 12.9067C24.8837 6.39432 19.6066 1.11719 13.0942 1.11719ZM18.8847 9.19414L16.9497 18.3124C16.8067 18.9589 16.4219 19.1156 15.8849 18.8113L12.9375 16.639L11.5159 18.0081C11.3592 18.1648 11.2261 18.2979 10.9219 18.2979L11.131 15.2981L16.593 10.3632C16.8311 10.154 16.5405 10.0354 16.2264 10.2445L9.47596 14.4941L6.56661 13.5859C5.93454 13.3866 5.92009 12.9538 6.69972 12.6496L18.0663 8.26619C18.5942 8.07604 19.0551 8.39473 18.884 9.19338L18.8847 9.19414Z" fill="#4E4D4C"/>
</svg>
