<svg width="30" height="20" viewBox="0 0 30 20" fill="none" xmlns="http://www.w3.org/2000/svg">
<circle cx="15" cy="10" r="9" fill="#32D7C5"/>
<path d="M13.5195 4.8H16.4955L15.9995 12.112H14.0155L13.5195 4.8ZM15.0075 16.128C14.5702 16.128 14.2022 15.9893 13.9035 15.712C13.6155 15.424 13.4715 15.0773 13.4715 14.672C13.4715 14.2667 13.6155 13.9307 13.9035 13.664C14.1915 13.3867 14.5595 13.248 15.0075 13.248C15.4555 13.248 15.8235 13.3867 16.1115 13.664C16.3995 13.9307 16.5435 14.2667 16.5435 14.672C16.5435 15.0773 16.3942 15.424 16.0955 15.712C15.8075 15.9893 15.4448 16.128 15.0075 16.128Z" fill="white"/>
</svg>
