<svg width="24" height="24" viewBox="0 0 24 24" fill="none" xmlns="http://www.w3.org/2000/svg">
<g clip-path="url(#clip0_154_1386)">
<path fill-rule="evenodd" clip-rule="evenodd" d="M8.91999 6.50591C8.69974 5.97845 8.53273 5.95839 8.19908 5.94491C8.08549 5.93834 7.95895 5.93177 7.81857 5.93177C7.38446 5.93177 6.93065 6.05867 6.65681 6.33908C6.32315 6.67966 5.49522 7.47422 5.49522 9.10345C5.49522 10.7329 6.68343 12.3087 6.84369 12.5293C7.0107 12.7494 9.16029 16.1416 12.4981 17.5242C15.1082 18.6059 15.8827 18.5056 16.4768 18.3789C17.3446 18.192 18.4327 17.5506 18.7066 16.7763C18.9802 16.0016 18.9802 15.3405 18.9 15.2003C18.82 15.0601 18.5996 14.9802 18.2659 14.813C17.9322 14.646 16.3099 13.8447 16.0029 13.7379C15.7024 13.6245 15.4154 13.6646 15.1886 13.9851C14.8681 14.4325 14.5545 14.8867 14.3007 15.1604C14.1005 15.3741 13.7733 15.4008 13.4996 15.2873C13.1324 15.1339 12.1044 14.7729 10.836 13.6445C9.85458 12.7699 9.18709 11.6817 8.99364 11.3544C8.80001 11.0206 8.97359 10.8267 9.1271 10.6466C9.29411 10.4395 9.45419 10.2927 9.62102 10.0989C9.78802 9.90529 9.88138 9.8052 9.98822 9.57803C10.1018 9.35778 10.0216 9.13061 9.94154 8.9636C9.86132 8.79624 9.19383 7.16683 8.91999 6.50591ZM12.091 0.736328C5.82924 0.736328 0.73584 5.83114 0.73584 12.0946C0.73584 14.5786 1.53697 16.8824 2.89875 18.7521L1.48337 22.9723L5.84929 21.577C7.645 22.7656 9.78785 23.4533 12.0977 23.4533C18.3594 23.4533 23.4528 18.3581 23.4528 12.095C23.4528 5.8315 18.3594 0.736683 12.0977 0.736683H12.0911V0.736328H12.091Z" fill="#4E4D4C"/>
</g>
<defs>
<clipPath id="clip0_154_1386">
<rect width="22.717" height="22.717" fill="white" transform="translate(0.73584 0.736328)"/>
</clipPath>
</defs>
</svg>
