<svg width="85" height="84" viewBox="0 0 85 84" fill="none" xmlns="http://www.w3.org/2000/svg">
<path fill-rule="evenodd" clip-rule="evenodd" d="M42.6936 82.6133C65.1117 82.6133 83.2849 64.5163 83.2849 42.1923C83.2849 19.8682 65.1113 1.77087 42.6936 1.77087C20.2759 1.77087 2.10243 19.8679 2.10243 42.1919C2.10243 64.516 20.2759 82.6133 42.6936 82.6133Z" fill="white"/>
<path fill-rule="evenodd" clip-rule="evenodd" d="M2.01706 42.1928C2.01706 64.5284 20.2646 82.6988 42.6936 82.6988C65.1233 82.6988 83.3701 64.5284 83.3701 42.1928C83.3701 19.8575 65.1233 1.68677 42.6936 1.68677C20.2646 1.68677 2.01706 19.8572 2.01706 42.1928ZM2.18771 42.1928C2.18771 19.9515 20.3586 1.8567 42.6936 1.8567C65.0286 1.8567 83.1998 19.9515 83.1998 42.1928C83.1998 64.4341 65.0289 82.5292 42.6936 82.5292C20.3586 82.5289 2.18771 64.4341 2.18771 42.1928Z" fill="#0079C1"/>
<path fill-rule="evenodd" clip-rule="evenodd" d="M42.6936 80.5367C63.9769 80.5367 81.2312 63.3546 81.2312 42.1606C81.2312 20.9665 63.9769 3.78479 42.6936 3.78479C21.4103 3.78479 4.15596 20.9668 4.15596 42.1609C4.15596 63.3549 21.4103 80.5367 42.6936 80.5367Z" fill="#0079C1"/>
<path fill-rule="evenodd" clip-rule="evenodd" d="M11.8189 53.0968L11.114 50.5433C12.0826 50.9463 14.1417 51.1011 16.2363 50.8665C17.5391 50.7207 18.8784 50.302 20.4556 49.4558C21.8069 48.7317 22.599 47.239 22.6394 46.3147C22.7606 43.5366 21.0626 42.6901 18.8787 42.5694H15.1168L14.9956 38.9449L17.4227 38.7537C19.146 38.5616 22.2749 37.8574 21.6682 35.5624C21.3308 34.2853 20.0047 32.7263 17.9075 33.0256C16.2088 33.267 14.6071 34.528 13.1104 35.693L11.1137 33.1463C12.3363 32.1583 15.3811 30.0431 18.2501 29.7033C23.852 29.0384 26.2786 31.4547 26.7634 34.3545C27.1383 36.5932 25.4292 39.1863 22.0321 40.1534L22.4642 40.0327C25.1523 40.2088 27.7268 41.8608 28.0529 44.7538C28.485 48.5885 24.2441 53.1499 18.6703 53.773C16.0644 54.0643 13.7635 54.1508 12.3567 53.6954C12.2313 53.6552 12.1747 53.6954 12.0157 53.5142C11.857 53.3327 11.8189 53.0968 11.8189 53.0968Z" fill="white"/>
<path fill-rule="evenodd" clip-rule="evenodd" d="M43.4053 29.4473L44.2023 31.6017C43.6292 31.6145 41.298 32.5093 40.7851 32.7931C36.8024 34.9961 34.934 38.1054 34.5682 40.6727L34.669 40.665C35.6551 39.5025 37.1473 38.7391 39.1601 38.5766C42.8174 38.2814 46.1149 40.6209 46.4837 45.1598C46.8363 49.4969 43.8047 53.3284 39.1074 53.7072C33.2696 54.1784 30.0645 50.0714 29.6408 44.8608C29.3069 40.759 30.5383 37.2084 32.7392 34.7966C34.7253 32.6399 39.091 29.9799 42.3801 29.1065C43.2346 28.8796 43.3487 29.1634 43.4053 29.4473ZM39.9348 42.5432C38.0755 41.5082 34.7527 43.4994 34.7534 43.3816C34.7527 43.7907 34.233 47.0654 35.4369 49.5864C35.6625 50.0608 36.3583 50.5834 37.0875 50.8235C37.8237 51.0652 38.5949 51.0224 38.9096 50.9365C39.2778 50.837 41.2347 50.2709 41.5828 47.8784C42.1348 44.0778 40.9202 43.092 39.9348 42.5432Z" fill="white"/>
<path fill-rule="evenodd" clip-rule="evenodd" d="M69.5772 29.1316L70.3745 31.2869C69.8012 31.2992 67.47 32.1939 66.9574 32.4777C62.974 34.6817 61.1053 37.79 60.7404 40.358L60.8409 40.3496C61.8273 39.1871 63.3186 38.4237 65.3311 38.2612C68.9883 37.9667 72.2859 40.3061 72.6556 44.8444C73.0086 49.1815 69.976 53.013 65.2797 53.3918C59.4415 53.863 56.2367 49.7569 55.813 44.5454C55.4792 40.4436 56.7099 36.893 58.9115 34.4818C60.8975 32.3249 65.2635 29.6642 68.5527 28.7911C69.4059 28.5645 69.52 28.8477 69.5772 29.1316ZM66.1068 42.2282C64.2474 41.1922 60.9247 43.1844 60.9253 43.0662C60.9247 43.4753 60.405 46.7497 61.6082 49.2716C61.8344 49.745 62.5303 50.268 63.2588 50.5078C63.9956 50.7498 64.7671 50.7067 65.0816 50.6208C65.449 50.5213 67.4066 49.9562 67.7544 47.5623C68.3071 43.7621 67.0912 42.7763 66.1068 42.2282Z" fill="white"/>
<path fill-rule="evenodd" clip-rule="evenodd" d="M52.4282 42.1889C51.839 42.9713 51.5207 43.1989 51.0365 43.8519C50.2386 42.916 49.959 42.6923 49.2386 41.7882C48.7244 41.1462 48.0977 40.3168 48.0977 39.451C48.0977 38.6587 48.715 38.0813 49.5101 38.0813C50.2677 38.0813 50.8575 38.715 51.0158 39.423C51.2123 38.687 51.7459 38.0813 52.5688 38.0813C53.3264 38.0813 53.9346 38.696 53.9346 39.4601C53.9346 40.2798 53.3826 40.9408 52.9056 41.5655L52.4282 42.1889Z" fill="white"/>
</svg>
