<svg width="123" height="38" viewBox="0 0 123 38" fill="none" xmlns="http://www.w3.org/2000/svg">
<g clip-path="url(#clip0_154_93)">
<path d="M30.2769 9.95631C29.9478 10.2882 29.9478 10.786 30.2769 11.0349C30.606 11.3668 31.0997 11.3668 31.3465 11.0349C31.6756 10.703 31.6756 10.2052 31.3465 9.95631C31.0174 9.62443 30.5237 9.62443 30.2769 9.95631Z" fill="#FEFEFE"/>
<path d="M37.8461 9.45886H34.5552L33.7324 10.4545C33.5679 10.6204 33.6502 10.7034 33.8147 10.7864L34.8843 11.2842L37.9284 9.87371C38.1752 9.79074 38.093 9.45886 37.8461 9.45886ZM25.5873 25.7209H21.5558C20.4863 26.3846 20.1572 26.5506 18.7585 27.1314C18.6762 27.1314 18.594 27.2973 18.6762 27.3803L22.2963 37.5855H24.3532L21.0622 28.21C23.2013 28.21 28.3846 27.6292 31.1819 23.0658C30.2769 24.3934 28.2201 25.7209 25.5873 25.7209ZM31.3465 11.0353C31.0174 11.3672 30.5237 11.3672 30.2769 11.0353C29.9478 10.7034 29.9478 10.2056 30.2769 9.95668C30.606 9.6248 31.0997 9.6248 31.3465 9.95668C30.6883 9.29292 29.6187 9.29292 29.0428 9.95668C28.4669 10.6204 28.3846 11.6161 29.0428 12.2798C29.701 12.9436 30.7706 12.9436 31.3465 12.2798C31.9224 11.6161 32.0047 10.6204 31.3465 9.95668C31.5933 10.2886 31.5933 10.7034 31.3465 11.0353ZM23.3659 29.6204L26.1632 37.5855H28.2201L25.2582 29.2056C24.7645 29.3715 24.1063 29.4545 23.3659 29.6204ZM26.1632 19.6641C26.41 19.3322 26.5746 19.0003 26.8214 18.5855C26.7391 18.5025 26.6568 18.5855 26.5746 18.6685C22.3786 23.1488 18.3471 23.7296 15.2207 23.7296H10.4488C10.2843 23.7296 10.202 23.5637 10.2843 23.3977C13.9866 18.2536 18.018 14.1881 21.0622 11.6161L13.0816 18.3366C12.4234 18.8344 11.6829 19.1663 10.6956 19.1663H0.658181C0.411358 19.1663 0.493633 19.4152 0.493633 19.5811C1.15183 21.7383 3.12641 23.7296 6.41738 23.7296L4.03143 26.1357C3.94915 26.2187 3.94915 26.4676 4.19597 26.4676H13.1639C19.5813 26.4676 23.6127 23.6466 26.1632 19.6641Z" fill="#00985F"/>
<path d="M115.678 37.5852H123V14.7686H115.678V23.1485H108.767V14.7686H101.444V37.5852H108.767V28.9563H115.678V37.5852ZM29.0428 12.2795C28.3846 11.6157 28.3846 10.6201 29.0428 9.95633C29.701 9.29258 30.7706 9.29258 31.3465 9.95633C31.9224 10.6201 32.0047 11.6157 31.3465 12.2795C30.6883 12.9432 29.6187 12.9432 29.0428 12.2795ZM31.0997 23.0655C33.897 18.5022 34.8843 11.2838 34.8843 11.2838L33.8147 10.786C33.6502 10.7031 33.6502 10.6201 33.7324 10.4541L34.5552 9.45851C34.0615 8.46288 32.2515 6.80349 29.6187 6.80349C28.0555 6.80349 26.6569 7.21834 25.4227 8.04803C25.4227 8.04803 23.6127 9.29258 21.0622 11.5328C18.0181 14.1878 13.9866 18.1703 10.2843 23.3144C10.202 23.4803 10.2843 23.6463 10.4488 23.6463H15.2207C18.3472 23.6463 22.3786 23.0655 26.5746 18.5852C26.6569 18.5022 26.7391 18.5022 26.8214 18.5022C26.9037 18.5852 26.9037 18.6681 26.9037 18.7511C26.2455 20.4105 24.6 23.6463 21.5559 25.6376H25.5873C28.3023 25.6376 30.2769 24.393 31.0997 23.0655ZM26.986 28.5415L30.1124 37.5022H38.998C37.188 31.9432 35.2134 26.7991 33.3211 22.0699C31.8401 25.3057 30.4415 26.8821 26.986 28.5415ZM0 37.5852H8.96789L12.012 28.0437H3.29097C2.2214 30.8646 1.15184 34.0175 0 37.5852ZM12.0943 17.0917L16.6194 13.3581C17.6067 10.7031 18.594 8.04803 19.5813 5.80786C20.0749 6.96943 20.5686 8.21397 21.0622 9.45851C23.5304 7.38428 25.0936 6.13974 27.1505 5.55895C25.9164 2.82096 25.0114 0.829694 24.6 0H14.5625C13.7398 1.82533 10.5311 8.54585 6.74649 17.5895H10.3666C11.107 17.5895 11.6829 17.5065 12.0943 17.0917ZM67.5472 35.0131L68.0408 37.5022H73.9645V14.7686H66.6421V30.6157C65.9839 31.3624 64.7498 32.1921 63.598 32.1921C61.5411 32.1921 60.4716 31.0306 60.4716 28.8734V14.7686H53.1492V30.6157C52.491 31.3624 51.0923 32.1921 49.8582 32.1921C47.9659 32.1921 46.8963 31.0306 46.8963 28.8734V14.7686H39.5739V29.869C39.5739 35.345 41.9599 38.083 46.8963 38.083C50.4341 38.083 52.5732 36.7555 54.2187 35.0131C55.3706 37.0873 57.4274 38.083 60.4716 38.083C64.0094 38 65.9839 36.7555 67.5472 35.0131ZM90.8308 30.5327C90.1726 31.2795 89.103 32.1092 87.293 32.1092C85.3184 32.1092 84.2488 30.2838 84.2488 26.7162C84.2488 22.3188 85.4007 20.1616 87.7866 20.1616C89.1853 20.1616 89.8435 20.2445 90.8308 20.4934V30.5327ZM84.7425 38H84.9893C88.2803 38 90.5017 36.8384 91.7358 35.0131L92.1472 37.5022H98.1532V15.6812C95.7672 14.9345 92.9699 14.2707 87.8689 14.2707C80.5465 14.2707 76.5973 18.7511 76.5973 27.048C76.5973 34.6812 79.3946 38 84.7425 38Z" fill="#DC000F"/>
</g>
<defs>
<clipPath id="clip0_154_93">
<rect width="123" height="38" fill="white"/>
</clipPath>
</defs>
</svg>
