<svg width="178" height="25" viewBox="0 0 178 25" fill="none" xmlns="http://www.w3.org/2000/svg">
<path fill-rule="evenodd" clip-rule="evenodd" d="M139.958 12.8246V16.2737V16.7384C140.306 17.0775 140.725 17.3404 141.187 17.5093C141.597 17.6659 142.037 17.737 142.478 17.7181C142.919 17.6992 143.35 17.5906 143.745 17.3995C144.14 17.2083 144.489 16.9388 144.771 16.6082C145.052 16.2777 145.259 15.8935 145.378 15.4804C145.984 13.8331 145.974 12.0307 145.349 10.39C144.931 9.30855 144.145 8.53757 142.906 8.37932C141.983 8.27249 141.049 8.42899 140.217 8.82973C140.132 8.8628 140.061 8.92171 140.015 8.99751C139.968 9.07331 139.948 9.16187 139.958 9.24972V12.8246ZM134.863 7.49067L139.712 7.01185C139.987 6.98142 140.018 7.06663 140.002 7.29386V8.69786L140.246 8.49497C141.13 7.65367 142.259 7.09638 143.479 6.89823C145.386 6.66694 147.376 7.38516 148.294 9.3329C148.668 10.0916 148.879 10.9166 148.913 11.7572C148.947 12.5978 148.805 13.4364 148.494 14.2216C148.183 15.0067 147.711 15.7218 147.106 16.3231C146.501 16.9244 145.776 17.3992 144.975 17.7183C143.559 18.3148 142.088 18.3513 140.594 18.2113L139.968 18.1545V18.2965C139.983 19.7695 139.968 21.2425 140.006 22.7074C140.02 23.7218 140.367 24.0971 141.379 24.2696C141.725 24.3244 142.822 24.365 142.822 24.365V24.5678H134.966V24.365C135.42 24.3052 135.871 24.2205 136.315 24.1113C136.804 23.9429 137.014 23.5453 137.071 23.0523C137.085 22.8981 137.085 22.752 137.085 22.5998V10.5218C137.085 10.2317 137.048 9.93954 137.023 9.64332C136.92 8.52743 136.32 7.84978 135.251 7.69153L134.863 7.65095V7.49067ZM161.97 9.05494C161.5 10.1303 157.812 18.3047 157.812 18.3047H156.896L152.233 9.621C152.233 9.621 152.233 13.6423 152.233 15.4886C152.244 15.9663 152.302 16.4419 152.406 16.9088C152.451 17.2019 152.596 17.4719 152.817 17.6757C153.038 17.8794 153.323 18.0052 153.627 18.0328C153.819 18.0612 154.369 18.0693 154.369 18.0693V18.2722H149.636V18.0693C149.636 18.0693 149.997 18.0693 150.076 18.0531C150.956 17.9618 151.347 17.4201 151.449 16.6329C151.482 16.2819 151.536 15.9167 151.543 15.5575C151.543 13.6605 151.543 11.8102 151.543 9.91316C151.538 9.57597 151.494 9.24038 151.411 8.91292C151.238 8.15006 150.633 7.88427 149.926 7.76051L149.686 7.70979V7.54342L154.102 7.52719L154.248 7.795C155.331 9.84621 158.06 14.9266 158.377 15.5149C158.55 15.1315 160.801 10.0836 161.767 7.8579L161.928 7.52719H166.432V7.70979L165.94 7.75442C165.022 7.84572 164.834 8.04658 164.834 8.94538V16.6775C164.834 17.5905 165.097 17.8766 166.004 18.0267C166.113 18.045 166.474 18.0673 166.474 18.0673V18.2336H160.605V18.0673C160.702 18.0682 160.799 18.0628 160.895 18.051C161.759 17.9131 161.963 17.6858 161.97 16.8175V9.05494ZM174.927 12.9707H170.066V12.3275H174.864C174.791 11.0189 174.635 9.73462 173.853 8.62685C173.177 7.65095 171.733 7.36285 170.565 7.94311C170.049 8.19105 169.589 8.5358 169.211 8.95749C168.833 9.37917 168.544 9.86946 168.362 10.4001L168.259 10.7044H168.003C168.032 10.2824 168.074 9.86244 168.097 9.4384L168.182 7.81529L168.199 7.5353L168.408 7.49878C169.59 7.37299 170.767 7.14778 171.954 7.093C174.191 6.9875 176.569 7.86398 177.547 10.2053C178.772 13.1736 177.566 17.4059 173.202 18.3615C171.925 18.645 170.595 18.5953 169.344 18.2174C168.933 18.089 168.544 17.9009 168.191 17.6595C168.02 17.5495 167.88 17.3995 167.785 17.2234C167.689 17.0473 167.641 16.8506 167.643 16.6515C167.646 16.4523 167.701 16.2571 167.801 16.0837C167.902 15.9103 168.046 15.7642 168.22 15.659C168.327 15.5823 168.441 15.5145 168.56 15.4561C168.784 15.3706 169.015 15.3027 169.25 15.2532L169.572 15.8152C169.837 16.3412 170.163 16.8361 170.544 17.2902C171.612 18.4812 173.465 17.9618 174.042 16.8844C174.333 16.3474 174.544 15.7729 174.668 15.1781C174.829 14.4619 174.839 13.7194 174.923 12.9666L174.927 12.9707ZM120.375 7.54545H110.419V7.74834C110.419 7.74834 111.118 7.82543 111.379 7.88224C112.136 8.03441 112.533 8.47062 112.533 9.18479C112.548 11.6939 112.548 14.1962 112.533 16.6917C112.556 16.9728 112.475 17.2527 112.302 17.4796C112.13 17.7064 111.879 17.8648 111.596 17.9253C111.207 18.0052 110.814 18.0641 110.419 18.1018V18.2763H117.721V18.118C117.27 18.0628 116.823 17.9842 116.382 17.8826C116.119 17.8217 115.885 17.6752 115.719 17.4675C115.553 17.2598 115.465 17.0033 115.47 16.7404C115.453 16.4665 115.416 16.1987 115.416 15.9288V8.17035H115.833C116.286 8.20281 116.738 8.21092 117.187 8.28396C118.56 8.50714 119.584 9.14624 119.932 10.5502C120.003 10.8363 120.07 11.1102 120.118 11.4125H120.375V7.54545ZM40.7897 7.54545H30.8343V7.74834C30.8343 7.74834 31.5331 7.82543 31.7939 7.88224C32.545 8.03441 32.9476 8.47062 32.9476 9.18479V16.6917C32.9715 16.9728 32.8897 17.2527 32.7175 17.4796C32.5452 17.7064 32.2941 17.8648 32.0109 17.9253C31.6202 18.0053 31.2253 18.0642 30.828 18.1018V18.2763H38.1298V18.118C37.6786 18.0627 37.2309 17.9841 36.7883 17.8826C36.5243 17.8225 36.2894 17.6765 36.1225 17.4688C35.9555 17.261 35.8666 17.004 35.8704 16.7404C35.8558 16.4665 35.8245 16.1987 35.8182 15.9288V8.17035H36.2355C36.6903 8.20281 37.1513 8.21092 37.5999 8.28396C38.9642 8.50714 39.9865 9.14624 40.3411 10.5502C40.4121 10.8363 40.4705 11.1102 40.5206 11.4125H40.7792V7.54545H40.7897ZM81.3624 7.5069H86.9096V7.64486C86.9096 7.64486 86.2566 7.74428 86.0751 7.78486C85.9987 7.79349 85.9254 7.81944 85.8611 7.86062C85.7968 7.9018 85.7434 7.95706 85.705 8.02197C85.6667 8.08688 85.6445 8.15962 85.6403 8.23437C85.6361 8.30912 85.65 8.38378 85.6808 8.45236C85.8686 9.00016 86.071 9.53985 86.3067 10.0755C87.1412 11.9725 88.9917 16.1074 88.9917 16.1074C89.2942 15.3607 90.9193 11.3537 91.4138 10.0349C91.5563 9.68217 91.6279 9.3061 91.6245 8.92712C91.6099 8.26165 91.1071 7.84572 90.2517 7.69761L89.8908 7.64283V7.5069H94.7288V7.65906L94.5201 7.68544C93.2934 7.95934 92.6133 8.81147 92.1669 9.86447C91.1405 12.2687 90.1516 14.6932 89.1565 17.1117C88.3929 18.9661 87.6064 21.0721 86.5278 22.7926C86.1117 23.5199 85.5248 24.1413 84.8151 24.6064C84.0703 25.0487 83.1294 25.2029 82.3846 24.722C81.5376 24.1722 81.7316 22.9833 82.4305 22.3949C82.4305 22.3949 82.6037 22.4639 82.7393 22.5004C83.6572 22.7743 84.644 22.9204 85.491 22.4172C86.1001 22.0078 86.5977 21.4605 86.9409 20.8225C87.6189 19.7005 87.6064 19.7005 87.0849 18.5055L83.0814 9.30044C82.9254 8.97523 82.7506 8.65889 82.5578 8.35295C82.4454 8.14042 82.272 7.9641 82.0588 7.84529C81.8456 7.72648 81.6015 7.67025 81.3561 7.68341V7.5069H81.3624ZM121.119 7.5069H126.665V7.65906C126.665 7.65906 126.014 7.74428 125.843 7.78486C125.766 7.79333 125.692 7.81911 125.628 7.86015C125.563 7.90119 125.51 7.95634 125.471 8.02121C125.432 8.08607 125.41 8.15884 125.405 8.2337C125.4 8.30857 125.414 8.38345 125.444 8.45236C125.632 9.00016 125.834 9.53985 126.07 10.0755C126.957 12.0881 127.852 14.0988 128.753 16.1074C129.576 14.0785 130.386 12.0543 131.181 10.0349C131.313 9.68843 131.383 9.32282 131.39 8.9535C131.375 8.28802 130.87 7.8721 130.017 7.72399L129.656 7.66921V7.5069H134.494V7.65906L134.269 7.68544C133.044 7.95934 132.364 8.81147 131.916 9.86447C130.893 12.2687 129.913 14.6932 128.916 17.1117C128.15 18.9661 127.363 21.0721 126.289 22.7926C125.871 23.5206 125.282 24.1421 124.57 24.6064C123.819 25.0487 122.882 25.2029 122.146 24.722C121.293 24.1722 121.48 22.9833 122.179 22.3949C122.179 22.3949 122.361 22.4639 122.492 22.5004C123.416 22.7743 124.405 22.9204 125.246 22.4172C125.86 22.01 126.361 21.4624 126.706 20.8225C127.386 19.7005 127.372 19.7005 126.846 18.5055C125.507 15.4378 124.188 12.3783 122.847 9.3187C122.697 8.99245 122.525 8.67596 122.334 8.37121C122.221 8.15819 122.047 7.98158 121.833 7.86275C121.619 7.74392 121.374 7.68797 121.128 7.70167V7.5069H121.119ZM99.4686 18.5319C101.143 18.5085 102.749 17.88 103.973 16.7688L103.779 16.4868C103.206 16.7069 102.611 16.8654 102.003 16.9595C99.9172 17.205 98.3379 16.221 97.5931 14.3057C97.1759 13.2466 97.1613 12.1591 97.2739 11.0473C97.3245 10.2081 97.5976 9.39587 98.0667 8.68974C98.8344 7.60834 100.443 7.28575 101.432 8.36106C101.849 8.82973 102.788 10.39 102.788 10.39C102.967 10.3559 103.144 10.3078 103.316 10.2459C103.85 10.043 104.269 9.73462 104.342 9.12392C104.413 8.56801 104.161 8.17035 103.691 7.86601C102.992 7.40545 102.218 7.23705 101.396 7.14778C100.483 7.02606 99.5544 7.08787 98.667 7.32936C97.7795 7.57086 96.9525 7.98692 96.2371 8.55178C95.5811 9.06552 95.0498 9.7138 94.6813 10.4503C94.3127 11.1868 94.1159 11.9934 94.105 12.8124C93.9318 16.2616 96.308 18.5481 99.4603 18.5278L99.4686 18.5319ZM78.0244 12.9626V12.1855C78.0293 11.1491 77.803 10.1239 77.361 9.18073C77.0728 8.56302 76.5483 8.0789 75.899 7.83115C75.2496 7.5834 74.5266 7.59154 73.8833 7.85384C72.9987 8.17643 72.5586 8.86828 72.3541 9.6981C72.1742 10.4246 72.0556 11.1643 71.9994 11.9096C71.8634 13.225 71.9844 14.5537 72.3562 15.8254C72.6337 16.7181 73.1343 17.4485 74.0857 17.7893C75.3562 18.2174 77.046 17.8177 77.5801 16.2798C77.9296 15.2085 78.0801 14.0852 78.0244 12.9626ZM80.9451 0L81.0536 0.0994157C80.6134 1.18081 79.8916 2.34337 78.7442 2.81407C77.8923 3.13822 76.9884 3.31404 76.0738 3.33347C74.8096 3.40448 73.5704 3.55665 72.4083 4.15517C71.78 4.49523 71.2305 4.95753 70.7941 5.51326C70.3576 6.06898 70.0436 6.70619 69.8715 7.38516C69.5689 8.43111 69.4055 9.51051 69.3854 10.5969L69.352 11.6357L69.5189 11.6864L69.5335 11.5606C69.6684 10.4166 70.197 9.35051 71.0335 8.53555C71.7394 7.83127 72.6609 7.36854 73.6601 7.21677C75.3562 6.95707 77.0085 7.11735 78.5481 7.91876C79.2309 8.27512 79.8151 8.78662 80.251 9.40975C80.6869 10.0329 80.9615 10.7492 81.0515 11.4977C81.3248 13.1675 81.0515 14.744 80.0397 16.1277C79.6043 16.7459 79.0419 17.2699 78.3881 17.6665C77.7343 18.0632 77.0032 18.324 76.2407 18.4325C75.0414 18.6385 73.8073 18.5307 72.665 18.12C71.9675 17.868 71.3329 17.4752 70.8029 16.9674C70.2729 16.4597 69.8595 15.8485 69.5899 15.1741C68.9995 13.8411 68.8201 12.4371 68.8117 11.0006C68.8117 9.29232 68.9619 7.60834 69.5335 5.98726C70.1385 4.23227 71.1399 2.77147 72.8089 1.826C73.8862 1.2326 75.0853 0.878538 76.32 0.789239C77.0898 0.718228 77.868 0.689823 78.644 0.649245C79.4588 0.648906 80.2567 0.423774 80.9451 0ZM57.8987 12.3519C57.8855 12.586 57.891 12.8207 57.9154 13.0539C57.9697 13.7092 58.0114 14.3524 58.124 14.9854C58.2316 15.5407 58.4162 16.0792 58.6727 16.5862C59.2777 17.7305 60.3187 18.0734 61.56 17.8989C62.6991 17.7447 63.35 17.0427 63.6462 16.0059C63.9939 14.7286 64.1013 13.4006 63.9634 12.0861C63.9012 11.2538 63.7487 10.4303 63.5086 9.62912C63.3885 9.15702 63.134 8.72744 62.7742 8.38972C62.4144 8.052 61.9639 7.81985 61.4745 7.71993C59.9745 7.41357 58.8062 8.12571 58.3285 9.59666C58.0543 10.4915 57.9062 11.4183 57.8883 12.3519H57.8987ZM54.809 13.0539C54.7726 11.5185 55.3626 10.0315 56.4501 8.91794C57.5377 7.80438 59.0343 7.15483 60.6129 7.11126C61.9814 7.07474 63.2958 7.25734 64.5079 7.91065C65.8785 8.64105 66.6733 9.80563 66.9779 11.2664C67.2851 12.5931 67.1348 13.9813 66.5503 15.2167C66.1405 16.1413 65.475 16.9372 64.628 17.5161C63.7809 18.0949 62.7853 18.4339 61.752 18.4954C60.4071 18.644 59.0459 18.4379 57.8111 17.8989C55.9919 17.0752 55.0531 15.6326 54.8466 13.7092C54.8153 13.4637 54.809 13.2162 54.8007 13.062L54.809 13.0539ZM42.9176 7.54545H54.2416V7.74834C53.7783 7.80991 53.3197 7.90142 52.8689 8.02224C52.651 8.09848 52.464 8.24078 52.3356 8.42817C52.2071 8.61556 52.1439 8.83812 52.1554 9.06306L52.0844 15.168C52.0844 15.6712 52.1137 16.1723 52.1554 16.6694C52.1992 17.3714 52.4829 17.7224 53.1651 17.9131C53.5206 17.9824 53.8801 18.0305 54.2416 18.0571V18.2844H47.4489V18.0571C47.7589 18.0288 48.0668 17.9821 48.371 17.9171C48.5947 17.86 48.7948 17.7373 48.9441 17.5655C49.0935 17.3938 49.1847 17.1815 49.2055 16.9575C49.2445 16.6886 49.2654 16.4175 49.2681 16.1459V8.59235V8.17035H45.6589C45.6589 9.4384 45.8279 13.5895 45.033 16.2413C44.5991 17.6757 43.8439 18.5319 42.6068 18.607C41.234 18.6922 39.6423 17.5032 41.1464 15.8375C41.8787 16.0952 42.4879 16.1906 42.976 16.0668C44.5136 15.6468 44.5928 14.1211 44.7535 13.0985C44.9341 11.8068 45.0233 10.5046 45.0205 9.20102C45.0205 8.93524 45.0205 8.38947 44.6867 8.12774C44.2403 7.75645 42.9197 7.75036 42.9197 7.75036V7.54748L42.9176 7.54545Z" fill="black"/>
<path fill-rule="evenodd" clip-rule="evenodd" d="M0 7.53125H10.9192C10.9192 11.0899 10.9192 14.6493 10.9192 18.2093H0C0 14.6479 0 11.0886 0 7.53125Z" fill="#661219"/>
<path fill-rule="evenodd" clip-rule="evenodd" d="M10.9193 7.52924C14.5924 7.52924 18.2669 7.52924 21.9428 7.52924C21.9428 11.0893 21.9428 14.65 21.9428 18.2113C18.2683 18.2113 14.5931 18.2113 10.9172 18.2113C10.9172 14.65 10.9179 11.0893 10.9193 7.52924Z" fill="#E81328"/>
</svg>
