<svg width="175" height="27" viewBox="0 0 175 27" fill="none" xmlns="http://www.w3.org/2000/svg">
<path d="M48.6053 15.4737C47.4909 14.4537 46.0421 14.0004 44.5933 14.0004C43.3674 14.0004 42.3644 14.3404 41.3614 14.6804V7.31372H38.4638V26.3537H41.3614C42.03 26.4671 42.8102 26.4671 43.8132 26.4671C44.9276 26.4671 46.8222 26.3537 48.4939 25.2204C50.0541 24.0871 50.9457 22.5004 50.9457 20.3471C50.7228 17.9671 49.8312 16.3804 48.6053 15.4737ZM43.7017 25.2204C42.4758 25.2204 41.8071 25.1071 41.4728 24.8804C41.4728 24.8804 41.4728 24.8804 41.3614 24.8804V15.5871C42.03 15.2471 42.8102 15.1337 43.8132 15.1337C46.7108 15.1337 48.1596 17.7404 48.1596 20.1204C48.1596 24.3137 45.7078 25.2204 43.7017 25.2204Z" fill="black"/>
<path d="M3.58131 22.0464V7.31302H0.683716V26.4664H1.46384L13.9458 11.393V26.1264H16.9548V6.97302H16.1747L3.58131 22.0464Z" fill="black"/>
<path d="M28.0994 6.97302H27.5422L19.1838 26.1264H20.744L27.2079 11.393L33.1145 26.1264H36.4579L28.0994 6.97302Z" fill="black"/>
<path d="M163.06 5.04667C165.735 5.04667 168.298 4.02667 170.081 2.32667L168.187 0.17334C166.738 2.44001 164.62 3.80001 162.057 3.80001C161.389 3.80001 160.608 3.68667 159.94 3.46001L159.605 4.59334C160.943 4.82001 162.057 5.04667 163.06 5.04667Z" fill="black"/>
<path d="M89.506 6.86023C83.9337 6.86023 79.253 11.2802 79.253 16.7202C79.253 22.7269 83.3765 26.5802 89.9518 26.5802C93.2952 26.5802 96.3042 25.3336 98.5331 22.9536L98.8674 20.6869H98.1988C96.4156 23.6336 93.0723 25.4469 89.7289 25.4469C85.2711 25.4469 82.0391 21.8202 82.0391 16.8336H99.3132C99.6476 11.1669 95.0783 6.86023 89.506 6.86023ZM82.4849 15.4736C82.9307 10.9402 85.494 7.99356 89.506 7.99356C93.1837 7.99356 96.5271 11.2802 96.9729 15.4736H82.4849Z" fill="black"/>
<path d="M164.175 6.86023C161.723 6.86023 159.717 7.31356 157.934 8.33356L158.937 9.4669C160.497 8.4469 162.503 7.88023 164.175 7.88023C167.964 7.88023 170.861 10.9402 171.419 15.3602H159.16V16.6069H171.419C171.419 21.4802 168.41 25.1069 164.175 25.1069C162.392 25.1069 159.717 24.3136 157.822 22.5002H157.154L157.822 24.4269C159.717 25.6736 161.834 26.3536 164.175 26.3536C167.184 26.3536 169.747 25.3336 171.642 23.6336C173.425 21.8202 174.539 19.2136 174.539 16.4936C174.205 11.0536 169.97 6.86023 164.175 6.86023Z" fill="black"/>
<path d="M142.554 8.56039H148.015V26.1271H150.913V8.56039H156.373V7.31372H142.554V8.56039Z" fill="black"/>
<path d="M77.2469 17.4004V12.5271C77.2469 11.0538 76.9126 9.12711 76.4668 7.99378C75.018 4.59378 71.7861 2.66711 67.3283 2.66711C64.6536 2.66711 62.5361 3.46045 60.6415 5.27378L60.3072 7.20045H61.0873C63.2048 4.70711 64.8765 3.80045 67.6626 3.80045C72.009 3.80045 74.3493 6.52045 74.6837 11.7338C72.9006 9.80711 70.6716 8.67378 68.1084 8.67378C62.6475 8.67378 58.524 12.5271 58.524 17.6271C58.524 22.5004 62.6475 26.5804 67.7741 26.5804C69.8915 26.5804 72.5662 26.2404 75.1295 23.2938C76.1325 22.2738 77.2469 20.3471 77.2469 17.4004ZM74.6837 17.5138C74.6837 19.7804 73.9036 22.0471 72.4548 23.5204C71.3403 24.7671 69.7801 25.4471 67.9969 25.4471C64.2078 25.4471 61.4216 22.1604 61.3102 17.5138C61.3102 15.0204 61.9789 12.9804 63.4277 11.6204C64.5421 10.3738 66.3253 9.69378 68.1084 9.69378C71.3403 9.69378 74.4608 12.1871 74.6837 17.5138Z" fill="black"/>
<path d="M132.97 6.97375C127.398 6.97375 122.717 11.3938 122.717 16.8338C122.717 22.2738 127.398 26.6938 132.97 26.6938C138.542 26.6938 143.223 22.2738 143.223 16.8338C143.223 11.3938 138.654 6.97375 132.97 6.97375ZM138.765 22.9538C137.651 24.4271 136.09 25.2204 134.084 25.4471C133.75 25.4471 133.638 25.4471 133.304 25.4471C129.292 25.4471 126.395 22.1604 125.949 17.5138C125.614 14.9071 126.283 12.5271 127.732 10.7138C128.846 9.24042 130.407 8.22042 132.413 8.10709C132.524 8.10709 132.858 8.10709 133.081 8.10709C136.87 8.10709 140.102 11.5071 140.548 16.0404C140.66 18.6471 139.991 21.1404 138.765 22.9538Z" fill="black"/>
<path d="M119.151 15.4737C118.036 14.4537 116.587 14.0004 115.138 14.0004C113.913 14.0004 112.91 14.3404 111.907 14.6804V8.67372C119.373 8.67372 120.042 8.67372 120.265 8.67372V7.31372H109.12V26.3537H112.018C112.687 26.4671 113.467 26.4671 114.47 26.4671C115.584 26.4671 117.479 26.3537 119.151 25.2204C120.711 24.0871 121.602 22.5004 121.602 20.3471C121.157 17.9671 120.376 16.3804 119.151 15.4737ZM118.593 20.1204C118.593 22.6137 117.479 25.3337 114.247 25.3337C113.132 25.3337 112.352 25.2204 111.795 24.9937H111.684V15.7004C112.352 15.3604 113.132 15.2471 114.135 15.2471C117.479 14.9071 118.593 17.9671 118.593 20.1204Z" fill="black"/>
</svg>
