<svg width="157" height="34" viewBox="0 0 157 34" fill="none" xmlns="http://www.w3.org/2000/svg">
<path d="M14.5336 6.65271C7.59948 6.65271 1.93364 13.7619 0.0519674 23.389C0.0311754 23.4842 0.010396 23.7275 0 23.8227C0.176732 23.8227 0.769292 23.8862 0.977214 23.3255C4.59502 15.5815 9.02375 10.7892 14.5233 10.7892C20.1059 10.7892 24.7737 16.5019 27.591 23.8121C28.1732 23.2409 29.0672 22.3416 29.0672 21.4742C26.7905 12.9262 21.0519 6.65271 14.5336 6.65271Z" fill="#0B2877"/>
<path d="M125.022 6.65271C118.088 6.65271 112.422 13.7619 110.54 23.389C110.52 23.4842 110.499 23.7275 110.488 23.8227C110.665 23.8227 111.258 23.8862 111.465 23.3255C115.083 15.5815 119.512 10.7892 125.022 10.7892C130.605 10.7892 135.273 16.5019 138.08 23.8121C138.662 23.2409 139.566 22.3416 139.566 21.4742C137.269 12.9262 131.54 6.65271 125.022 6.65271Z" fill="#0B2877"/>
<path d="M31.4592 6.65271C30.7003 6.65271 29.8894 7.06529 29.8894 8.0386C29.8894 8.5041 30.8251 10.1332 31.5008 11.7413C32.1766 10.1016 33.0706 8.5993 33.0706 8.0386C33.0706 7.06529 32.3117 6.65271 31.4592 6.65271Z" fill="#0B2877"/>
<path d="M44.1834 7.0647C39.0894 7.0647 36.085 8.3448 34.3176 9.51903L36.2616 10.5029C37.8834 9.42383 39.7963 8.38707 43.5284 8.38707C50.9616 8.38707 52.2611 12.915 52.4898 14.7029L52.469 14.6499C52.3963 14.6711 52.3235 14.6923 52.2611 14.7135C51.4399 14.9674 50.4106 15.2847 48.7057 15.2847C47.9571 15.2847 47.4685 15.1048 46.8552 14.8616C46.0859 14.5653 45.119 14.2056 43.4973 14.2056C42.125 14.2056 40.9399 14.4913 40.0562 14.7557V16.5753C40.8879 16.3215 42.1042 15.9512 43.4973 15.9512C44.8176 15.9512 45.5141 16.2157 46.2522 16.5013C46.9383 16.7658 47.6453 17.0303 48.7057 17.0303C50.4938 17.0303 51.6581 16.7129 52.5314 16.4485C52.521 16.7658 52.521 17.0303 52.5106 17.1149C52.3443 18.6701 51.1903 22.9017 43.5284 22.9017C39.3493 22.9017 37.7171 22.0871 36.0953 20.8917L34.2448 22.0343C36.2305 23.2826 38.5384 24.2241 44.1834 24.2241C51.5854 24.2241 56.6899 20.8811 56.6899 16.0676C56.6899 11.2435 51.5958 7.0647 44.1834 7.0647Z" fill="#0B2877"/>
<path d="M57.6672 12.5026H62.5118V23.8223H65.9529V12.5026H70.6415V10.9474H57.6672V12.5026Z" fill="#0B2877"/>
<path d="M89.9143 10.9474L82.7727 21.0612L76.2645 10.9474H72.5843L80.8803 23.7694L77.3145 28.8262H79.6327L92.2226 10.9474H89.9143Z" fill="#0B2877"/>
<path d="M100.582 10.7253C96.0281 10.7253 92.8781 11.6986 92.774 13.8991H92.764V14.354H96.3712C96.3712 13.1374 97.0367 12.2805 100.8 12.2805C104.678 12.2805 105.052 13.0845 105.052 14.354V16.163H99.5525C94.4688 16.163 91.9216 17.898 91.9216 20.2466C91.9216 22.2778 94.0422 23.8012 98.2008 23.8012H108.493V14.2164C108.503 11.5716 106.57 10.7253 100.582 10.7253ZM105.052 22.2672H99.0639C96.4646 22.2672 95.5916 21.3997 95.5916 20.0984C95.5916 18.8078 96.6622 17.7499 99.3756 17.7499H105.052V22.2672Z" fill="#0B2877"/>
<path d="M150.066 16.1735H144.889V10.9474H141.396V23.8117H151.064C154.952 23.8117 157 22.1719 157 19.8763C157 17.242 153.861 16.1735 150.066 16.1735ZM150.243 22.2671H144.889V17.7499H149.962C152.509 17.7499 153.507 18.6385 153.507 19.9397C153.507 21.4314 152.686 22.2671 150.243 22.2671Z" fill="#0B2877"/>
</svg>
