<svg width="145" height="35" viewBox="0 0 145 35" fill="none" xmlns="http://www.w3.org/2000/svg">
<g clip-path="url(#clip0_154_77)">
<path fill-rule="evenodd" clip-rule="evenodd" d="M16.8932 0.071167C7.60194 0.071167 0 7.78545 0 17.214C0 26.6426 7.60194 34.3569 16.8932 34.3569C26.1845 34.3569 33.7864 26.6426 33.7864 17.214C33.8568 7.78545 26.2549 0.071167 16.8932 0.071167ZM16.8932 3.6426C9.50243 3.6426 3.51942 9.71402 3.51942 17.214C3.51942 24.714 9.50243 30.7854 16.8932 30.7854C24.284 30.7854 30.267 24.714 30.267 17.214C30.3374 9.78545 24.284 3.6426 16.8932 3.6426Z" fill="#2AD1C5"/>
<path fill-rule="evenodd" clip-rule="evenodd" d="M17.5268 7.64233L21.0462 11.2138C19.9904 11.928 18.7938 12.3566 17.5268 12.4995V7.64233ZM17.6675 22.6423V27.8566H16.2598V22.6423C15.3447 23.3566 14.2889 23.7852 13.0219 23.7852C12.3884 23.7852 11.8253 23.7138 11.2622 23.4995C12.3884 21.8566 14.2185 20.7138 16.3302 20.4995V22.5709L16.2598 22.6423H17.4564V20.4995C19.568 20.7138 21.3981 21.7852 22.5243 23.4995C21.9612 23.7138 21.3981 23.7852 20.7646 23.7852C19.6384 23.7138 18.5122 23.3566 17.6675 22.6423ZM21.8908 12.1423L24.636 14.928C24.9175 15.2852 25.1991 15.6423 25.4103 16.0709H17.5268V13.7852C19.1457 13.6423 20.6942 12.9995 21.8908 12.1423ZM25.903 17.2138C25.9734 17.6423 26.0438 17.9995 26.0438 18.428C26.0438 20.2852 25.1287 21.928 23.7209 22.8566C22.3836 20.7852 20.1311 19.428 17.5972 19.2138V17.2138H25.903ZM10.2064 22.928C8.79861 21.9995 7.81317 20.3566 7.81317 18.4995C7.81317 18.0709 7.88356 17.6423 7.95395 17.2852H16.3302V19.2852C13.7962 19.428 11.5438 20.8566 10.2064 22.928ZM8.37628 15.9995C8.72822 15.3566 9.15055 14.7852 9.71366 14.3566L11.9661 12.0709C13.2331 12.9995 14.7112 13.5709 16.3302 13.7138V15.9995H8.37628ZM12.8107 11.2138L16.3302 7.64233V12.4995C15.0632 12.428 13.7962 11.928 12.8107 11.2138Z" fill="#2AD1C5"/>
<path fill-rule="evenodd" clip-rule="evenodd" d="M40.6141 15.4286H44.1335V5.71429H48.4272V15.4286H51.9466V2.64286H40.6141V15.4286ZM54.9029 15.6429C55.3252 15.6429 55.6772 15.5714 56.0291 15.5C56.3811 15.4286 56.733 15.2143 57.0146 14.9286C57.2961 14.6429 57.5777 14.2857 57.8592 13.8571C58.0704 13.4286 58.2815 12.8571 58.4927 12.1429C58.6335 11.4286 58.7743 10.6429 58.915 9.64286C58.9854 8.64286 59.0558 7.5 59.0558 6.21429V5.71429H62.0121V15.4286H65.5315V2.64286H55.818V4.42857C55.818 5.5 55.818 6.5 55.7476 7.35714C55.6772 8.21429 55.6772 8.92857 55.6068 9.5C55.5364 10.0714 55.466 10.5714 55.3956 11C55.3252 11.4286 55.1845 11.7143 55.1141 11.9286C54.9733 12.1429 54.9029 12.3571 54.7621 12.4286C54.6214 12.5714 54.4806 12.6429 54.3398 12.6429C54.199 12.7143 54.0582 12.7143 53.9175 12.7143C53.8471 12.7143 53.7767 12.7143 53.6359 12.7143C53.5655 12.7143 53.4247 12.7143 53.284 12.7143C53.2136 12.7143 53.0728 12.7143 53.0024 12.6429L52.7913 15.3571C52.8616 15.3571 53.0728 15.4286 53.284 15.5C53.4951 15.5714 53.7063 15.5714 54.0582 15.6429C54.3398 15.6429 54.6214 15.6429 54.9029 15.6429ZM66.7282 15.4286H70.3883L71.3034 13.1429H76.1602L77.0752 15.4286H80.8058L75.4563 2.5H72.0777L66.7282 15.4286ZM72.3592 10.4286L73.767 6.78571L75.1748 10.4286H72.3592ZM82.0728 15.4286H85.5922V10.5714H90.0971V15.4286H93.6165V2.64286H90.0971V7.42857H85.5922V2.64286H82.0728V15.4286ZM95.7985 15.4286H106.075V12.4286H99.318V10.4286H105.371V7.64286H99.318V5.64286H106.005V2.64286H95.8689V15.4286H95.7985ZM110.932 15.4286H114.451V5.71429H118.252V2.64286H107.201V5.71429H111.002V15.4286H110.932ZM117.478 15.4286H121.138L122.053 13.1429H126.91L127.825 15.4286H131.556L126.206 2.5H122.828L117.478 15.4286ZM123.109 10.4286L124.517 6.78571L125.925 10.4286H123.109ZM45.5413 31.6429C46.3155 31.6429 47.0194 31.5714 47.6529 31.3571C48.2864 31.1429 48.7791 30.8571 49.2014 30.5C49.6238 30.1429 49.9757 29.7143 50.1869 29.2143C50.3981 28.7143 50.5388 28.2143 50.5388 27.6429C50.5388 27.0714 50.4684 26.6429 50.2573 26.2857C50.0461 25.9286 49.8349 25.5714 49.483 25.2857C49.1311 25 48.7791 24.8571 48.3568 24.6429C48.7087 24.5 49.0607 24.2143 49.3422 24C49.6238 23.7143 49.8349 23.4286 49.9757 23.0714C50.1165 22.7143 50.1869 22.2857 50.1869 21.7857C50.1869 21.2857 50.0461 20.8571 49.8349 20.4286C49.6238 20 49.2718 19.6429 48.8495 19.3571C48.4272 19.0714 47.9345 18.7857 47.3714 18.6429C46.8082 18.5 46.1747 18.3571 45.4709 18.3571C44.6966 18.3571 43.9223 18.4286 43.2888 18.6429C42.6553 18.8571 42.0922 19.0714 41.5291 19.4286C41.0364 19.7857 40.5437 20.1429 40.1214 20.5714L41.8811 22.6429C42.0922 22.4286 42.3034 22.2857 42.5849 22.1429C42.8665 22 43.1481 21.8571 43.4296 21.7143C43.7112 21.5714 43.9927 21.5 44.3447 21.4286C44.6262 21.3571 44.9078 21.3571 45.1893 21.3571C45.5413 21.3571 45.8228 21.4286 46.034 21.5C46.2451 21.5714 46.4563 21.7143 46.5971 21.8571C46.7379 22 46.8082 22.2143 46.8082 22.4286C46.8082 22.6429 46.7379 22.8571 46.5971 23C46.4563 23.1429 46.3155 23.2857 46.034 23.4286C45.7524 23.5 45.4005 23.5714 44.9781 23.5714H43.7112V26.2143H45.0485C45.7524 26.2143 46.2451 26.2857 46.5971 26.5C46.949 26.7143 47.0898 27 47.0898 27.3571C47.0898 27.5714 47.0194 27.7857 46.8786 28C46.7379 28.2143 46.5267 28.3571 46.2451 28.4286C45.9636 28.5 45.6116 28.5714 45.1893 28.5714C44.6966 28.5714 44.2039 28.5 43.7815 28.3571C43.3592 28.2143 42.9369 28.0714 42.5849 27.8571C42.233 27.6429 41.8811 27.3571 41.5995 27.0714L39.7694 29.4286C40.1214 29.7143 40.4733 30.0714 40.8956 30.2857C41.2476 30.5714 41.6699 30.7857 42.1626 30.9286C42.5849 31.1429 43.148 31.2857 43.7112 31.3571C44.1335 31.5714 44.767 31.6429 45.5413 31.6429ZM51.2427 34H54.4102L54.6214 31.4286H61.3082V34H64.2646L64.6869 28.3571H63.2791V18.5714H53.6359V18.9286C53.6359 19.8571 53.6359 20.7857 53.5655 21.5C53.4951 22.2857 53.4951 23 53.4248 23.6429C53.3544 24.2857 53.284 24.8571 53.1432 25.3571C53.0728 25.8571 52.932 26.4286 52.7913 26.8571C52.6505 27.3571 52.5097 27.7857 52.2985 28.2857H51.1723V34H51.2427ZM56.0291 28.2857C56.1699 27.8571 56.3107 27.4286 56.4514 26.9286C56.5922 26.5 56.6626 26 56.733 25.4286C56.8034 24.9286 56.8738 24.3571 56.9442 23.7143C57.0146 23.1429 57.0146 22.4286 57.0146 21.7857V21.6429H59.7597V28.2143H56.0291V28.2857ZM72.4296 31.6429C73.2039 31.6429 73.9781 31.5 74.6116 31.2857C75.3155 31.0714 75.949 30.7143 76.5121 30.3571C77.0752 29.9286 77.568 29.5 77.9903 28.9286C78.4126 28.3571 78.6942 27.7857 78.9053 27.0714C79.1165 26.4286 79.2573 25.7143 79.2573 25C79.2573 24.2857 79.1165 23.5714 78.9053 22.8571C78.6942 22.2143 78.3422 21.5714 77.9903 21C77.568 20.4286 77.0752 20 76.5121 19.5714C75.949 19.1429 75.3155 18.8571 74.6116 18.6429C73.9078 18.4286 73.2039 18.2857 72.4296 18.2857C71.6553 18.2857 70.8811 18.4286 70.2476 18.6429C69.5437 18.8571 68.9102 19.2143 68.3471 19.5714C67.784 20 67.2913 20.4286 66.8689 21C66.4466 21.5714 66.165 22.1429 65.9539 22.8571C65.7427 23.5714 65.6723 24.2857 65.6723 25C65.6723 25.7143 65.8131 26.4286 66.0243 27.1429C66.2354 27.7857 66.5874 28.4286 66.9393 29C67.3616 29.5714 67.8544 30 68.4175 30.4286C68.9806 30.8571 69.6141 31.1429 70.318 31.3571C70.9515 31.5714 71.6553 31.6429 72.4296 31.6429ZM72.5 28.4286C72.0073 28.4286 71.5849 28.3571 71.1626 28.1429C70.7403 27.9286 70.4587 27.7143 70.1772 27.3571C69.8956 27.0714 69.6845 26.6429 69.5437 26.2857C69.4029 25.8571 69.3325 25.4286 69.3325 24.9286C69.3325 24.4286 69.4029 24 69.5437 23.5714C69.6845 23.1429 69.8956 22.7857 70.1772 22.5C70.4587 22.2143 70.8107 21.9286 71.1626 21.7857C71.5849 21.5714 72.0073 21.5 72.5 21.5C72.9927 21.5 73.415 21.5714 73.8374 21.7857C74.2597 22 74.5413 22.2143 74.8932 22.5714C75.1748 22.8571 75.3859 23.2857 75.5267 23.6429C75.6675 24.0714 75.7379 24.5 75.7379 25C75.7379 25.5 75.6675 25.9286 75.5267 26.3571C75.3859 26.7857 75.1748 27.1429 74.8932 27.4286C74.6116 27.7143 74.2597 28 73.9078 28.1429C73.415 28.3571 72.9927 28.4286 72.5 28.4286ZM81.0874 31.4286H84.6068V27.7857H86.3665C87.1408 27.7857 87.8447 27.7143 88.5485 27.5C89.182 27.2857 89.8155 27 90.2379 26.6429C90.7306 26.2857 91.0825 25.7857 91.3641 25.2143C91.6456 24.6429 91.7864 24 91.7864 23.2143C91.7864 22.5 91.6456 21.8571 91.4345 21.2857C91.1529 20.7143 90.801 20.2143 90.3786 19.8571C89.9563 19.5 89.3932 19.1429 88.6893 19C88.0558 18.7857 87.3519 18.7143 86.5073 18.7143H81.0874V31.4286ZM84.6068 24.9286V21.5714H86.2257C86.6481 21.5714 87 21.6429 87.2815 21.7857C87.5631 21.9286 87.8447 22.0714 87.9854 22.3571C88.1262 22.6429 88.1966 22.9286 88.1966 23.2857C88.1966 23.6429 88.1262 23.9286 87.9854 24.2143C87.8447 24.5 87.5631 24.6429 87.2815 24.7857C87 24.9286 86.6481 25 86.2257 25H84.6068V24.9286ZM99.5995 31.6429C100.374 31.6429 101.148 31.5 101.782 31.2857C102.485 31.0714 103.119 30.7143 103.682 30.3571C104.245 29.9286 104.738 29.5 105.16 28.9286C105.583 28.3571 105.864 27.7857 106.075 27.0714C106.286 26.4286 106.427 25.7143 106.427 25C106.427 24.2857 106.286 23.5714 106.075 22.8571C105.864 22.2143 105.512 21.5714 105.16 21C104.738 20.4286 104.245 20 103.682 19.5714C103.119 19.1429 102.485 18.8571 101.782 18.6429C101.078 18.4286 100.374 18.2857 99.5995 18.2857C98.8252 18.2857 98.051 18.4286 97.4175 18.6429C96.7136 18.8571 96.0801 19.2143 95.517 19.5714C94.9539 20 94.4612 20.4286 94.0388 21C93.6165 21.5714 93.3349 22.1429 93.1238 22.8571C92.9126 23.5 92.7718 24.2143 92.7718 24.9286C92.7718 25.6429 92.9126 26.3571 93.1238 27.0714C93.3349 27.7143 93.6869 28.3571 94.0388 28.9286C94.4612 29.5 94.9539 29.9286 95.517 30.3571C96.0801 30.7857 96.7136 31.0714 97.4175 31.2857C98.051 31.5714 98.8252 31.6429 99.5995 31.6429ZM99.5995 28.4286C99.1068 28.4286 98.6845 28.3571 98.2621 28.1429C97.8398 27.9286 97.5582 27.7143 97.2767 27.3571C96.9951 27.0714 96.784 26.6429 96.6432 26.2857C96.5024 25.8571 96.432 25.4286 96.432 24.9286C96.432 24.4286 96.5024 24 96.6432 23.5714C96.784 23.1429 96.9951 22.7857 97.2767 22.5C97.5582 22.2143 97.9102 21.9286 98.2621 21.7857C98.6845 21.5714 99.1068 21.5 99.5995 21.5C100.092 21.5 100.515 21.5714 100.937 21.7857C101.359 22 101.641 22.2143 101.993 22.5714C102.274 22.8571 102.485 23.2857 102.626 23.6429C102.767 24.0714 102.837 24.5 102.837 25C102.837 25.5 102.767 25.9286 102.626 26.3571C102.485 26.7857 102.274 27.1429 101.993 27.4286C101.711 27.7143 101.359 28 101.007 28.1429C100.515 28.3571 100.092 28.4286 99.5995 28.4286ZM108.257 31.4286H114.803C115.789 31.4286 116.704 31.2857 117.408 31C118.112 30.7143 118.675 30.2857 119.027 29.7857C119.379 29.2857 119.59 28.6429 119.59 27.9286C119.59 27.3571 119.519 26.8571 119.308 26.4286C119.097 26 118.816 25.7143 118.464 25.4286C118.112 25.1429 117.619 24.9286 117.126 24.7857C117.478 24.6429 117.83 24.4286 118.112 24.1429C118.393 23.8571 118.604 23.5714 118.816 23.2143C118.956 22.8571 119.097 22.4286 119.097 21.9286C119.097 21.5 119.027 21.0714 118.886 20.7143C118.745 20.3571 118.534 20.0714 118.323 19.7857C117.971 19.4286 117.478 19.1429 116.915 18.9286C116.352 18.7143 115.648 18.6429 114.874 18.6429H108.398V31.4286H108.257ZM111.636 28.5714V26.2143H114.311C114.874 26.2143 115.296 26.3571 115.578 26.5C115.859 26.7143 116 27 116 27.3571C116 27.7857 115.859 28.0714 115.578 28.2857C115.296 28.5 114.874 28.5714 114.311 28.5714H111.636ZM111.636 23.7143V21.4286H113.888C114.381 21.4286 114.803 21.5 115.085 21.7143C115.367 21.9286 115.507 22.1429 115.507 22.5C115.507 22.9286 115.367 23.2143 115.085 23.3571C114.803 23.5714 114.381 23.6429 113.888 23.6429H111.636V23.7143ZM121.138 31.4286H126.699C127.473 31.4286 128.177 31.3571 128.811 31.1429C129.444 30.9286 129.937 30.6429 130.43 30.2857C130.852 29.9286 131.204 29.4286 131.415 28.8571C131.626 28.2857 131.767 27.7143 131.767 27C131.767 26.2857 131.626 25.6429 131.345 25.0714C131.063 24.5 130.711 24.0714 130.218 23.7143C129.726 23.3571 129.163 23.0714 128.529 22.9286C127.896 22.7143 127.192 22.6429 126.417 22.6429H124.517V18.5714H120.998V31.4286H121.138ZM124.658 28.4286V25.4286H126.488C126.84 25.4286 127.192 25.5 127.473 25.6429C127.755 25.7857 127.966 25.9286 128.107 26.1429C128.248 26.3571 128.318 26.6429 128.318 26.9286C128.318 27.4286 128.177 27.7857 127.825 28.0714C127.473 28.3571 127.051 28.4286 126.488 28.4286H124.658ZM132.682 31.4286H136.694L139.228 27.5714H140.777V31.4286H144.296V18.5714H138.313C137.609 18.5714 136.905 18.6429 136.272 18.8571C135.638 19 135.075 19.2857 134.583 19.6429C134.09 20 133.738 20.4286 133.456 21C133.175 21.5714 133.034 22.2143 133.034 22.9286C133.034 23.5714 133.175 24.2143 133.386 24.7143C133.597 25.2143 133.879 25.6429 134.301 26C134.723 26.3571 135.146 26.6429 135.638 26.8571L132.682 31.4286ZM138.524 24.7857C138.102 24.7857 137.82 24.7143 137.539 24.5714C137.257 24.4286 137.046 24.2857 136.905 24C136.765 23.7857 136.694 23.5 136.694 23.1429C136.694 22.7857 136.765 22.5 136.905 22.2857C137.046 22.0714 137.257 21.8571 137.539 21.7143C137.82 21.5714 138.172 21.5 138.524 21.5H140.847V24.7143H138.524V24.7857Z" fill="#2AD1C5"/>
</g>
<defs>
<clipPath id="clip0_154_77">
<rect width="145" height="35" fill="white"/>
</clipPath>
</defs>
</svg>
