<svg width="148" height="29" viewBox="0 0 148 29" fill="none" xmlns="http://www.w3.org/2000/svg">
<g clip-path="url(#clip0_154_100)">
<path fill-rule="evenodd" clip-rule="evenodd" d="M113.29 0.242806C115.356 -0.225034 117.518 -0.0200388 119.459 0.827889C121.401 1.67582 123.021 3.12232 124.083 4.95639C125.145 6.79046 125.594 8.91614 125.364 11.0234C125.134 13.1306 124.237 15.1091 122.804 16.6704C121.371 18.2316 119.477 19.2938 117.398 19.7021C115.319 20.1104 113.164 19.8434 111.248 18.9401C109.331 18.0367 107.753 16.5443 106.744 14.6805C105.735 12.8167 105.347 10.679 105.638 8.5792C106.14 4.56726 109.339 1.08531 113.29 0.242806ZM113.923 4.67706C111.222 5.42032 109.415 8.45251 110.124 11.1806C110.675 13.8454 113.44 15.7901 116.134 15.4037C119.089 15.125 121.41 12.1118 120.914 9.17254C120.564 5.96721 117.006 3.64873 113.929 4.68339L113.923 4.67706Z" fill="#00ADEF"/>
<path fill-rule="evenodd" clip-rule="evenodd" d="M27.5353 0.422631C30.2787 0.46275 33.0073 0.40785 35.7423 0.447969C39.0533 0.58522 42.0563 3.12752 42.7654 6.3603C43.0161 7.4473 43.0271 8.57589 42.7976 9.66758C42.5682 10.7593 42.1038 11.7878 41.4368 12.6817C40.7698 13.5756 39.9162 14.3134 38.9353 14.8437C37.9544 15.374 36.8698 15.6841 35.757 15.7525C34.4444 15.8158 33.1297 15.7525 31.815 15.7841C31.7939 16.804 32.026 18.0182 31.2241 18.8205C30.2744 19.8299 28.7804 19.3843 27.5606 19.4794C27.472 18.0287 27.5289 16.5718 27.5142 15.119C27.5289 10.2181 27.4846 5.31509 27.5353 0.414185V0.422631ZM31.8129 11.4766C32.9946 11.4893 34.1778 11.4893 35.3624 11.4766C36.0028 11.4646 36.6265 11.2706 37.1608 10.9173C37.6952 10.564 38.1181 10.0659 38.3801 9.48117C39.2707 7.67791 38.1206 5.27708 36.1685 4.8231C34.7399 4.57816 33.2774 4.79565 31.834 4.6964C31.7918 6.95365 31.8297 9.21089 31.8129 11.4681V11.4766Z" fill="#00ADEF"/>
<path fill-rule="evenodd" clip-rule="evenodd" d="M44.8799 2.64152C44.8629 2.10818 45.0464 1.58786 45.3941 1.18326C45.7418 0.778669 46.2285 0.519198 46.7581 0.456068C47.5558 0.386387 48.3598 0.439176 49.1617 0.428618C49.1786 4.37932 49.1617 8.33003 49.1617 12.2786C51.9895 8.49896 54.9629 4.82908 57.814 1.07053C58.0419 0.859374 58.1917 0.437064 58.5568 0.437064C59.842 0.40328 61.1314 0.437064 62.4186 0.437064C62.3912 6.10024 62.4186 11.7634 62.4018 17.4245C62.3867 17.9454 62.1796 18.4423 61.8204 18.8196C61.4612 19.1969 60.9753 19.428 60.4561 19.4684C59.6731 19.5086 58.8881 19.4684 58.1031 19.4811C58.1411 15.5621 58.1875 11.6367 58.0799 7.71979C55.0769 11.6684 51.9832 15.5452 48.9633 19.479C47.5959 19.479 46.2199 19.479 44.863 19.479C44.8799 13.8651 44.8855 8.25261 44.8799 2.64152Z" fill="#00ADEF"/>
<path fill-rule="evenodd" clip-rule="evenodd" d="M65.3878 0.434757C69.3003 0.415754 73.2107 0.434757 77.1211 0.422088C77.9375 0.411776 78.7467 0.575973 79.4946 0.903701C80.2424 1.23143 80.9118 1.71514 81.4578 2.32248C82.9477 3.89136 83.3761 6.33442 82.6016 8.33828C82.4096 8.9274 81.9474 9.39406 81.7765 9.98529C82.4581 11.0854 83.0426 12.308 82.9793 13.6383C83.0637 16.6198 80.485 19.3226 77.52 19.4492C74.2173 19.502 70.9126 19.4492 67.6015 19.4746C67.0402 19.4936 66.4938 19.2915 66.0798 18.9116C65.6658 18.5318 65.4174 18.0045 65.3878 17.4433C65.3667 11.7738 65.3878 6.10215 65.373 0.432646L65.3878 0.434757ZM69.6865 4.71487C69.6992 5.7453 69.6992 6.77574 69.6865 7.80617C72.24 7.80617 74.7956 7.80617 77.349 7.75972C77.9652 7.74071 78.4422 7.21283 78.6511 6.66805C78.9191 5.73263 78.1256 4.65785 77.1359 4.71909C74.6521 4.70853 72.1682 4.71909 69.6844 4.71909L69.6865 4.71487ZM69.6865 12.1053C69.6865 13.1315 69.6865 14.157 69.6865 15.1818C72.1619 15.2114 74.6373 15.1818 77.1127 15.1818C77.4521 15.187 77.7837 15.0805 78.0567 14.8787C78.3297 14.6769 78.5289 14.3909 78.6237 14.0648C78.9465 13.123 78.1087 12.025 77.1148 12.1011C74.6436 12.0609 72.1725 12.118 69.6886 12.0968L69.6865 12.1053Z" fill="#00ADEF"/>
<path fill-rule="evenodd" clip-rule="evenodd" d="M91.3762 0.435326C96.1737 0.424064 100.971 0.424064 105.769 0.435326C105.6 1.64524 106.136 3.14444 105.135 4.09675C104.671 4.60774 103.958 4.75766 103.293 4.73021C100.778 4.70276 98.2622 4.76189 95.7488 4.69643C95.6032 5.77332 95.7002 6.85865 95.6728 7.93977C95.6918 10.9698 95.6538 13.9999 95.6939 17.0194C95.6939 17.693 95.5631 18.4278 95.0165 18.8797C94.0415 19.8214 92.5833 19.3844 91.3741 19.4709C91.3924 13.1264 91.3931 6.78123 91.3762 0.435326Z" fill="#00ADEF"/>
<path fill-rule="evenodd" clip-rule="evenodd" d="M127.342 0.422079C128.781 0.445306 130.221 0.422079 131.66 0.438971C131.645 5.36099 131.622 10.283 131.67 15.205C132.958 15.1734 134.243 15.205 135.53 15.1776C135.53 10.2661 135.53 5.35254 135.53 0.441083C136.971 0.441083 138.415 0.413633 139.856 0.451641C139.806 5.36099 139.856 10.2703 139.831 15.1776C141.127 15.2029 142.42 15.1776 143.716 15.1902C143.729 10.2725 143.737 5.35466 143.716 0.43686C144.596 0.457975 145.487 0.356621 146.362 0.500206C146.843 0.61362 147.27 0.890158 147.57 1.2828C147.87 1.67545 148.025 2.15997 148.008 2.65399C148.008 8.26226 148.008 13.8726 148.008 19.4851C141.893 19.4739 135.778 19.4739 129.663 19.4851C129.313 19.5043 128.962 19.4399 128.641 19.2971C128.32 19.1543 128.038 18.9372 127.817 18.6637C127.325 18.0978 127.357 17.2997 127.334 16.5986C127.342 11.191 127.31 5.80864 127.342 0.422079Z" fill="#00ADEF"/>
<path fill-rule="evenodd" clip-rule="evenodd" d="M-6.20843e-07 10.9293C2.84891 10.9293 5.69783 10.9293 8.54674 10.9293C8.55799 13.7771 8.55799 16.6242 8.54674 19.4705C7.06953 19.4705 5.57332 19.4832 4.08555 19.4705C2.00479 19.4389 0.111846 17.6314 0.0168818 15.5346C-0.0189934 14.0016 0.0105509 12.4581 -6.20843e-07 10.9293Z" fill="#00ADEF"/>
<path fill-rule="evenodd" clip-rule="evenodd" d="M47.2856 22.9761L47.7457 22.955C47.7583 23.5546 47.7562 24.1543 47.7224 24.754C48.2057 24.2282 48.9696 23.9368 49.6492 24.2641C51.0884 24.8596 50.9913 27.3343 49.4761 27.7735C48.8304 28.029 48.1909 27.6553 47.7309 27.2245C47.7499 27.8136 47.752 28.4006 47.7457 28.9898L47.2835 28.9665C47.2835 28.3901 47.2835 27.8136 47.3088 27.2372C46.8699 27.6405 46.2938 28.0016 45.6733 27.7946C44.0357 27.4779 43.9133 24.7244 45.4876 24.2324C46.1397 23.9601 46.8298 24.2493 47.3025 24.7181C47.2814 24.1374 47.2793 23.5567 47.2856 22.9761ZM45.5404 24.7054C44.711 25.1003 44.6456 26.3503 45.1859 27.0049C45.819 27.7503 47.2582 27.29 47.2687 26.2806C47.5536 25.2924 46.5322 24.1818 45.5404 24.7054ZM48.4737 24.6801C47.3721 25.1911 47.541 27.2773 48.8451 27.3892C49.7758 27.5159 50.3793 26.5045 50.1831 25.6789C50.1624 25.4871 50.0973 25.3029 49.9927 25.1409C49.8882 24.979 49.7472 24.8437 49.5811 24.746C49.415 24.6483 49.2283 24.5909 49.036 24.5784C48.8437 24.5658 48.6511 24.5985 48.4737 24.6738V24.6801Z" fill="#00ADEF"/>
<path fill-rule="evenodd" clip-rule="evenodd" d="M27.5121 24.2342C28.62 24.2342 29.73 24.2194 30.84 24.2342C30.84 25.4061 30.84 26.5802 30.84 27.7521L30.3631 27.7246C30.3631 26.7005 30.3631 25.6743 30.3631 24.6502C29.5823 24.6502 28.7993 24.6502 28.0185 24.665C28.027 25.6982 28.027 26.7301 28.0185 27.7605L27.5142 27.7225C27.5121 26.5633 27.5142 25.3977 27.5121 24.2342Z" fill="#00ADEF"/>
<path fill-rule="evenodd" clip-rule="evenodd" d="M33.0304 25.3531C33.1993 24.8442 33.4757 24.2741 34.075 24.1959C34.7925 24.065 35.8772 24.0101 36.2107 24.8294C36.3056 25.6043 36.2381 26.3877 36.2634 27.169L36.8121 27.6441C36.4006 27.7602 35.8751 27.8679 35.7295 27.3358C35.424 27.5829 35.0598 27.7468 34.6723 27.8115C34.2848 27.8763 33.8871 27.8397 33.5179 27.7053C32.8447 27.4498 32.7139 26.3877 33.3343 26.0161C34.1257 25.5621 35.1534 25.8514 35.9047 25.2876C35.548 24.2318 33.7585 24.3564 33.4926 25.4227L33.0304 25.3721V25.3531ZM33.5221 26.4278C33.1001 27.2851 34.3093 27.5913 34.9065 27.3083C35.5902 27.2028 35.8076 26.506 35.8519 25.9084C35.0732 26.0646 34.246 26.0815 33.5221 26.4278Z" fill="#00ADEF"/>
<path fill-rule="evenodd" clip-rule="evenodd" d="M38.6545 24.3081L39.0765 24.1497L39.0934 24.7684C39.87 23.8351 41.5266 23.9386 42.1281 25.007C42.6451 25.9488 42.2969 27.3741 41.2037 27.7161C40.4609 28.0392 39.6421 27.7499 39.0934 27.2178C39.1124 27.8112 39.1145 28.4066 39.1145 29L38.6376 28.9725C38.6735 27.4184 38.6123 25.8622 38.6629 24.3081H38.6545ZM39.8468 24.7177C38.7917 25.1759 38.8803 27.0404 40.0325 27.3149C40.9442 27.657 42.0394 26.8567 41.8432 25.858C41.879 24.8655 40.6719 24.2975 39.8468 24.7177Z" fill="#00ADEF"/>
<path fill-rule="evenodd" clip-rule="evenodd" d="M53.0299 24.2828L53.4709 24.2005C53.4709 24.6861 53.4618 25.1704 53.4435 25.6532L54.1631 25.7039C54.4649 24.9796 54.9249 24.1667 55.8155 24.1266C56.9867 23.8605 58.1833 24.8804 58.0334 26.0903C58.1073 27.5029 56.4127 28.3011 55.2457 27.6993C54.6126 27.4396 54.3531 26.7618 54.218 26.141H53.4604C53.4604 26.6815 53.4604 27.2242 53.4604 27.7648L53.0067 27.7479C53.0278 26.5907 52.9602 25.4252 53.0341 24.2744L53.0299 24.2828ZM55.4652 24.7284C54.4691 25.2077 54.5177 26.9645 55.6002 27.3213C56.4444 27.6824 57.5523 27.0806 57.5354 26.1156C57.7232 24.9986 56.4106 24.1794 55.4652 24.7178V24.7284Z" fill="#00ADEF"/>
<path fill-rule="evenodd" clip-rule="evenodd" d="M60.0023 24.2405H60.7093C61.144 25.1485 61.5809 26.0543 62.0536 26.9433L62.2435 26.8968C62.7099 26.0269 63.1087 25.121 63.5561 24.2384H64.2145C64.2019 25.4061 64.204 26.5738 64.2145 27.7436H63.7313C63.7313 26.7744 63.7313 25.8031 63.7545 24.8339C63.2797 25.7714 62.8892 26.7533 62.3511 27.657H61.9291C61.4135 26.7322 60.952 25.7783 60.5468 24.8001C60.513 25.7798 60.5236 26.7617 60.5257 27.7436H60.0171C60.0129 26.5766 60.008 25.4089 60.0023 24.2405Z" fill="#00ADEF"/>
<path fill-rule="evenodd" clip-rule="evenodd" d="M67.1436 24.3271C67.9287 23.9175 69.0429 24.0167 69.6169 24.7283C69.9419 25.1147 69.9672 25.6405 70.058 26.1156C68.9416 26.1156 67.8274 26.1156 66.711 26.141C66.8798 26.6984 67.1753 27.3234 67.8337 27.3889C68.5259 27.5853 69.0387 27.0405 69.4966 26.6224L69.9356 26.6372C69.5705 27.7795 68.1291 28.2103 67.1331 27.6317C65.9365 26.9835 65.9513 24.9754 67.1436 24.3271ZM66.7553 25.6849C67.6649 25.6975 68.5744 25.6849 69.4839 25.6849C69.3827 24.1857 66.8798 24.192 66.7553 25.6849Z" fill="#00ADEF"/>
<path fill-rule="evenodd" clip-rule="evenodd" d="M72.0227 24.1797C72.0974 24.1756 72.1722 24.1875 72.2421 24.2146C72.3119 24.2418 72.3751 24.2835 72.4274 24.3371C72.4798 24.3907 72.5201 24.4549 72.5456 24.5253C72.5712 24.5958 72.5814 24.6709 72.5756 24.7456C73.3078 23.7532 75.072 24.0066 75.568 25.1109C76.0343 26.059 75.6355 27.4336 74.5508 27.7377C74.1937 27.861 73.8083 27.8769 73.4423 27.7835C73.0762 27.69 72.7456 27.4913 72.4911 27.2119C72.5059 27.8052 72.5059 28.4007 72.5059 28.9961H72.0142C72.0248 27.3893 72.0037 25.7845 72.0142 24.1776L72.0227 24.1797ZM73.3733 24.6738C72.221 25.0159 72.2084 26.9564 73.3733 27.2879C74.2933 27.6806 75.4224 26.8846 75.2514 25.8668C75.2599 24.9314 74.2047 24.3296 73.3733 24.6738Z" fill="#00ADEF"/>
<path fill-rule="evenodd" clip-rule="evenodd" d="M77.7627 24.2322H78.2586C78.2586 25.1993 78.246 26.1642 78.2586 27.1292C78.9803 26.1706 79.7168 25.2288 80.4175 24.2469L81.0611 24.2258C81.0442 25.3956 81.0442 26.5675 81.0611 27.7394H80.5694C80.5694 26.7597 80.5694 25.7778 80.5694 24.7981C79.8456 25.7799 79.1091 26.7491 78.3747 27.7226L77.788 27.7606C77.7669 26.5865 77.7796 25.4104 77.7627 24.2322Z" fill="#00ADEF"/>
<path fill-rule="evenodd" clip-rule="evenodd" d="M83.6103 24.344C84.4544 24.1328 85.3471 24.2616 86.2123 24.2363C86.2123 25.4061 86.2123 26.5752 86.2123 27.7435H85.7481C85.7481 27.2537 85.7445 26.7652 85.7375 26.2781H84.5452C84.235 26.7722 83.9227 27.2642 83.604 27.7562H83.0638C83.3592 27.2706 83.661 26.7912 83.9796 26.3204C83.0384 26.1747 82.7134 24.7663 83.6124 24.3461L83.6103 24.344ZM83.8214 24.7346C83.7435 24.7937 83.6804 24.87 83.637 24.9575C83.5935 25.0451 83.5709 25.1415 83.5709 25.2393C83.5709 25.337 83.5935 25.4334 83.637 25.521C83.6804 25.6085 83.7435 25.6848 83.8214 25.7439C84.4544 25.9128 85.1086 25.8284 85.7502 25.8495V24.6818C85.1044 24.686 84.4566 24.629 83.8214 24.7346Z" fill="#00ADEF"/>
<path fill-rule="evenodd" clip-rule="evenodd" d="M91.8363 24.2257L92.3449 24.2447C92.284 25.2046 92.2876 26.1675 92.3554 27.127C93.0645 26.1768 93.7229 25.1822 94.508 24.2933L95.1221 24.1898C95.1073 25.3617 95.1009 26.5336 95.1221 27.7077L94.6662 27.7816C94.6008 26.7846 94.6008 25.7844 94.6662 24.7874C93.9635 25.6637 93.3093 26.5759 92.634 27.4733C92.4821 27.7731 92.117 27.7161 91.8447 27.7921C91.8321 26.6054 91.8405 25.4145 91.8363 24.2257Z" fill="#00ADEF"/>
<path fill-rule="evenodd" clip-rule="evenodd" d="M100.716 24.2999L101.257 24.1943C101.257 24.7117 101.257 25.229 101.257 25.7442C102.198 25.2987 102.793 24.1057 103.945 24.207C103.449 24.6737 102.909 25.0917 102.371 25.5077C102.991 26.258 103.615 27.0055 104.243 27.7502L103.557 27.727C103.042 27.0808 102.502 26.46 101.976 25.8266C101.708 26.0947 101.206 26.2679 101.257 26.7219C101.238 27.0682 101.246 27.4166 101.257 27.7629H100.788C100.757 26.6057 100.826 25.4465 100.716 24.2999Z" fill="#00ADEF"/>
<path fill-rule="evenodd" clip-rule="evenodd" d="M106.724 24.2698C107.98 23.6153 109.698 24.6288 109.495 26.0984C109.55 27.49 107.891 28.2818 106.731 27.7053C105.376 27.1141 105.38 24.8695 106.731 24.2698H106.724ZM106.95 24.7048C105.906 25.1525 105.969 27.0085 107.098 27.3147C108.119 27.7792 109.31 26.7087 108.953 25.6423C108.847 24.7365 107.714 24.3057 106.95 24.7048Z" fill="#00ADEF"/>
<path fill-rule="evenodd" clip-rule="evenodd" d="M112.239 24.3081C113.222 23.7612 114.653 24.2299 114.915 25.385H114.436C114.121 24.7958 113.475 24.3545 112.792 24.591C111.823 24.8148 111.525 26.0881 112.026 26.8588C112.211 27.0896 112.462 27.2585 112.745 27.343C113.029 27.4275 113.331 27.4236 113.613 27.3318C114.225 27.2178 114.269 26.3183 114.963 26.3837C114.813 27.7056 113.163 28.2841 112.116 27.5873C110.964 26.8905 111.025 24.9162 112.239 24.3081Z" fill="#00ADEF"/>
<path fill-rule="evenodd" clip-rule="evenodd" d="M116.818 24.2366H117.502C117.966 25.2058 118.443 26.1687 118.922 27.1315C119.391 26.1623 119.88 25.2058 120.349 24.2387L120.992 24.2218C120.992 25.4022 120.992 26.5825 120.992 27.7629L120.511 27.7185C120.522 26.7557 120.536 25.7949 120.511 24.8342C120.107 25.8024 119.647 26.7465 119.133 27.6615H118.711C118.169 26.7599 117.778 25.7738 117.308 24.8342C117.308 25.8097 117.308 26.7852 117.308 27.7586L116.831 27.7333C116.82 26.5698 116.829 25.4022 116.818 24.2366Z" fill="#00ADEF"/>
<path fill-rule="evenodd" clip-rule="evenodd" d="M123.368 27.1355C122.596 26.0607 123.198 24.1793 124.635 24.1075C124.918 24.0563 125.21 24.0716 125.487 24.1521C125.764 24.2325 126.018 24.3761 126.231 24.5714C126.443 24.7667 126.607 25.0085 126.71 25.2779C126.813 25.5473 126.853 25.8369 126.825 26.124C125.724 26.124 124.622 26.1093 123.523 26.124C123.664 26.6076 123.852 27.1798 124.411 27.315C125.099 27.6106 125.774 27.1946 126.207 26.6815L126.724 26.5717C126.397 28.0498 124.192 28.3201 123.377 27.1313L123.368 27.1355ZM123.518 25.6574C124.445 25.7271 125.375 25.7271 126.302 25.6574C126.091 24.1941 123.746 24.2025 123.518 25.6468V25.6574Z" fill="#00ADEF"/>
<path fill-rule="evenodd" clip-rule="evenodd" d="M128.378 24.2279C129.533 24.2554 130.7 24.154 131.843 24.3082C131.55 24.9121 130.788 24.5827 130.267 24.6692C130.278 25.687 130.267 26.7069 130.267 27.7267L129.807 27.7605C129.807 26.7259 129.807 25.6912 129.807 24.6566H128.387L128.378 24.2279Z" fill="#00ADEF"/>
<path fill-rule="evenodd" clip-rule="evenodd" d="M133.511 24.2276H133.986C133.986 25.2031 133.986 26.1787 133.986 27.1542C134.697 26.1829 135.452 25.2538 136.138 24.2593L136.794 24.2107C136.794 25.3868 136.794 26.5651 136.794 27.7412H136.303C136.303 26.7657 136.303 25.788 136.303 24.8104C135.617 25.7226 134.948 26.6474 134.247 27.5554C134.087 27.8045 133.753 27.7328 133.511 27.8003C133.517 26.6052 133.521 25.4143 133.511 24.2276Z" fill="#00ADEF"/>
<path fill-rule="evenodd" clip-rule="evenodd" d="M139.033 24.2384H139.504C139.504 24.7726 139.504 25.309 139.504 25.8474C140.38 25.2921 141.042 24.1307 142.192 24.23C141.7 24.6842 141.18 25.1073 140.635 25.4969C141.232 26.2908 141.92 27.013 142.503 27.8196C142.182 27.7584 141.791 27.7943 141.597 27.4797C141.135 26.9433 140.705 26.3838 140.234 25.8559L139.519 26.3732C139.504 26.8377 139.502 27.3023 139.502 27.7668L139.027 27.7542C139.038 26.5717 139.042 25.4061 139.033 24.2384Z" fill="#00ADEF"/>
<path fill-rule="evenodd" clip-rule="evenodd" d="M144.195 25.3724C144.358 23.9745 146.375 23.7444 147.24 24.5827C147.607 25.4146 147.361 26.3754 147.418 27.2601L147.926 27.3298C147.854 27.7859 147.462 27.7521 147.101 27.7373C147.048 27.6296 146.943 27.4121 146.89 27.3044C146.579 27.5764 146.195 27.7529 145.786 27.8128C145.377 27.8728 144.96 27.8135 144.583 27.6423C143.95 27.3277 143.925 26.3226 144.535 25.9763C145.212 25.6173 146.023 25.725 146.744 25.4948C147.029 25.3513 146.852 24.9902 146.884 24.7453C146.105 24.4686 144.951 24.4095 144.666 25.3787L144.197 25.366L144.195 25.3724ZM144.87 26.2803L144.505 26.7027C144.744 27.5958 145.875 27.5114 146.5 27.0954C146.943 26.8674 146.894 26.3184 146.979 25.9003C146.276 26.0312 145.573 26.1579 144.87 26.2803Z" fill="#00ADEF"/>
<path fill-rule="evenodd" clip-rule="evenodd" d="M0.0105576 0.422241H8.5573C8.56574 3.2672 8.56574 6.11075 8.5573 8.9529H0.0168885C6.04615e-06 6.12342 0.0168885 3.27072 0.0105576 0.422241Z" fill="#EC008B"/>
<path fill-rule="evenodd" clip-rule="evenodd" d="M10.4946 0.422241C13.335 0.422241 16.1769 0.422241 19.0202 0.422241C19.0371 3.2672 19.0371 6.11146 19.0202 8.95501C16.1755 8.96768 13.3308 8.96768 10.4861 8.95501C10.4967 6.11075 10.4882 3.2665 10.4946 0.422241Z" fill="#A6CE39"/>
<path fill-rule="evenodd" clip-rule="evenodd" d="M10.4987 10.9317C13.3434 10.9317 16.1965 10.9211 19.0328 10.9317C19.0138 13.7781 19.0328 16.6329 19.0328 19.4729C16.1902 19.4729 13.3476 19.4729 10.505 19.4729C10.4797 16.6308 10.4755 13.7802 10.4987 10.9317Z" fill="#F7ADCE"/>
</g>
<defs>
<clipPath id="clip0_154_100">
<rect width="148" height="29" fill="white"/>
</clipPath>
</defs>
</svg>
