<svg width="526" height="101" viewBox="0 0 526 101" fill="none" xmlns="http://www.w3.org/2000/svg">
<path d="M157.368 27.8379H143.139V98.2873H188.538V84.0661H157.368V27.8379Z" fill="white"/>
<path d="M271.41 27.8379V97.9763H285.639V71.2964L307.346 99.255L329.536 71.21V97.9763H343.765V27.9243L307.449 72.2122L271.41 27.8379Z" fill="white"/>
<path d="M29.4947 57.1601C26.2137 56.6072 19.3753 55.4321 18.5119 53.9461C17.7722 52.7306 17.3016 51.3706 17.1318 49.9576C16.962 48.5447 17.0969 47.1118 17.5276 45.7555C18.0614 44.4455 18.8787 43.2701 19.9208 42.314C20.9629 41.3579 22.2038 40.6448 23.5543 40.226C29.9955 37.7377 40.8228 43.5264 44.1557 45.7555L48.0584 39.9841L52.151 33.988C50.2342 32.6747 32.9484 21.3392 18.4428 26.9379C15.177 28.0929 12.2034 29.949 9.73036 32.3758C7.25736 34.8027 5.34492 37.7415 4.12718 40.9863C3.01001 44.2715 2.61224 47.7587 2.96085 51.2113C3.30946 54.6639 4.3963 58.001 6.1476 60.9962C10.3439 68.3747 19.2717 69.878 27.1462 71.1913C30.2718 71.7269 35.5041 72.6082 36.6784 73.6795C37.5933 74.7679 38.2591 76.0434 38.629 77.4165C38.9989 78.7897 39.064 80.2272 38.8197 81.6282C38.2844 83.5463 36.5575 85.0842 33.6391 86.1555C26.7317 88.7475 14.2984 82.8896 8.01261 78.587L0 90.3026C1.88227 91.5986 16.0079 100.999 29.8228 100.999C32.8617 101.032 35.8811 100.511 38.7334 99.4609C47.8684 96.0049 51.2703 89.9398 52.5482 85.4643C53.4063 81.9046 53.4337 78.195 52.6281 74.6231C51.8225 71.0511 50.2057 67.7128 47.903 64.8669C43.724 59.562 36.4884 58.3351 29.4947 57.1601Z" fill="white"/>
<path d="M471.794 26.8867H454.888L439.588 50.2835L423.131 26.9213L406.433 27.0077L432.698 65.0058V97.9755H446.927V65.0404L471.794 26.8867Z" fill="white"/>
<path d="M510.182 97.9761H526L492.654 24.1917L458.635 97.9761H474.177L478.978 87.6082H505.485L510.182 97.9761ZM485.592 73.3525L492.499 58.4401L499.182 73.3525H485.592Z" fill="white"/>
<path d="M97.1358 25.3848C89.7339 25.3848 82.4983 27.5813 76.344 31.6966C70.1898 35.8119 65.3935 41.6611 62.5617 48.5043C59.7299 55.3475 58.9899 62.8774 60.4352 70.1415C61.8805 77.4056 65.4462 84.0777 70.6813 89.3138C75.9165 94.5499 82.5858 98.1148 89.8459 99.5577C97.106 101.001 104.631 100.257 111.468 97.4198C118.306 94.583 124.149 89.7809 128.259 83.6208C132.368 77.4607 134.56 70.2193 134.557 62.8126C134.548 52.886 130.602 43.3687 123.585 36.3511C116.569 29.3335 107.056 25.3893 97.1358 25.3848V25.3848ZM97.1358 86.0193C92.5489 86.0193 88.0651 84.6583 84.2512 82.1083C80.4374 79.5583 77.4648 75.9339 75.7095 71.6935C73.9542 67.453 73.4949 62.7869 74.3898 58.2853C75.2846 53.7836 77.4934 49.6486 80.7368 46.4031C83.9802 43.1575 88.1126 40.9473 92.6113 40.0519C97.1101 39.1565 101.773 39.616 106.011 41.3725C110.249 43.1289 113.871 46.1034 116.419 49.9197C118.967 53.736 120.327 58.2228 120.327 62.8126C120.318 68.9646 117.872 74.862 113.525 79.2122C109.177 83.5623 103.284 86.0102 97.1358 86.0193V86.0193Z" fill="white"/>
<path d="M226.097 25.3848C218.695 25.3848 211.46 27.5813 205.305 31.6966C199.151 35.8119 194.355 41.6611 191.523 48.5043C188.691 55.3475 187.951 62.8774 189.397 70.1415C190.842 77.4056 194.408 84.0777 199.643 89.3138C204.878 94.5499 211.547 98.1148 218.807 99.5577C226.067 101.001 233.592 100.257 240.43 97.4198C247.267 94.583 253.11 89.7809 257.22 83.6208C261.33 77.4607 263.522 70.2193 263.518 62.8126C263.509 52.886 259.563 43.3687 252.547 36.3511C245.53 29.3335 236.017 25.3893 226.097 25.3848V25.3848ZM226.097 86.0193C221.51 86.0193 217.026 84.6583 213.213 82.1083C209.399 79.5583 206.426 75.9339 204.671 71.6935C202.916 67.453 202.456 62.7869 203.351 58.2853C204.246 53.7836 206.455 49.6486 209.698 46.4031C212.942 43.1575 217.074 40.9473 221.573 40.0519C226.072 39.1565 230.735 39.616 234.972 41.3725C239.21 43.1289 242.832 46.1034 245.38 49.9197C247.929 53.736 249.289 58.2228 249.289 62.8126C249.28 68.9646 246.833 74.862 242.486 79.2122C238.139 83.5623 232.245 86.0102 226.097 86.0193V86.0193Z" fill="white"/>
<path d="M371.343 69.931H396.969V55.7098H371.343V41.022H401.131V26.8008H357.114V98.287H402.409V84.0658H371.343V69.931Z" fill="white"/>
<path d="M307.536 53.0315L335.01 19.5952H323.543L307.743 0L291.631 19.6125H280.51L307.536 53.0315ZM312.561 22.9475H312.802L307.622 30.4987L302.683 22.8611L307.674 15.5518L312.561 22.9475Z" fill="white"/>
</svg>
