<svg width="165" height="56" viewBox="0 0 165 56" fill="none" xmlns="http://www.w3.org/2000/svg">
<path fill-rule="evenodd" clip-rule="evenodd" d="M21.3835 0.09734C21.8221 -0.0263888 22.2859 -0.0252546 22.7239 0.100617C23.1619 0.226489 23.557 0.472209 23.8656 0.810679C30.1986 7.20791 36.5306 13.607 42.8617 20.0081C43.285 20.4432 43.7746 20.8755 43.9623 21.4833C44.1135 21.9397 44.1309 22.4306 44.0125 22.8969C43.8941 23.3631 43.6449 23.7848 43.2949 24.1112C36.8039 30.6739 30.3129 37.2366 23.8219 43.7994C22.9103 44.798 21.2128 44.798 20.2941 43.7994C13.7975 37.2443 7.30648 30.6815 0.821117 24.1112C0.487898 23.8027 0.244452 23.4079 0.117111 22.9696C-0.0102297 22.5314 -0.0166169 22.0662 0.0986401 21.6245C0.269382 20.9112 0.835228 20.4204 1.32488 19.9239C7.49039 13.695 13.6521 7.46519 19.8101 1.2344C20.2603 0.767879 20.7302 0.261408 21.3779 0.0930599L21.3835 0.09734ZM5.57931 22.2793C11.0684 27.8348 16.5609 33.387 22.0566 38.9358C27.5467 33.3841 33.0391 27.8334 38.5339 22.2836C33.0419 16.7281 27.5481 11.176 22.0524 5.62715L5.57649 22.2793H5.57931ZM143.207 33.3989H144.947C144.947 33.9924 144.947 34.5844 144.947 35.1765C144.366 35.1765 143.787 35.1765 143.21 35.1765C143.21 34.583 143.21 33.9905 143.21 33.3989H143.207ZM146.973 33.3989H148.714V35.178H146.975C146.975 34.5845 146.975 33.9919 146.975 33.4003L146.973 33.3989ZM162.708 33.4246H165.003C164.926 35.8927 164.845 38.3623 164.773 40.8319C164.162 40.8319 163.551 40.8319 162.938 40.8319C162.859 38.359 162.782 35.8894 162.705 33.4231L162.708 33.4246ZM82.6586 35.3064C83.3642 35.3064 84.0697 35.3064 84.7668 35.3064C84.7668 36.305 84.7668 37.3137 84.7668 38.3181C85.8519 36.9984 87.9968 37.0997 89.2004 38.1982C90.3575 39.1969 90.6496 41.0017 89.9949 42.3656C89.508 43.3642 88.4878 44.0119 87.4196 44.1874C86.2174 44.3815 84.8571 44.2502 83.9046 43.4113C83.5218 43.0776 83.2139 42.665 83.0017 42.2012C82.7895 41.7374 82.6778 41.2331 82.6741 40.722C82.6417 38.9173 82.6741 37.1125 82.66 35.3006L82.6586 35.3064ZM86.0113 38.903C84.4436 39.2968 84.3251 41.8791 85.7291 42.5525C86.3331 42.8164 87.1191 42.7265 87.5847 42.2286C88.1491 41.6508 88.1858 40.7334 87.9883 39.9873C87.8576 39.5846 87.5792 39.2478 87.2105 39.0461C86.8418 38.8444 86.4106 38.7932 86.0057 38.903H86.0113ZM67.5755 35.9812C68.758 35.7044 70.0759 35.8385 71.1032 36.5162C71.5835 36.8183 71.9904 37.2259 72.2935 37.7087C72.5967 38.1916 72.7884 38.7373 72.8544 39.3053C73.018 40.5351 72.8007 41.8833 71.9738 42.8406C70.4005 44.7025 67.2227 44.741 65.5788 42.9562C64.8168 42.1387 64.5035 40.9831 64.5572 39.8774C64.5572 38.7361 65.0228 37.5805 65.8963 36.8415C66.3858 36.4329 66.9595 36.1404 67.5755 35.9855V35.9812ZM67.9663 37.522C67.2608 37.8073 66.9024 38.5777 66.8135 39.2982C66.6992 40.1699 66.7373 41.1286 67.2128 41.8919C67.8139 42.8649 69.3619 42.9491 70.0929 42.0888C70.5769 41.5181 70.6855 40.742 70.6954 40.0201C70.6841 39.3367 70.5867 38.6091 70.1648 38.0513C69.6724 37.3836 68.7043 37.2024 67.9663 37.522ZM97.4031 36.2965C98.3146 35.82 99.3857 35.7814 100.383 35.9312C101.868 36.1695 103.108 37.4064 103.433 38.8788C103.702 40.1071 103.574 41.4824 102.868 42.5425C102.541 43.0293 102.108 43.4341 101.602 43.7261C101.096 44.0181 100.531 44.1895 99.9501 44.2274C98.7422 44.3529 97.4214 44.0719 96.5352 43.1845C95.8198 42.5139 95.4614 41.5424 95.3838 40.5751H94.0108C94.0108 41.7079 94.0108 42.8411 94.0108 43.9749C93.3053 43.9749 92.5997 43.9749 91.8942 43.9749C91.8942 41.3574 91.8942 38.7389 91.8942 36.1196C92.5997 36.1196 93.3053 36.1196 94.0023 36.1196C94.0023 37.1182 94.0023 38.1169 94.0023 39.1156H95.4318C95.5122 38.5178 95.7337 37.9483 96.0775 37.4551C96.4213 36.962 96.8774 36.5597 97.4073 36.2822L97.4031 36.2965ZM98.7281 37.5163C98.0084 37.7945 97.6613 38.5806 97.5555 39.3039C97.4398 40.1728 97.4722 41.1286 97.959 41.8862C98.5235 42.7422 99.8541 42.9733 100.609 42.2529C101.161 41.7806 101.315 41.0159 101.343 40.3197C101.365 39.5593 101.315 38.7347 100.87 38.0898C100.407 37.4193 99.459 37.1924 98.7281 37.5191V37.5163ZM124.128 36.8029C125.437 35.5346 127.938 35.556 128.956 37.1967C128.983 36.8372 129.02 36.4834 129.064 36.1238C129.735 36.1353 130.408 36.1238 131.082 36.1238C131.082 38.8345 131.091 41.5452 131.082 44.2559C131.082 45.1547 130.809 46.1106 130.094 46.6813C129.277 47.4189 128.118 47.406 127.087 47.4046V45.821C127.651 45.8281 128.357 45.7839 128.691 45.2432C129.114 44.537 128.915 43.6638 128.973 42.8806C128.161 44.3073 126.203 44.5284 124.852 43.8179C123.646 43.1759 122.932 41.8206 122.876 40.4667C122.766 39.1413 123.141 37.7103 124.146 36.7972L124.128 36.8029ZM126.395 37.5634C125.606 37.8159 125.169 38.6533 125.083 39.4394C124.987 40.284 125.056 41.2242 125.594 41.9162C126.265 42.8221 127.809 42.8135 128.479 41.909C128.985 41.2585 129.061 40.3853 128.999 39.5892C128.97 38.9616 128.713 38.3669 128.276 37.92C127.78 37.4535 127.025 37.3722 126.395 37.5634ZM142.801 37.1354C143.557 36.2023 144.786 35.81 145.95 35.8513C147.171 35.8185 148.439 36.3107 149.176 37.328C149.863 38.1997 150.006 39.351 150.011 40.4296C147.976 40.4296 145.943 40.4296 143.91 40.4296C143.937 41.0659 144.051 41.7478 144.474 42.2386C145.116 42.9862 146.337 43.0775 147.117 42.5025C147.478 42.2315 147.673 41.8034 147.793 41.3769C148.51 41.384 149.227 41.3769 149.944 41.384C149.832 41.9516 149.581 42.4818 149.214 42.9263C148.848 43.3709 148.377 43.7156 147.845 43.9292C146.629 44.3911 145.287 44.3875 144.073 43.9192C142.895 43.4555 142.098 42.2857 141.883 41.0487C141.645 39.7005 141.865 38.184 142.796 37.1368L142.801 37.1354ZM144.9 37.4093C144.248 37.726 143.969 38.4707 143.913 39.157C145.246 39.157 146.579 39.157 147.913 39.157C147.876 38.6434 147.759 38.0955 147.375 37.7303C146.73 37.1125 145.682 37.0341 144.903 37.4121L144.9 37.4093ZM55.704 43.9806C55.704 41.3612 55.704 38.7432 55.704 36.1238C56.4095 36.1238 57.108 36.1238 57.8107 36.1238C57.8107 37.1187 57.8107 38.1141 57.8107 39.1099H60.8672C60.8672 38.1141 60.8672 37.1182 60.8672 36.1224H62.9838C62.9838 38.7408 62.9838 41.3593 62.9838 43.9777C62.2783 43.9777 61.5727 43.9777 60.8672 43.9777C60.8672 42.862 60.8672 41.745 60.8672 40.6293H57.815C57.815 41.7392 57.8023 42.8506 57.8263 43.962C57.1207 43.9934 56.4152 43.9706 55.7096 43.9763L55.704 43.9806ZM74.0086 36.1238C74.7142 36.1238 75.4127 36.1238 76.1168 36.1238C76.1309 37.0469 76.0872 37.9785 76.145 38.8959C76.1634 39.3467 76.3948 39.8147 76.8209 40.0001C77.3614 40.2312 78.0669 40.1571 78.4832 39.7148C78.795 39.3752 78.8204 38.8887 78.8289 38.4522C78.8289 37.6746 78.8289 36.8971 78.8289 36.121C79.5345 36.121 80.24 36.121 80.9455 36.121C80.9455 38.7394 80.9455 41.3578 80.9455 43.9763H78.8289C78.8289 42.9776 78.8289 41.9875 78.836 40.9945C77.5886 42.3014 75.026 42.0089 74.2993 40.2812C73.8224 38.9487 74.0707 37.502 74.0086 36.1181V36.1238ZM109.888 41.16C109.866 39.4808 109.888 37.8016 109.88 36.1238C110.602 36.1238 111.325 36.1238 112.047 36.1238C112.047 37.7089 112.037 39.2939 112.054 40.879C112.042 41.4496 112.174 42.123 112.736 42.3884C113.686 42.8949 114.984 42.2457 115.119 41.15C115.283 39.4822 115.162 37.8002 115.2 36.1267C115.905 36.1267 116.611 36.1267 117.316 36.1267C117.316 38.7451 117.316 41.3636 117.316 43.982C116.643 43.982 115.97 43.982 115.297 43.982C115.267 43.6239 115.236 43.2686 115.21 42.9077C114.383 44.1917 112.571 44.547 111.259 43.875C110.309 43.3443 109.918 42.2043 109.898 41.1643L109.888 41.16ZM132.961 36.1253C133.667 36.1253 134.372 36.1253 135.069 36.1253C135.069 37.1239 135.058 38.1226 135.079 39.1213C136.095 39.1113 137.111 39.1213 138.128 39.1213C138.128 38.1226 138.128 37.1239 138.128 36.1338H140.237C140.237 38.7532 140.237 41.3712 140.237 43.9905C139.531 43.9905 138.826 43.9905 138.12 43.9905C138.12 42.8749 138.12 41.7578 138.12 40.6421H135.071C135.071 41.7587 135.071 42.8758 135.071 43.9934C134.365 43.9934 133.66 43.9934 132.962 43.9934C132.962 41.3759 132.962 38.7575 132.962 36.1381L132.961 36.1253ZM151.573 36.1253C152.32 36.1253 153.066 36.1253 153.814 36.1253C154.52 37.0383 155.225 37.9514 155.931 38.8588C156.636 37.9457 157.342 37.0284 158.047 36.121C158.788 36.121 159.53 36.121 160.273 36.121C160.273 38.7404 160.273 41.3598 160.273 43.9791H158.165C158.165 42.0522 158.165 40.1252 158.165 38.1982C157.414 39.1883 156.67 40.1856 155.918 41.1743C155.165 40.1832 154.418 39.1922 153.676 38.2011C153.676 40.1271 153.676 42.0531 153.676 43.9791C152.97 43.9791 152.265 43.9791 151.566 43.9791C151.566 41.3617 151.566 38.7432 151.566 36.1238L151.573 36.1253ZM162.721 41.9133C163.474 41.9133 164.231 41.9133 164.979 41.9133C164.979 42.6024 164.979 43.2929 164.979 43.9834C164.224 43.9834 163.469 43.9834 162.721 43.9834C162.717 43.2915 162.718 42.6024 162.72 41.9133H162.721Z" fill="#86A20B"/>
<path fill-rule="evenodd" clip-rule="evenodd" d="M96.8374 8.93275C98.4263 8.72303 100.014 8.51902 101.601 8.30359C101.642 9.00694 102.166 9.74025 102.923 9.69888C103.656 9.69888 104.114 8.98554 104.151 8.30359C105.763 8.51474 107.373 8.73159 108.984 8.9299C108.47 10.2011 107.525 11.2554 106.43 12.0558C104.562 13.3055 102.03 13.4111 100.035 12.3967C98.6013 11.6834 97.3623 10.4793 96.8374 8.93275ZM120.967 13.5609C122.456 13.5609 123.945 13.5609 125.433 13.5609C126.864 18.2889 128.293 23.0174 129.72 27.7464H130.784C130.784 29.5116 130.784 31.2769 130.784 33.0422C129.201 33.0422 127.617 33.0422 126.033 33.0422C126.033 32.4944 126.033 31.9475 126.033 31.4015C124.038 31.4015 122.043 31.4015 120.05 31.4015C120.05 31.9451 120.05 32.4872 120.05 33.0308C118.51 33.0607 116.971 33.0308 115.433 33.0436C115.433 31.2784 115.433 29.5135 115.433 27.7492H116.607C118.057 23.0212 119.509 18.2932 120.961 13.5652L120.967 13.5609ZM121.277 27.7692C122.473 27.7692 123.668 27.7692 124.863 27.7692C124.277 25.3667 123.69 22.9646 123.103 20.563C122.499 22.967 121.883 25.3667 121.277 27.7692ZM85.9212 13.8947C88.2241 13.5424 90.8022 13.8947 92.5985 15.5026C94.2721 16.9949 94.9818 19.2847 95.1385 21.4747C95.3134 23.9371 95.0496 26.5708 93.6865 28.6851C92.6662 30.283 90.9264 31.3316 89.0778 31.6098C86.7961 31.9622 84.2449 31.6098 82.4613 30.0191C80.6988 28.4668 79.9749 26.0515 79.8409 23.7588C79.7096 21.3334 79.982 18.7512 81.3648 16.6967C82.3851 15.1459 84.1094 14.1644 85.9142 13.8947H85.9212ZM86.7679 17.5841C85.9212 17.8695 85.4626 18.7255 85.2354 19.5373C84.7924 21.0938 84.8037 22.7444 84.9335 24.3466C85.0661 25.3881 85.2665 26.5094 85.9706 27.3269C86.6903 28.1829 88.1296 28.23 88.9085 27.4325C89.5576 26.7791 89.7961 25.8403 89.9612 24.9586C90.1796 23.5007 90.1844 22.0181 89.9753 20.5588C89.8158 19.6742 89.5957 18.7283 88.9551 18.0621C88.4033 17.4771 87.5087 17.3316 86.7679 17.5841ZM136.862 13.8848C135.058 14.143 133.334 15.106 132.295 16.6454C130.884 18.7069 130.602 21.322 130.735 23.7631C130.876 26.0729 131.605 28.5082 133.399 30.0562C135.196 31.6326 137.751 31.9679 140.031 31.5984C141.857 31.3131 143.573 30.2645 144.58 28.6823C145.943 26.5679 146.202 23.9357 146.029 21.4733C145.864 19.2591 145.138 16.9364 143.42 15.4513C141.641 13.8933 139.121 13.5538 136.859 13.8819L136.862 13.8848ZM137.694 17.5684C138.504 17.3059 139.478 17.5428 140.001 18.2447C140.605 19.0379 140.796 20.0623 140.921 21.0324C141.047 22.4077 141.062 23.8087 140.804 25.1698C140.631 25.9973 140.381 26.8732 139.751 27.4696C138.978 28.2186 137.609 28.1701 136.89 27.3712C136.249 26.6664 136.023 25.6934 135.872 24.776C135.662 23.1368 135.666 21.4476 136.035 19.8312C136.258 18.9067 136.725 17.8795 137.694 17.5684ZM51.7404 14.0631H64.8382C64.6575 15.3542 64.4854 16.6468 64.3062 17.938C62.9868 17.938 61.6675 17.938 60.3481 17.938C60.3481 22.4282 60.3481 26.9179 60.3481 31.4072H55.7268V17.9408C54.3975 17.9408 53.0697 17.9408 51.7404 17.9408C51.7404 16.6568 51.7404 15.3585 51.7404 14.0674V14.0631ZM65.9515 14.0531C68.3504 14.0531 70.7492 14.0531 73.1481 14.0531C74.418 14.0902 75.7896 14.2143 76.8169 15.0375C77.6466 15.6909 78.029 16.7495 78.1264 17.7839C78.2463 18.9252 78.1165 20.1607 77.4208 21.098C77.0497 21.6202 76.4923 21.9541 75.9237 22.2223C76.8494 22.4891 77.744 23.0241 78.2139 23.9029C79.4486 26.2098 78.609 29.3985 76.3795 30.7595C75.6231 31.2332 74.7243 31.4101 73.8395 31.4058C71.2078 31.4144 68.5761 31.4058 65.9374 31.4058C65.9374 25.6192 65.9374 19.8326 65.9374 14.046L65.9515 14.0531ZM70.5545 17.9508C70.5545 18.851 70.5545 19.7498 70.5545 20.6501C71.2911 20.613 72.0601 20.7542 72.7727 20.5074C73.7605 20.0337 73.6405 18.336 72.5865 18.0207C71.9204 17.878 71.2304 17.9679 70.5531 17.9437L70.5545 17.9508ZM70.5884 24.3837C70.5884 25.438 70.5884 26.4923 70.5884 27.5466C71.1528 27.5366 71.7257 27.5752 72.2929 27.5252C72.5313 27.5046 72.7604 27.4222 72.9581 27.286C73.1559 27.1498 73.3156 26.9644 73.4218 26.7477C73.7647 25.973 73.5276 24.8602 72.6937 24.5192C72.022 24.2724 71.2826 24.4236 70.5898 24.3766L70.5884 24.3837ZM96.4155 14.0246H100.831C100.831 16.6877 100.831 19.3508 100.831 22.014L104.655 14.0246C106.216 14.0246 107.776 14.0246 109.337 14.0246C109.337 19.8197 109.337 25.6154 109.337 31.4115H104.962C104.962 28.7393 104.962 26.0657 104.962 23.3936C103.595 26.0662 102.227 28.7384 100.86 31.4101C99.3797 31.4101 97.8995 31.4101 96.4197 31.4101C96.4197 25.6149 96.4197 19.8193 96.4197 14.0231L96.4155 14.0246ZM148.15 14.0517C149.997 14.0517 151.844 14.0517 153.692 14.0517C154.414 17.0458 155.132 20.0418 155.846 23.0398C156.58 20.0447 157.319 17.0487 158.063 14.0517H163.463C163.969 19.844 164.481 25.6368 164.997 31.4301C163.514 31.4215 162.034 31.4301 160.549 31.4301C160.355 28.601 160.167 25.7704 159.967 22.9413C159.188 25.7718 158.399 28.601 157.619 31.4315C156.305 31.4315 154.993 31.4315 153.68 31.4315C152.979 28.6019 152.275 25.7728 151.571 22.9442C151.42 25.7733 151.28 28.6038 151.13 31.4343C149.588 31.4343 148.046 31.4343 146.503 31.4343C147.057 25.6382 147.606 19.844 148.15 14.0517Z" fill="#DC002E"/>
<path fill-rule="evenodd" clip-rule="evenodd" d="M20.8305 13.5235C21.1452 13.2153 21.4458 12.8102 21.9171 12.7645C22.1108 12.7371 22.3082 12.7585 22.4918 12.8267C22.6755 12.8949 22.8396 13.0078 22.9698 13.1554C25.7214 15.9346 28.4716 18.7147 31.2204 21.4958C31.3333 21.604 31.4237 21.7339 31.4864 21.8778C31.5491 22.0217 31.5828 22.1768 31.5856 22.3341C31.5883 22.4913 31.5601 22.6476 31.5025 22.7937C31.4449 22.9398 31.359 23.0728 31.25 23.185C30.4132 24.041 29.5567 24.897 28.7185 25.753C26.4965 23.5093 24.2745 21.2642 22.0525 19.0176C19.839 21.249 17.6283 23.4841 15.4204 25.723C14.6039 24.8994 13.7883 24.0752 12.9736 23.2506C12.8294 23.1197 12.7194 22.9549 12.6532 22.7707C12.587 22.5866 12.5667 22.3888 12.594 22.1949C12.6462 21.7212 13.0427 21.4159 13.349 21.0977C15.8438 18.5782 18.3367 16.0578 20.8277 13.5363L20.8305 13.5235ZM22.0836 50.3618C29.4438 42.9088 36.7994 35.452 44.1502 27.9914C44.1615 29.7177 44.1601 31.444 44.1685 33.1703C44.1685 33.7666 44.1163 34.3901 43.8256 34.9208C43.5914 35.3346 43.2273 35.6456 42.9028 35.9837C36.6441 42.3086 30.3883 48.6336 24.1353 54.9585C23.5822 55.5948 22.7877 56.0771 21.9227 55.9886C21.1974 55.9572 20.5681 55.5278 20.0883 55.0028C13.6914 48.5351 7.29444 42.0675 0.89751 35.5999C0.416329 35.1505 -0.00982007 34.5713 0.0155795 33.8736C-0.00276462 31.9277 0.0339237 29.9817 0.0409791 28.0357C3.30342 31.3056 6.51223 34.6298 9.76902 37.904C13.8696 42.0585 17.9745 46.2111 22.0836 50.3618Z" fill="#4D9022"/>
</svg>
