<svg width="135" height="36" viewBox="0 0 135 36" fill="none" xmlns="http://www.w3.org/2000/svg">
<path fill-rule="evenodd" clip-rule="evenodd" d="M135.01 33.2853V2.71468C135.01 1.9947 134.723 1.30421 134.211 0.79511C133.7 0.28601 133.006 0 132.283 0L2.72748 0C2.00411 0 1.31036 0.28601 0.79886 0.79511C0.287359 1.30421 0 1.9947 0 2.71468H0V33.2853C0 34.0053 0.287359 34.6958 0.79886 35.2049C1.31036 35.714 2.00411 36 2.72748 36H132.283C133.006 36 133.7 35.714 134.211 35.2049C134.723 34.6958 135.01 34.0053 135.01 33.2853Z" fill="url(#paint0_linear_154_63)"/>
<path fill-rule="evenodd" clip-rule="evenodd" d="M14.8443 24.3577L11.4213 11.6293H13.6681L16.2967 21.4055L19.1162 11.6293H21.2095L24.0393 21.4564L26.6815 11.6327L28.9283 11.6293L25.5019 24.3543H22.9006L20.1663 14.8496L17.4286 24.3543L14.8443 24.3577Z" fill="white"/>
<path d="M32.6139 11.6356H30.4762V24.3471H32.6139V11.6356Z" fill="white"/>
<path fill-rule="evenodd" clip-rule="evenodd" d="M37.1824 22.3552H42.3885V24.3471H35.089V11.6356H37.1824V22.3552Z" fill="white"/>
<path fill-rule="evenodd" clip-rule="evenodd" d="M48.9617 11.6357C49.7794 11.6174 50.5916 11.7729 51.3441 12.0918C52.0966 12.4107 52.7722 12.8857 53.3256 13.4851C53.9033 14.0854 54.3558 14.7935 54.6571 15.5687C54.9585 16.3439 55.1027 17.1707 55.0814 18.0016C55.1174 19.6777 54.4863 21.2999 53.3256 22.5148C52.7712 23.1118 52.095 23.5841 51.3425 23.9001C50.5899 24.2161 49.7782 24.3685 48.9617 24.3472H43.9363V11.6357H48.9617ZM48.9617 22.3689C49.5118 22.3906 50.06 22.2915 50.5673 22.0786C51.0747 21.8657 51.5287 21.5443 51.8971 21.1371C52.6729 20.2845 53.085 19.1649 53.0461 18.0152C53.0905 16.8647 52.6777 15.7431 51.8971 14.8933C51.5265 14.4889 51.0721 14.1693 50.5653 13.9566C50.0585 13.744 49.5114 13.6433 48.9617 13.6615H46.0433V22.3689H48.9617Z" fill="white"/>
<path fill-rule="evenodd" clip-rule="evenodd" d="M66.3596 20.7162C66.372 21.204 66.2785 21.6887 66.0855 22.1373C65.8925 22.5858 65.6046 22.9877 65.2414 23.3155C64.5049 24.0056 63.5252 24.3798 62.5139 24.3572H57.0419V11.639H62.115C63.0984 11.6227 64.0496 11.9877 64.7675 12.657C65.1209 12.9714 65.4016 13.3585 65.5899 13.7914C65.7783 14.2244 65.8699 14.6929 65.8585 15.1646C65.8754 15.6703 65.766 16.1722 65.5398 16.6253C65.3137 17.0784 64.978 17.4685 64.5629 17.7605C65.1125 18.0355 65.5728 18.4596 65.8907 18.9837C66.2086 19.5079 66.3712 20.1108 66.3596 20.7229V20.7162ZM59.1489 13.5901V16.9326H62.1286C62.5609 16.9132 62.9689 16.7286 63.2679 16.4173C63.5669 16.106 63.7338 15.692 63.7338 15.2613C63.7338 14.8307 63.5669 14.4166 63.2679 14.1054C62.9689 13.7941 62.5609 13.6095 62.1286 13.5901H59.1489ZM62.5275 22.3959C62.9892 22.3758 63.4252 22.1792 63.7448 21.847C64.0643 21.5147 64.2427 21.0726 64.2427 20.6127C64.2427 20.1527 64.0643 19.7106 63.7448 19.3784C63.4252 19.0461 62.9892 18.8495 62.5275 18.8295H59.1489V22.3959H62.5275Z" fill="white"/>
<path fill-rule="evenodd" clip-rule="evenodd" d="M70.4439 22.362H76.1034V24.3539H68.3506V11.6356H76.0182V13.6309H70.4439V16.9326H75.5613V18.9143H70.4439V22.362Z" fill="white"/>
<path fill-rule="evenodd" clip-rule="evenodd" d="M85.2746 24.354L82.5472 19.7187H80.0856V24.354H77.9923V11.6392H83.1063C83.648 11.6256 84.1865 11.7255 84.687 11.9325C85.1874 12.1394 85.6385 12.4487 86.0111 12.8404C86.4026 13.2128 86.7124 13.6621 86.9207 14.1597C87.129 14.6573 87.2314 15.1925 87.2214 15.7315C87.2172 16.5274 86.9733 17.3037 86.5211 17.9601C86.0689 18.6164 85.4292 19.1227 84.6848 19.4133L87.5896 24.354H85.2746ZM80.0856 13.6039V17.8558H83.0927C83.3654 17.8506 83.6344 17.7912 83.8838 17.6809C84.1332 17.5707 84.3579 17.412 84.5447 17.2141C84.7315 17.0161 84.8766 16.783 84.9715 16.5284C85.0664 16.2738 85.1092 16.0028 85.0974 15.7315C85.1139 15.1851 84.9122 14.6544 84.5365 14.2556C84.1608 13.8568 83.6416 13.6225 83.0927 13.6039H80.0856Z" fill="white"/>
<path fill-rule="evenodd" clip-rule="evenodd" d="M96.4641 24.3542L93.7571 19.7189H91.2785V24.3542H89.1851V11.6291H94.2991C94.8411 11.6164 95.3796 11.7171 95.88 11.9246C96.3804 12.1321 96.8314 12.4418 97.2039 12.8338C97.5941 13.2071 97.9026 13.6566 98.1103 14.1541C98.318 14.6515 98.4203 15.1863 98.4108 15.7249C98.4072 16.5208 98.1639 17.2974 97.7123 17.9543C97.2608 18.6112 96.6217 19.1183 95.8777 19.4101L98.7824 24.3542H96.4641ZM91.2887 13.5973V17.8525H94.2991C94.8452 17.8218 95.3588 17.5843 95.7344 17.1886C96.1101 16.793 96.3194 16.2693 96.3194 15.7249C96.3194 15.1805 96.1101 14.6568 95.7344 14.2611C95.3588 13.8655 94.8452 13.628 94.2991 13.5973H91.2887Z" fill="white"/>
<path d="M102.42 11.6321H100.327V24.3571H102.42V11.6321Z" fill="white"/>
<path fill-rule="evenodd" clip-rule="evenodd" d="M106.992 22.362H112.652V24.3573H104.899V11.639H112.563V13.6309H106.992V16.9327H112.106V18.9144H106.992V22.362Z" fill="white"/>
<path fill-rule="evenodd" clip-rule="evenodd" d="M114.111 21.4594L115.918 20.404C116.436 21.8428 117.483 22.5452 119.089 22.5452C120.694 22.5452 121.475 21.8666 121.475 20.8723C121.484 20.6386 121.43 20.4066 121.319 20.2006C121.207 19.9947 121.042 19.8224 120.841 19.7016C120.129 19.2979 119.365 18.992 118.57 18.7922C117.616 18.5605 116.707 18.1729 115.88 17.6453C115.472 17.3574 115.144 16.9709 114.928 16.522C114.711 16.0732 114.613 15.5769 114.643 15.0799C114.621 14.5716 114.719 14.0652 114.929 13.6014C115.139 13.1376 115.456 12.7293 115.853 12.4093C116.665 11.7344 117.697 11.3795 118.754 11.4117C119.692 11.3861 120.617 11.639 121.41 12.1382C122.203 12.6374 122.828 13.3602 123.207 14.2146L121.438 15.2326C121.234 14.6942 120.865 14.2333 120.383 13.9148C119.902 13.5964 119.332 13.4365 118.754 13.4579C117.534 13.4579 116.75 14.0721 116.75 15.0426C116.75 16.0131 117.37 16.4203 119.331 17.0209C119.818 17.1804 120.173 17.2991 120.391 17.3874C120.609 17.4756 120.936 17.591 121.335 17.7538C121.67 17.8768 121.984 18.0496 122.266 18.2662C122.675 18.5684 123.007 18.962 123.235 19.4152C123.463 19.8685 123.581 20.3688 123.579 20.8757C123.599 21.3985 123.496 21.9188 123.279 22.395C123.061 22.8711 122.734 23.2898 122.324 23.6175C121.499 24.2962 120.408 24.6152 119.051 24.6152C116.572 24.5847 114.776 23.4139 114.111 21.4594Z" fill="white"/>
<defs>
<linearGradient id="paint0_linear_154_63" x1="0" y1="18.0017" x2="135" y2="18.0017" gradientUnits="userSpaceOnUse">
<stop stop-color="#A92284"/>
<stop offset="1" stop-color="#53237D"/>
</linearGradient>
</defs>
</svg>
